<svg xmlns="http://www.w3.org/2000/svg" xmlns:xlink="http://www.w3.org/1999/xlink" viewBox="0 0 429.74 382.65"><defs><style>.cls-1,.cls-13,.cls-2,.cls-4,.cls-7,.cls-9{fill:#fff;}.cls-1,.cls-10,.cls-11,.cls-14,.cls-19,.cls-2,.cls-20,.cls-21,.cls-5{stroke:#1a1a1a;}.cls-1,.cls-10,.cls-11,.cls-14,.cls-20,.cls-21{stroke-linecap:round;}.cls-1,.cls-10,.cls-11,.cls-14,.cls-20{stroke-linejoin:round;}.cls-1,.cls-10,.cls-11,.cls-14,.cls-19,.cls-2,.cls-21,.cls-5{stroke-width:1.11px;}.cls-19,.cls-2,.cls-21,.cls-5{stroke-miterlimit:10;}.cls-14,.cls-19,.cls-3{fill:#ccc;}.cls-4{opacity:0.7;}.cls-10,.cls-20,.cls-21,.cls-5{fill:none;}.cls-11,.cls-6{fill:#1a1a1a;}.cls-8{clip-path:url(#clip-path);}.cls-9{opacity:0.3;}.cls-12{clip-path:url(#clip-path-2);}.cls-13{opacity:0.5;}.cls-15{clip-path:url(#clip-path-3);}.cls-16{clip-path:url(#clip-path-4);}.cls-17{clip-path:url(#clip-path-5);}.cls-18{clip-path:url(#clip-path-6);}.cls-20{stroke-width:3.34px;}</style><clipPath id="clip-path"><circle class="cls-1" cx="253.84" cy="323.55" r="35.81" transform="translate(-66.63 65.83) rotate(-13.08)"/></clipPath><clipPath id="clip-path-2"><path class="cls-1" d="M190.22,283.75c-22.27,0-35.64-19.75-40.39-37.12l-.16-.61a6.54,6.54,0,1,1,12.65-3.29l.12.45c3.61,13.22,13.44,28.33,29.21,27.46a21.16,21.16,0,0,0,15.48-7.55c8.65-9.91,12.52-31.49,11.65-42.37a5.23,5.23,0,0,1,10.43-.83c1,12.11-.32,38.14-12.23,51.79a34.08,34.08,0,0,1-24.6,12Q191.29,283.75,190.22,283.75Z"/></clipPath><clipPath id="clip-path-3"><path class="cls-1" d="M175.28,158.15s-9.71,28.12-4.48,50a42.8,42.8,0,0,0,24.38,29.12s-14.18,5-11,12.69,15.43,2.73,19.41.25,9-10,9.71-14.94a35.73,35.73,0,0,0,.5-7.71S230,225.84,241,216.88c0,0,9.71,7.71,16.67,6.22s16.93-13.93,15.93-25.13-7.47-11.2-11.45-9.46a15.91,15.91,0,0,0-5.47,3.49s5.72-7,0-16.68a21.75,21.75,0,0,0-15.93-10.45s-3-15.93-11.94-21.9S188,130.78,175.28,158.15Z"/></clipPath><clipPath id="clip-path-4"><path class="cls-1" d="M155.12,144s-10.45,14.68-12,29.61.25,24.89,4.73,28.62,9,2.24,11.45-1.25-1.49-15.67-1.49-15.67,4.23-11.7,10.7-19.91,7.71-9.46,7.71-9.46S165.07,143.22,155.12,144Z"/></clipPath><clipPath id="clip-path-5"><path class="cls-1" d="M237,136.72s11.84,13.59,14.79,28.3,2.19,24.79-1.9,28.94-8.69,3.11-11.51-.11,0-15.75,0-15.75-5.36-11.23-12.61-18.76-8.6-8.66-8.6-8.66S227,137,237,136.72Z"/></clipPath><clipPath id="clip-path-6"><path class="cls-2" d="M154.14,131.27s-3.08,10.39-1.93,14.63,6.55.38,11.94,5,10.38,12.93,30.78,14.47,32.73-9.47,37-15.62,3.85-13.48,11.16-13.86,1.16-14.63-1.15-16.94c0,0,14.24-21.17,14.24-26.56s-13.47-4.24-30,.77c0,0-12.31-6.55-34.64-2.7s-28.87,10.4-28.87,10.4-27.72,3.46-29.64,6.93S136.82,125.88,154.14,131.27Z"/></clipPath></defs><title>404-cat-2</title><g id="Layer_2" data-name="Layer 2"><g id="Background_Simple" data-name="Background Simple"><path class="cls-3" d="M.13,204.65s2.34,72.67,63,121.12,144.74,51.91,212.79,56.51,120.33-33.93,128.21-92.17S360,214.78,331.8,148.48,306.1,60.4,246.4,19.62,93.3,3.89,44.34,73.74.13,204.65.13,204.65Z"/><path class="cls-4" d="M.13,204.65s2.34,72.67,63,121.12,144.74,51.91,212.79,56.51,120.33-33.93,128.21-92.17S360,214.78,331.8,148.48,306.1,60.4,246.4,19.62,93.3,3.89,44.34,73.74.13,204.65.13,204.65Z"/></g><g id="Floor"><line class="cls-5" x1="27.73" y1="322" x2="18.56" y2="322"/><line class="cls-5" x1="399.58" y1="322" x2="42.26" y2="322"/></g><g id="Yarn_Ball" data-name="Yarn Ball"><ellipse class="cls-6" cx="265.14" cy="352.02" rx="30.39" ry="8.36"/><path class="cls-2" d="M108.09,371c-31.62,0-36.29-4.57-36.75-8.26a5,5,0,0,1,1.44-4.23c8.52-8.94,57.61-5.16,125.56.07,9.48.73,19.28,1.49,29.33,2.23,68.65,5.1,96.29,4.44,102-2.45,1.17-1.42,1.41-3.18.76-5.56-2.71-9.95-39.07-10-52.84-9.22a1.19,1.19,0,1,1-.14-2.37c5.26-.31,51.56-2.64,55.28,11,.85,3.14.45,5.65-1.22,7.69-6.42,7.78-32.65,8.61-104,3.31-10.05-.74-19.85-1.5-29.33-2.23-64.77-5-115.92-8.93-123.66-.8a2.64,2.64,0,0,0-.8,2.29c.29,2.36,6,7.64,52,5.8,25.73-1,51.58-3.83,51.84-3.86a1.19,1.19,0,1,1,.25,2.36c-.25,0-26.18,2.84-52,3.87C119.13,370.89,113.25,371,108.09,371Z"/><circle class="cls-7" cx="253.84" cy="323.55" r="35.81" transform="translate(-66.63 65.83) rotate(-13.08)"/><g class="cls-8"><path class="cls-3" d="M253.84,359.36a35.81,35.81,0,0,0,29.58-56c-.39,15.6-9,38.63-53.78,46.56A35.66,35.66,0,0,0,253.84,359.36Z"/><path class="cls-9" d="M253.84,359.36a35.81,35.81,0,0,0,29.58-56c-.39,15.6-9,38.63-53.78,46.56A35.66,35.66,0,0,0,253.84,359.36Z"/><path class="cls-10" d="M271.46,337.59a57,57,0,0,0-22.64-13.51,57,57,0,0,1,22.64,13.51l1.9,0a66.37,66.37,0,0,0,10.79-14.07C267.37,305.81,251,307.62,251,307.62s16.35-1.81,33.13,15.93c.92-1.64,1.69-3.19,2.32-4.63-6.94-9.78-19-16.41-25.44-17.43l-1.5-.35a20.89,20.89,0,0,0-7-.1,20.89,20.89,0,0,1,7,.1l4.27-12a36.09,36.09,0,0,0-6.18-1.18c-2.76,4.46-9.9,18.74-9.9,47.07,0-28.33,7.14-42.61,9.9-47.07A34.43,34.43,0,0,0,250,288c-4.22,6.38-12.29,21.45-12.84,44.07C245.52,335.11,256.73,337.38,271.46,337.59Zm8.09-7.29c-14.27-13.9-30-14.63-30-14.63S265.28,316.4,279.55,330.3Z"/><path class="cls-10" d="M237.11,332.11c.55-22.62,8.62-37.69,12.84-44.07a35.54,35.54,0,0,0-9.62,2.47A71.38,71.38,0,0,0,228,328.1,65.08,65.08,0,0,0,237.11,332.11Z"/><path class="cls-10" d="M240.33,290.51a35.87,35.87,0,0,0-22.11,30.72A46.66,46.66,0,0,0,228,328.1,71.38,71.38,0,0,1,240.33,290.51Z"/><path class="cls-10" d="M286.47,318.92a44.18,44.18,0,0,0,2-5.3,35.83,35.83,0,0,0-7.63-13.77l-2.72,9.23,2.72-9.23a36,36,0,0,0-7.55-6.43l-3.05,11.41,3.05-11.41a35.74,35.74,0,0,0-9.46-4.25l-4.27,12C266,302.16,276.17,306,286.47,318.92Z"/><path class="cls-10" d="M289.84,325.24c0-.52,0-1,0-1.56a35.92,35.92,0,0,0-1.44-10.06,44.18,44.18,0,0,1-2,5.3l0,0,0,0A21.59,21.59,0,0,1,285,322c.05.06-.86,1.51-.8,1.57s-1,1.8-1,1.74c-2.38,4.23-9.56,12.33-9.44,12.33-.12,0-3.88,3.41-5.94,5.13h0a98.63,98.63,0,0,1-11.88,8.45l.26,0-.26,0a125.14,125.14,0,0,1-12.69,6.7A36,36,0,0,0,254,359.56c.6,0,1.21,0,1.8-.05C263.05,355.58,274.71,346.43,289.84,325.24Z"/><path class="cls-10" d="M289.84,325.24c-15.13,21.19-26.79,30.34-34,34.27A35.88,35.88,0,0,0,289.84,325.24Z"/><path class="cls-10" d="M226,346.05a35.91,35.91,0,0,0,17.23,11.85,125.14,125.14,0,0,0,12.69-6.7C247.34,352.78,234,348.86,226,346.05Z"/><path class="cls-10" d="M255.88,351.2a98.63,98.63,0,0,0,11.88-8.45c-25.78,2.64-41.69-5.34-48.45-9.89A35.88,35.88,0,0,0,226,346.05C234,348.86,247.34,352.78,255.88,351.2Z"/><path class="cls-10" d="M267.76,342.75c2.06-1.72,3.91-3.43,5.6-5.13l-1.9,0,.41.4-.41-.4c-14.73-.21-25.94-2.48-34.35-5.48v0c-12.29-4.25-16.71-8.84-18.89-10.88-.06.81-.1,1.63-.1,2.45a36.1,36.1,0,0,0,1.19,9.18C226.07,337.41,242,345.39,267.76,342.75Z"/></g><circle class="cls-10" cx="253.84" cy="323.55" r="35.81" transform="translate(-66.63 65.83) rotate(-13.08)"/></g><g id="Plants"><path class="cls-3" d="M319.8,262.36s-2.45-8-9.59-10.82c-5-2-10.68-1.46-15.82-.57-9.58,1.67-17.94,5.48-27,8.73,0,0,3.87-1.42,19.79,6.33,5.86,2.85,12.56,5.07,19.26,4.92C311.81,270.83,320.06,269.3,319.8,262.36Z"/><path class="cls-3" d="M320.66,239s0-8.32-6.06-13.12c-4.17-3.34-9.79-4.49-15-5.12-9.66-1.17-18.76.06-28.4.56,0,0,4.12-.25,17.12,11.77,4.79,4.42,10.56,8.48,17,10.27C310.56,244.78,318.9,245.7,320.66,239Z"/><path class="cls-3" d="M337.11,269.89s-6.49-5.21-6.51-12.9c0-5.34,2.57-10.46,5.3-14.91,5.08-8.29,11.7-14.66,18.08-21.9,0,0-2.76,3.07-1.42,20.72.49,6.5.08,13.55-2.53,19.73C347.93,265.59,343.47,272.69,337.11,269.89Z"/><path class="cls-3" d="M360.11,282.68s-.92-8.28,4.5-13.74c3.76-3.79,9.21-5.59,14.28-6.81,9.45-2.28,18.64-2.11,28.27-2.74,0,0-4.12.23-15.64,13.68-4.25,4.95-9.51,9.64-15.72,12.17C370.81,287.27,362.63,289.15,360.11,282.68Z"/><path class="cls-3" d="M358.6,253.18s-8.25-1.13-12.22-7.72c-2.76-4.58-3.16-10.3-3.11-15.52.1-9.72,2.51-18.59,4.26-28.08,0,0-.78,4.06,9.43,18.52,3.77,5.32,7,11.58,8,18.22C365.67,243.93,365.49,252.32,358.6,253.18Z"/><path class="cls-3" d="M382.33,238.37s5.94,5.84,13.58,5c5.31-.61,10.09-3.78,14.19-7,7.64-6,13.19-13.33,19.64-20.51,0,0-2.73,3.09-20.42,3.83-6.51.26-13.46,1.5-19.29,4.81C385.35,227.12,378.81,232.39,382.33,238.37Z"/><path class="cls-3" d="M375.47,232.6s8.28.83,13.68-4.64c3.76-3.8,5.5-9.27,6.67-14.36,2.18-9.47,1.92-18.66,2.44-28.29,0,0-.19,4.12-13.51,15.78-4.9,4.29-9.55,9.61-12,15.85C370.76,221.94,369,230.14,375.47,232.6Z"/><polyline class="cls-10" points="345.89 313.21 331.6 278.02 315.1 237.34"/><polyline class="cls-10" points="349.19 307.16 363.49 258.23 378.88 227.99"/><line class="cls-10" x1="354.69" y1="287.92" x2="368.99" y2="279.67"/><line class="cls-10" x1="363.49" y1="258.23" x2="356.34" y2="242.28"/><line class="cls-10" x1="372.43" y1="242.36" x2="389.88" y2="234.59"/><line class="cls-10" x1="334.35" y1="284.62" x2="340.4" y2="260.43"/><line class="cls-10" x1="326.33" y1="266.23" x2="312.35" y2="258.78"/><path class="cls-11" d="M353.23,330.81H341.31a8.38,8.38,0,0,1-8.23-6.81l-4.23-22.33h36.84L361.45,324A8.37,8.37,0,0,1,353.23,330.81Z"/></g><g id="Text"><path class="cls-6" d="M17.73,194.67c0-2.77,1.28-4.81,4.16-4.81s4.21,2,4.21,4.81v9.72c0,2.77-1.28,4.81-4.21,4.81s-4.16-2-4.16-4.81ZM19,204.48c0,2.06.82,3.58,2.91,3.58s3-1.52,3-3.58v-9.89c0-2.07-.84-3.59-3-3.59S19,192.52,19,194.59Z"/><path class="cls-6" d="M28.08,194.67c0-2.77,1.28-4.81,4.16-4.81s4.21,2,4.21,4.81v9.72c0,2.77-1.28,4.81-4.21,4.81s-4.16-2-4.16-4.81Zm1.25,9.81c0,2.06.82,3.58,2.91,3.58s3-1.52,3-3.58v-9.89c0-2.07-.84-3.59-3-3.59s-2.91,1.52-2.91,3.59Z"/><path class="cls-6" d="M42.45,190c2.93,0,4.07,1.84,4.07,4.61v2.07c0,3-1.38,4.51-4.4,4.51H39.76V209H38.51V190Zm-.33,10.05c2.2,0,3.15-1,3.15-3.29v-2.23c0-2.06-.7-3.39-2.82-3.39H39.76v8.91Z"/><path class="cls-6" d="M56.41,194.62v.4H55.22v-.49c0-2-.76-3.53-2.83-3.53s-2.82,1.5-2.82,3.51c0,4.61,6.87,4.7,6.87,9.94,0,2.74-1.19,4.75-4.1,4.75s-4.1-2-4.1-4.75v-1h1.19v1.06c0,2,.79,3.5,2.88,3.5s2.88-1.46,2.88-3.5c0-4.56-6.87-4.65-6.87-9.94,0-2.85,1.25-4.7,4-4.73S56.41,191.87,56.41,194.62Z"/><path class="cls-6" d="M59.54,206.65V209H58.32v-2.39Z"/><path class="cls-6" d="M62.94,206.65V209H61.71v-2.39Z"/><path class="cls-6" d="M66.33,206.65V209H65.11v-2.39Z"/><path class="cls-6" d="M21.75,217.69c2.93,0,4.07,1.84,4.07,4.61v2.07c0,3-1.38,4.51-4.4,4.51H19.06v7.82H17.81v-19Zm-.33,10.05c2.2,0,3.15-1,3.15-3.29v-2.23c0-2.06-.7-3.39-2.82-3.39H19.06v8.91Z"/><path class="cls-6" d="M29.17,232.49l-1,4.21H27.08l4.15-19h1.82l4.24,19H36l-.95-4.21Zm.19-1.09H34.9l-2.8-12.3Z"/><path class="cls-6" d="M47.29,222.33v1.41h-1.2v-1.49c0-2-.79-3.58-2.88-3.58s-2.88,1.54-2.88,3.58v9.89c0,2,.79,3.55,2.88,3.55s2.88-1.52,2.88-3.55V228H43.57V226.9h3.72v5.16c0,2.74-1.2,4.8-4.11,4.8s-4.1-2.06-4.1-4.8v-9.73c0-2.74,1.2-4.81,4.1-4.81S47.29,219.59,47.29,222.33Z"/><path class="cls-6" d="M55.82,226.49v1.14H50.63v7.93h6.24v1.14H49.38v-19h7.49v1.14H50.63v7.66Z"/><path class="cls-6" d="M64.27,236.7H63.12v-19h1.63l5.71,16.05V217.69H71.6v19H70.21l-5.94-16.95Z"/><path class="cls-6" d="M73.67,222.33c0-2.77,1.27-4.81,4.15-4.81s4.21,2,4.21,4.81v9.73c0,2.77-1.28,4.8-4.21,4.8s-4.15-2-4.15-4.8Zm1.24,9.81c0,2.06.82,3.58,2.91,3.58s3-1.52,3-3.58v-9.89c0-2.06-.84-3.58-3-3.58s-2.91,1.52-2.91,3.58Z"/><path class="cls-6" d="M87.3,236.7V218.83H83.44v-1.14h9v1.14H88.55V236.7Z"/><path class="cls-6" d="M104.36,227v1.14H99.45v8.61H98.2v-19h7.22v1.14h-6V227Z"/><path class="cls-6" d="M107.24,222.33c0-2.77,1.28-4.81,4.16-4.81s4.21,2,4.21,4.81v9.73c0,2.77-1.28,4.8-4.21,4.8s-4.16-2-4.16-4.8Zm1.25,9.81c0,2.06.82,3.58,2.91,3.58s3-1.52,3-3.58v-9.89c0-2.06-.84-3.58-3-3.58s-2.91,1.52-2.91,3.58Z"/><path class="cls-6" d="M118.87,232.11c0,2,.76,3.61,2.85,3.61s2.85-1.57,2.85-3.61V217.69h1.17v14.37c0,2.71-1.14,4.8-4,4.8s-4.07-2.09-4.07-4.8V217.69h1.25Z"/><path class="cls-6" d="M129,236.7h-1.14v-19h1.63l5.7,16.05V217.69h1.14v19H135L129,219.75Z"/><path class="cls-6" d="M142.69,217.69c2.94,0,4.21,1.93,4.21,4.72V232c0,2.8-1.27,4.73-4.21,4.73h-4.18v-19Zm0,17.87c2.12,0,3-1.44,3-3.53v-9.67c0-2.09-.89-3.53-3-3.53h-2.9v16.73Z"/></g><g id="Character"><path class="cls-7" d="M190.22,283.75c-22.27,0-35.64-19.75-40.39-37.12l-.16-.61a6.54,6.54,0,1,1,12.65-3.29l.12.45c3.61,13.22,13.44,28.33,29.21,27.46a21.16,21.16,0,0,0,15.48-7.55c8.65-9.91,12.52-31.49,11.65-42.37a5.23,5.23,0,0,1,10.43-.83c1,12.11-.32,38.14-12.23,51.79a34.08,34.08,0,0,1-24.6,12Q191.29,283.75,190.22,283.75Z"/><g class="cls-12"><path class="cls-3" d="M223.58,215.09a5.24,5.24,0,0,0-4.8,5.63c.43,5.31-.28,13.16-2.12,21a23,23,0,0,1,7.76,1,41.23,41.23,0,0,1-7.63,20.87c-9.71,13.49-24.28,17.8-35.61,16.19-5.06-.73-10.88-3.39-15.76-6.12a35.57,35.57,0,0,0,24.8,10.11q1.07,0,2.16-.06a34.08,34.08,0,0,0,24.6-12C228.89,258,230.17,232,229.21,219.89A5.23,5.23,0,0,0,223.58,215.09Z"/><path class="cls-13" d="M223.58,215.09a5.24,5.24,0,0,0-4.8,5.63c.43,5.31-.28,13.16-2.12,21a23,23,0,0,1,7.76,1,41.23,41.23,0,0,1-7.63,20.87c-9.71,13.49-24.28,17.8-35.61,16.19-5.06-.73-10.88-3.39-15.76-6.12a35.57,35.57,0,0,0,24.8,10.11q1.07,0,2.16-.06a34.08,34.08,0,0,0,24.6-12C228.89,258,230.17,232,229.21,219.89A5.23,5.23,0,0,0,223.58,215.09Z"/></g><path class="cls-10" d="M190.22,283.75c-22.27,0-35.64-19.75-40.39-37.12l-.16-.61a6.54,6.54,0,1,1,12.65-3.29l.12.45c3.61,13.22,13.44,28.33,29.21,27.46a21.16,21.16,0,0,0,15.48-7.55c8.65-9.91,12.52-31.49,11.65-42.37a5.23,5.23,0,0,1,10.43-.83c1,12.11-.32,38.14-12.23,51.79a34.08,34.08,0,0,1-24.6,12Q191.29,283.75,190.22,283.75Z"/><path class="cls-14" d="M177.38,270.22c.52-2.45-5.34,1.38-10.25,4.95a38.93,38.93,0,0,0,5.85,4.07C174.73,276.39,176.87,272.59,177.38,270.22Z"/><path class="cls-14" d="M190.22,283.75q1.07,0,2.16-.06a37.62,37.62,0,0,0,6.31-.89c-2.75-3.6-6.55-8.35-7.65-8.72s-3.65,5.72-5,9.43A35.41,35.41,0,0,0,190.22,283.75Z"/><path class="cls-14" d="M162.44,243.18l-.12-.45A6.54,6.54,0,1,0,149.67,246l.16.61a64,64,0,0,0,7.6,17.27l11.91-5.67A49.59,49.59,0,0,1,162.44,243.18Z"/><path class="cls-14" d="M217,271.68a32.59,32.59,0,0,0,2.54-3.34c-3.78-1.29-9.44-3.07-11.54-2.87-2.5.22.89,8.22,2.63,12A37.24,37.24,0,0,0,217,271.68Z"/><path class="cls-14" d="M217.18,250.32c-.39.79,4.5,4.36,7.8,6.64a74.88,74.88,0,0,0,2.52-9.52C223.5,248.24,217.58,249.53,217.18,250.32Z"/><path class="cls-14" d="M229.12,235.52c.22-2.85.33-5.57.34-8.07-3.44,1.9-7.52,4.51-7.52,6.23S225.76,235.61,229.12,235.52Z"/><path class="cls-7" d="M175.28,158.15s-9.71,28.12-4.48,50a42.8,42.8,0,0,0,24.38,29.12s-14.18,5-11,12.69,15.43,2.73,19.41.25,9-10,9.71-14.94a35.73,35.73,0,0,0,.5-7.71S230,225.84,241,216.88c0,0,9.71,7.71,16.67,6.22s16.93-13.93,15.93-25.13-7.47-11.2-11.45-9.46a15.91,15.91,0,0,0-5.47,3.49s5.72-7,0-16.68a21.75,21.75,0,0,0-15.93-10.45s-3-15.93-11.94-21.9S188,130.78,175.28,158.15Z"/><g class="cls-15"><path class="cls-3" d="M249.21,167.83a56.45,56.45,0,0,1-43.86,27.22c-19.8,1.73-30.9-2.17-36-4.88a127.12,127.12,0,0,1,5.95-32C188,130.78,219.82,137,228.78,143s11.94,21.9,11.94,21.9A21.31,21.31,0,0,1,249.21,167.83Zm12.91,20.68a15.91,15.91,0,0,0-5.47,3.49,13.13,13.13,0,0,0,2.33-5.64c-13.45,6.69-12.4,21-14.07,21-2.06,0-3.09-7.19-3.09-7.19s-2.56,10.28-18,17.47S191,219.19,191,219.19s3.59,8.22-5.65,7.19a15.23,15.23,0,0,1-7.23-2.64,42.91,42.91,0,0,0,17.09,13.55s-14.18,5-11,12.69,15.43,2.73,19.41.25,9-10,9.71-14.94a35.73,35.73,0,0,0,.5-7.71S230,225.84,241,216.88c0,0,9.71,7.71,16.67,6.22s16.93-13.93,15.93-25.13S266.1,186.77,262.12,188.51Z"/><path class="cls-13" d="M249.21,167.83a56.45,56.45,0,0,1-43.86,27.22c-19.8,1.73-30.9-2.17-36-4.88a127.12,127.12,0,0,1,5.95-32C188,130.78,219.82,137,228.78,143s11.94,21.9,11.94,21.9A21.31,21.31,0,0,1,249.21,167.83Zm12.91,20.68a15.91,15.91,0,0,0-5.47,3.49,13.13,13.13,0,0,0,2.33-5.64c-13.45,6.69-12.4,21-14.07,21-2.06,0-3.09-7.19-3.09-7.19s-2.56,10.28-18,17.47S191,219.19,191,219.19s3.59,8.22-5.65,7.19a15.23,15.23,0,0,1-7.23-2.64,42.91,42.91,0,0,0,17.09,13.55s-14.18,5-11,12.69,15.43,2.73,19.41.25,9-10,9.71-14.94a35.73,35.73,0,0,0,.5-7.71S230,225.84,241,216.88c0,0,9.71,7.71,16.67,6.22s16.93-13.93,15.93-25.13S266.1,186.77,262.12,188.51Z"/><path class="cls-10" d="M213.85,227.58a35.12,35.12,0,0,1-28.15-12.91"/></g><path class="cls-10" d="M175.28,158.15s-9.71,28.12-4.48,50a42.8,42.8,0,0,0,24.38,29.12s-14.18,5-11,12.69,15.43,2.73,19.41.25,9-10,9.71-14.94a35.73,35.73,0,0,0,.5-7.71S230,225.84,241,216.88c0,0,9.71,7.71,16.67,6.22s16.93-13.93,15.93-25.13-7.47-11.2-11.45-9.46a15.91,15.91,0,0,0-5.47,3.49s5.72-7,0-16.68a21.75,21.75,0,0,0-15.93-10.45s-3-15.93-11.94-21.9S188,130.78,175.28,158.15Z"/><path class="cls-10" d="M256.65,192s-5.23,3.48-7.72,14.18"/><path class="cls-1" d="M266.24,196.57c-.61,1.82-2.28,2.91-3.72,2.42s-2.11-2.35-1.49-4.18,2.28-2.9,3.72-2.42S266.86,194.75,266.24,196.57Z"/><path class="cls-1" d="M271.39,199.81c-.62,1.82-2.28,2.91-3.72,2.42s-2.11-2.35-1.49-4.18,2.28-2.91,3.72-2.42S272,198,271.39,199.81Z"/><path class="cls-1" d="M272.49,204.66a2.06,2.06,0,1,1-1.09-3A2.33,2.33,0,0,1,272.49,204.66Z"/><path class="cls-1" d="M265.92,211.32c-1.8,3.25-5.4,4.69-8.05,3.23s-3.33-5.29-1.53-8.53,5.4-4.69,8-3.23S267.71,208.07,265.92,211.32Z"/><path class="cls-10" d="M195.18,237.29a15.08,15.08,0,0,0,10.7.74"/><path class="cls-10" d="M184.23,250s1-4.23,7.22-7.22"/><path class="cls-10" d="M190.46,253.71s2.48-6,6.71-8.71"/><path class="cls-6" d="M92.32,184.87a8.59,8.59,0,0,1-3.21-7.08V154.07H28a10.32,10.32,0,0,1-8-3.32,11.2,11.2,0,0,1-3.06-7.84,11.92,11.92,0,0,1,2-6.65L77.52,44.2Q84.06,34,95,34a15.7,15.7,0,0,1,10.73,3.76Q110,41.52,110,48.93v89.48h15.56a7.32,7.32,0,0,1,5.79,2.31,8.5,8.5,0,0,1,0,11.05,7.31,7.31,0,0,1-5.79,2.3H109.92v23.72a8.71,8.71,0,0,1-3.11,7.08,11,11,0,0,1-7.19,2.57A11.42,11.42,0,0,1,92.32,184.87Zm-3.21-46.46V56l-51.29,82.4Z"/><path class="cls-6" d="M177.19,185.35a42.47,42.47,0,0,1-15.5-11.59,59.76,59.76,0,0,1-9.76-17.65,102.32,102.32,0,0,1-5.31-21.35,175.15,175.15,0,0,1-1.51-23.93q0-79.06,54-79.07t53.86,79.07a183,183,0,0,1-1.44,23.82A100.22,100.22,0,0,1,246.24,156a60.06,60.06,0,0,1-9.77,17.66A43,43,0,0,1,221,185.3a57,57,0,0,1-43.78,0Zm32.57-15.13a25.13,25.13,0,0,0,8.05-5.47,31.6,31.6,0,0,0,5.68-8.42,59.54,59.54,0,0,0,3.81-10.2,84.87,84.87,0,0,0,2.2-11.64q.81-6.48,1.07-11.91t.27-11.75q0-6.64-.27-12.28t-1.12-12.13a91.52,91.52,0,0,0-2.26-11.64,57.32,57.32,0,0,0-3.8-10.08,31.14,31.14,0,0,0-5.69-8.26,24.12,24.12,0,0,0-8-5.31,29.33,29.33,0,0,0-21.24,0,24,24,0,0,0-7.94,5.25,32.18,32.18,0,0,0-5.69,8.21A52.16,52.16,0,0,0,171,74.68a96.87,96.87,0,0,0-2.19,11.69q-.87,6.54-1.13,12.18t-.27,12.28q0,6.35.27,11.81t1.07,12a84.87,84.87,0,0,0,2.2,11.64,59.76,59.76,0,0,0,3.81,10.19,31.33,31.33,0,0,0,5.63,8.37,24.71,24.71,0,0,0,8,5.42,28.31,28.31,0,0,0,21.35,0Z"/><path class="cls-6" d="M345.65,184.87a8.57,8.57,0,0,1-3.22-7.08V154.07H281.27a10.33,10.33,0,0,1-8-3.32,11.2,11.2,0,0,1-3.06-7.84,11.92,11.92,0,0,1,2-6.65L330.84,44.2Q337.38,34,348.33,34a15.68,15.68,0,0,1,10.73,3.76q4.29,3.75,4.29,11.16v89.48h15.56a7.32,7.32,0,0,1,5.79,2.31,8.5,8.5,0,0,1,0,11.05,7.31,7.31,0,0,1-5.79,2.3H363.24v23.72a8.71,8.71,0,0,1-3.11,7.08,11,11,0,0,1-7.19,2.57A11.37,11.37,0,0,1,345.65,184.87Zm-3.22-46.46V56l-51.29,82.4Z"/><path class="cls-7" d="M155.12,144s-10.45,14.68-12,29.61.25,24.89,4.73,28.62,9,2.24,11.45-1.25-1.49-15.67-1.49-15.67,4.23-11.7,10.7-19.91,7.71-9.46,7.71-9.46S165.07,143.22,155.12,144Z"/><g class="cls-16"><path class="cls-3" d="M155.12,144A80.76,80.76,0,0,0,149,154.55c5,2,12.75,6.11,17.67,13.36.59-.87,1.21-1.72,1.86-2.54,6.47-8.21,7.71-9.46,7.71-9.46S165.07,143.22,155.12,144Z"/><path class="cls-13" d="M155.12,144A80.76,80.76,0,0,0,149,154.55c5,2,12.75,6.11,17.67,13.36.59-.87,1.21-1.72,1.86-2.54,6.47-8.21,7.71-9.46,7.71-9.46S165.07,143.22,155.12,144Z"/></g><path class="cls-10" d="M155.12,144s-10.45,14.68-12,29.61.25,24.89,4.73,28.62,9,2.24,11.45-1.25-1.49-15.67-1.49-15.67,4.23-11.7,10.7-19.91,7.71-9.46,7.71-9.46S165.07,143.22,155.12,144Z"/><path class="cls-10" d="M147.9,202.2a27.67,27.67,0,0,1-1.74-10.2"/><path class="cls-10" d="M154.62,203.69s-2.49-4.23-2.74-11.45"/><path class="cls-14" d="M158.35,170.59c0-2.62-5-7.74-11.95-10a59,59,0,0,0-2.3,7.47,29.65,29.65,0,0,1,7.78,2.49C155.62,172.59,158.35,173.58,158.35,170.59Z"/><path class="cls-14" d="M154.51,144.86a85.58,85.58,0,0,0-4.41,7.56,23.87,23.87,0,0,1,6,2.5c7.72,4.48,9.21,5,6.72-1.5C161.28,149.4,157.71,146.62,154.51,144.86Z"/><path class="cls-7" d="M237,136.72s11.84,13.59,14.79,28.3,2.19,24.79-1.9,28.94-8.69,3.11-11.51-.11,0-15.75,0-15.75-5.36-11.23-12.61-18.76-8.6-8.66-8.6-8.66S227,137,237,136.72Z"/><g class="cls-17"><path class="cls-3" d="M237,136.72c-10,.23-19.88,14-19.88,14s1.36,1.12,8.6,8.66a51.51,51.51,0,0,1,3.83,4.49,42.09,42.09,0,0,1,15.66-15.29A82.47,82.47,0,0,0,237,136.72Z"/><path class="cls-13" d="M237,136.72c-10,.23-19.88,14-19.88,14s1.36,1.12,8.6,8.66a51.51,51.51,0,0,1,3.83,4.49,42.09,42.09,0,0,1,15.66-15.29A82.47,82.47,0,0,0,237,136.72Z"/></g><path class="cls-10" d="M237,136.72s11.84,13.59,14.79,28.3,2.19,24.79-1.9,28.94-8.69,3.11-11.51-.11,0-15.75,0-15.75-5.36-11.23-12.61-18.76-8.6-8.66-8.6-8.66S227,137,237,136.72Z"/><path class="cls-10" d="M249.86,194a27.68,27.68,0,0,0,.73-10.32"/><path class="cls-10" d="M243.32,196.11a26.06,26.06,0,0,0,1.6-11.66"/><path class="cls-14" d="M236.36,163.54c-.26-2.62,4.21-8.2,10.92-11.09a59.25,59.25,0,0,1,3,7.2,29.77,29.77,0,0,0-7.5,3.25C239.28,165.25,236.65,166.51,236.36,163.54Z"/><path class="cls-14" d="M237.66,137.55a81.4,81.4,0,0,1,5.14,7.09,24.24,24.24,0,0,0-5.75,3.07c-7.24,5.22-8.67,5.86-6.83-.82C231.37,142.73,234.65,139.62,237.66,137.55Z"/><path class="cls-7" d="M154.14,131.27s-3.08,10.39-1.93,14.63,6.55.38,11.94,5,10.38,12.93,30.78,14.47,32.73-9.47,37-15.62,3.85-13.48,11.16-13.86,1.16-14.63-1.15-16.94c0,0,14.24-21.17,14.24-26.56s-13.47-4.24-30,.77c0,0-12.31-6.55-34.64-2.7s-28.87,10.4-28.87,10.4-27.72,3.46-29.64,6.93S136.82,125.88,154.14,131.27Z"/><g class="cls-18"><path class="cls-3" d="M243.06,135.89c7.32-.39,1.16-14.63-1.15-16.94,0,0,2.71-4,5.76-9-8.28-4.33-16.4-6.73-18.56-4.3-4.64,5.23-2.11,15.23,0,25s-6.34,13.95-12.26,22.41-14.38-.84-14.38-.84c-3,12.26-15.64,4.22-15.64,4.22-9.73-3-26.22-12.68-22.83-19.45s4.22-13.11-1.7-18.6-29.52-10.06-29.52-10.06h0c-1.24,4.17,4.75,17.83,21.36,23,0,0-3.08,10.39-1.93,14.63s6.55.38,11.94,5,10.38,12.93,30.78,14.47,32.73-9.47,37-15.62S235.75,136.27,243.06,135.89Z"/><path class="cls-13" d="M243.06,135.89c7.32-.39,1.16-14.63-1.15-16.94,0,0,2.71-4,5.76-9-8.28-4.33-16.4-6.73-18.56-4.3-4.64,5.23-2.11,15.23,0,25s-6.34,13.95-12.26,22.41-14.38-.84-14.38-.84c-3,12.26-15.64,4.22-15.64,4.22-9.73-3-26.22-12.68-22.83-19.45s4.22-13.11-1.7-18.6-29.52-10.06-29.52-10.06h0c-1.24,4.17,4.75,17.83,21.36,23,0,0-3.08,10.39-1.93,14.63s6.55.38,11.94,5,10.38,12.93,30.78,14.47,32.73-9.47,37-15.62S235.75,136.27,243.06,135.89Z"/><path class="cls-3" d="M213,138.22c.28,2.43-5.13,5.06-12.09,5.87s-12.83-.51-13.11-2.94,5.13-5.07,12.09-5.88S212.68,135.78,213,138.22Z"/><path class="cls-13" d="M213,138.22c.28,2.43-5.13,5.06-12.09,5.87s-12.83-.51-13.11-2.94,5.13-5.07,12.09-5.88S212.68,135.78,213,138.22Z"/></g><path class="cls-5" d="M154.14,131.27s-3.08,10.39-1.93,14.63,6.55.38,11.94,5,10.38,12.93,30.78,14.47,32.73-9.47,37-15.62,3.85-13.48,11.16-13.86,1.16-14.63-1.15-16.94c0,0,14.24-21.17,14.24-26.56s-13.47-4.24-30,.77c0,0-12.31-6.55-34.64-2.7s-28.87,10.4-28.87,10.4-27.72,3.46-29.64,6.93S136.82,125.88,154.14,131.27Z"/><path class="cls-19" d="M233.75,100.42c-9.95,6.72-6.47,13.44-2,17.17,2.74,2.28,7.14,2,10.15,1.37h0s14.24-21.17,14.24-26.56C256.15,92.39,243.71,93.7,233.75,100.42Z"/><path class="cls-19" d="M132.78,108.27c-1.24,4.17,4.75,17.83,21.36,23,0,0,12.68-1.24,8.44-11.44C158.64,110.31,138.67,107.94,132.78,108.27Z"/><path class="cls-19" d="M191.48,90.46c-1.32.23-2.57.47-3.78.71,2,10.1,5.29,26.92,8.23,26.92s5.19-18.44,6.15-28.77A81.78,81.78,0,0,0,191.48,90.46Z"/><path class="cls-19" d="M180,115.1c3.07-1.8,2.61-15.33,2.12-22.67a84.45,84.45,0,0,0-9.32,2.91C173.92,102.21,176.74,117,180,115.1Z"/><path class="cls-19" d="M209.62,108.88c3.13,1.1,4.88-10.15,5.88-18.81a62.44,62.44,0,0,0-9.56-.81C205.84,96.38,206.23,107.7,209.62,108.88Z"/><path class="cls-14" d="M205.43,147.83a11.8,11.8,0,0,0-8.68,1.06.86.86,0,0,0-.16,1.37l5.32,5a.86.86,0,0,0,1.37-.27l2.71-6A.84.84,0,0,0,205.43,147.83Z"/><path class="cls-6" d="M192.81,139.48c.73,1.93.44,3.83-.65,4.24s-2.57-.8-3.31-2.73-.44-3.83.65-4.24S192.07,137.56,192.81,139.48Z"/><path class="cls-6" d="M207.29,138.1c-.38,2,.24,3.85,1.39,4.06s2.39-1.25,2.77-3.28-.25-3.84-1.39-4.06S207.67,136.08,207.29,138.1Z"/><path class="cls-10" d="M203.28,155s-7.1,9.64-13.57-.06"/><path class="cls-10" d="M201.91,155.25s4.72,4.89,9.7,2.16,2-7,2-7"/><path class="cls-20" d="M180.25,131.77s1.74-6.22,10-4.72"/><path class="cls-20" d="M205.14,126.05s6.22-3.73,11.94,2.24"/><line class="cls-21" x1="175.52" y1="148.45" x2="181.5" y2="149.94"/><line class="cls-21" x1="180.75" y1="152.18" x2="175.52" y2="153.18"/><line class="cls-21" x1="181.75" y1="154.92" x2="178.01" y2="156.91"/><line class="cls-21" x1="219.57" y1="145.71" x2="224.8" y2="144.47"/><line class="cls-21" x1="220.57" y1="148.2" x2="224.05" y2="148.2"/><line class="cls-21" x1="221.31" y1="150.69" x2="226.04" y2="151.93"/></g></g></svg>