<?xml version="1.0" encoding="utf-8"?>
<!-- Generator: Adobe Illustrator 23.0.1, SVG Export Plug-In . SVG Version: 6.00 Build 0)  -->
<svg version="1.1" xmlns="http://www.w3.org/2000/svg" xmlns:xlink="http://www.w3.org/1999/xlink" x="0px" y="0px"
	 viewBox="0 0 500 500" style="enable-background:new 0 0 500 500;" xml:space="preserve">
<g id="Background_Simple">
	<g>
		<path style="fill:#CCCCCC;" d="M41.06,263.18c0,0,2.34,72.68,63.01,121.12c60.67,48.44,144.74,51.91,212.79,56.51
			c68.06,4.6,120.33-33.93,128.21-92.16c7.88-58.24-44.13-75.34-72.34-141.63c-28.22-66.29-25.71-88.09-85.41-128.86
			c-59.7-40.77-153.09-15.74-202.06,54.11C36.3,202.12,41.06,263.18,41.06,263.18z"/>
		<path style="opacity:0.7;fill:#FFFFFF;" d="M41.06,263.18c0,0,2.34,72.68,63.01,121.12c60.67,48.44,144.74,51.91,212.79,56.51
			c68.06,4.6,120.33-33.93,128.21-92.16c7.88-58.24-44.13-75.34-72.34-141.63c-28.22-66.29-25.71-88.09-85.41-128.86
			c-59.7-40.77-153.09-15.74-202.06,54.11C36.3,202.12,41.06,263.18,41.06,263.18z"/>
	</g>
</g>
<g id="Floor">
	<g>
		
			<line style="fill:none;stroke:#1A1A1A;stroke-width:1.1133;stroke-miterlimit:10;" x1="68.67" y1="380.53" x2="59.49" y2="380.53"/>
		
			<line style="fill:none;stroke:#1A1A1A;stroke-width:1.1133;stroke-miterlimit:10;" x1="440.51" y1="380.53" x2="83.19" y2="380.53"/>
	</g>
</g>
<g id="Yarn_Ball">
	<g>
		<ellipse style="fill:#1A1A1A;" cx="306.07" cy="410.55" rx="30.39" ry="8.36"/>
		<g>
			<path style="fill:#FFFFFF;stroke:#1A1A1A;stroke-width:1.1133;stroke-miterlimit:10;" d="M149.03,429.54
				c-31.62,0-36.29-4.57-36.75-8.26c-0.2-1.6,0.28-3.02,1.44-4.23c8.52-8.94,57.61-5.16,125.56,0.08
				c9.48,0.73,19.28,1.48,29.33,2.23c68.65,5.1,96.29,4.44,101.97-2.46c1.16-1.41,1.41-3.18,0.76-5.55
				c-2.72-9.96-39.07-10.03-52.85-9.23c-0.65,0.03-1.22-0.46-1.26-1.12c-0.04-0.65,0.46-1.22,1.12-1.26
				c5.27-0.31,51.57-2.63,55.28,10.97c0.86,3.14,0.46,5.65-1.22,7.69c-6.41,7.78-32.65,8.61-103.98,3.32
				c-10.05-0.75-19.86-1.5-29.34-2.23c-64.76-4.99-115.91-8.93-123.66-0.8c-0.66,0.69-0.91,1.42-0.8,2.3
				c0.29,2.35,5.95,7.63,52.01,5.79c25.73-1.03,51.58-3.83,51.84-3.86c0.65-0.07,1.24,0.4,1.31,1.05c0.07,0.65-0.4,1.24-1.05,1.31
				c-0.26,0.03-26.18,2.84-51.99,3.87C160.06,429.42,154.18,429.54,149.03,429.54z"/>
		</g>
		<g>
			<defs>
				
					<ellipse id="XMLID_6_" transform="matrix(0.9741 -0.2263 0.2263 0.9741 -78.8118 76.611)" cx="294.77" cy="382.08" rx="35.81" ry="35.81"/>
			</defs>
			<use xlink:href="#XMLID_6_"  style="overflow:visible;fill:#FFFFFF;"/>
			<clipPath id="XMLID_8_">
				<use xlink:href="#XMLID_6_"  style="overflow:visible;"/>
			</clipPath>
			<path style="clip-path:url(#XMLID_8_);fill:#CCCCCC;" d="M294.77,417.89c19.77,0,35.81-16.03,35.81-35.81
				c0-7.48-2.3-14.42-6.22-20.17c-0.4,15.59-9.02,38.62-53.79,46.55C276.94,414.31,285.44,417.89,294.77,417.89z"/>
			<path style="opacity:0.3;clip-path:url(#XMLID_8_);fill:#FFFFFF;" d="M294.77,417.89c19.77,0,35.81-16.03,35.81-35.81
				c0-7.48-2.3-14.42-6.22-20.17c-0.4,15.59-9.02,38.62-53.79,46.55C276.94,414.31,285.44,417.89,294.77,417.89z"/>
			<g style="clip-path:url(#XMLID_8_);">
				
					<path style="fill:none;stroke:#1A1A1A;stroke-width:1.1133;stroke-linecap:round;stroke-linejoin:round;stroke-miterlimit:10;" d="
					M312.39,396.12c-10.52-10.29-22.64-13.51-22.64-13.51S301.88,385.83,312.39,396.12c0.63,0.01,1.25,0.03,1.9,0.03
					c4.97-5,8.41-9.83,10.79-14.06c-16.77-17.74-33.13-15.93-33.13-15.93s16.36-1.81,33.13,15.93c0.92-1.64,1.69-3.2,2.32-4.63
					c-6.94-9.78-18.95-16.41-25.44-17.43l-1.5-0.35c-4.34-0.68-7.05-0.1-7.05-0.1s2.7-0.58,7.05,0.1l4.27-11.97
					c-1.99-0.57-4.06-0.97-6.18-1.18c-2.76,4.47-9.9,18.75-9.9,47.07c0-28.33,7.14-42.61,9.9-47.07c-1.19-0.12-2.4-0.18-3.62-0.18
					c-1.37,0-2.72,0.08-4.05,0.23c-4.22,6.38-12.29,21.46-12.83,44.08C286.46,393.63,297.66,395.91,312.39,396.12z M320.48,388.83
					c-14.27-13.9-30-14.63-30-14.63S306.22,374.93,320.48,388.83z"/>
				
					<path style="fill:none;stroke:#1A1A1A;stroke-width:1.1133;stroke-linecap:round;stroke-linejoin:round;stroke-miterlimit:10;" d="
					M278.05,390.64c0.54-22.62,8.61-37.69,12.83-44.08c-3.37,0.38-6.59,1.22-9.61,2.47c-4.57,6.65-11.76,19.86-12.35,37.6
					C271.51,388.03,274.54,389.39,278.05,390.64z"/>
				
					<path style="fill:none;stroke:#1A1A1A;stroke-width:1.1133;stroke-linecap:round;stroke-linejoin:round;stroke-miterlimit:10;" d="
					M281.27,349.03c-12.32,5.08-21.18,16.81-22.12,30.72c2.18,2.04,5.35,4.49,9.77,6.88C269.51,368.9,276.7,355.69,281.27,349.03z"
					/>
				
					<path style="fill:none;stroke:#1A1A1A;stroke-width:1.1133;stroke-linecap:round;stroke-linejoin:round;stroke-miterlimit:10;" d="
					M327.4,377.45c0.9-2.03,1.53-3.82,1.97-5.3c-1.51-5.17-4.14-9.85-7.63-13.77l-2.72,9.24l2.72-9.24
					c-2.2-2.47-4.74-4.64-7.54-6.43l-3.06,11.41l3.06-11.41c-2.9-1.85-6.08-3.29-9.46-4.25l-4.27,11.97
					C306.95,360.69,317.11,364.54,327.4,377.45z"/>
				
					<path style="fill:none;stroke:#1A1A1A;stroke-width:1.1133;stroke-linecap:round;stroke-linejoin:round;stroke-miterlimit:10;" d="
					M330.77,383.77c0.02-0.52,0.04-1.04,0.04-1.56c0-3.5-0.51-6.87-1.44-10.06c-0.44,1.48-1.07,3.27-1.97,5.3
					c0.01,0.01,0.02,0.03,0.03,0.04c-0.01-0.01-0.02-0.03-0.03-0.04c-0.63,1.43-0.6,1.41-1.52,3.06c0.05,0.06-0.86,1.51-0.8,1.57
					c-0.05-0.06-0.95,1.8-1.01,1.74c-2.38,4.23-9.55,12.33-9.44,12.33c-0.12,0-3.88,3.41-5.94,5.13c0.03,0,0.05,0,0.08-0.01
					c-0.03,0-0.05,0-0.08,0.01c-3.4,2.84-7.34,5.68-11.89,8.45c0.09-0.02,0.18-0.03,0.26-0.04c-0.08,0.02-0.18,0.03-0.26,0.04
					c-3.78,2.3-8.01,4.55-12.69,6.7c3.41,1.08,7.04,1.66,10.81,1.66c0.6,0,1.21-0.02,1.8-0.05
					C303.98,414.1,315.65,404.96,330.77,383.77z"/>
				
					<path style="fill:none;stroke:#1A1A1A;stroke-width:1.1133;stroke-linecap:round;stroke-linejoin:round;stroke-miterlimit:10;" d="
					M330.77,383.77c-15.12,21.19-26.79,30.33-34.04,34.27C315.19,417.13,329.98,402.26,330.77,383.77z"/>
				
					<path style="fill:none;stroke:#1A1A1A;stroke-width:1.1133;stroke-linecap:round;stroke-linejoin:round;stroke-miterlimit:10;" d="
					M266.89,404.57c4.39,5.5,10.36,9.68,17.23,11.85c4.68-2.15,8.91-4.39,12.69-6.7C288.27,411.31,274.91,407.39,266.89,404.57z"/>
				
					<path style="fill:none;stroke:#1A1A1A;stroke-width:1.1133;stroke-linecap:round;stroke-linejoin:round;stroke-miterlimit:10;" d="
					M296.81,409.73c4.55-2.77,8.48-5.61,11.89-8.45c-25.78,2.64-41.69-5.34-48.45-9.89c1.29,4.88,3.58,9.35,6.64,13.19
					C274.91,407.39,288.27,411.31,296.81,409.73z"/>
				
					<path style="fill:none;stroke:#1A1A1A;stroke-width:1.1133;stroke-linecap:round;stroke-linejoin:round;stroke-miterlimit:10;" d="
					M308.7,401.28c2.06-1.72,3.91-3.43,5.6-5.13c-0.64,0-1.26-0.02-1.9-0.03c0.14,0.13,0.27,0.26,0.41,0.4
					c-0.14-0.14-0.27-0.26-0.41-0.4c-14.73-0.21-25.94-2.48-34.35-5.48c0,0.01,0,0.01,0,0.02c0-0.01,0-0.01,0-0.02
					c-12.29-4.26-16.71-8.85-18.9-10.89c-0.06,0.81-0.09,1.63-0.09,2.46c0,3.17,0.42,6.25,1.19,9.18
					C267,395.93,282.91,403.92,308.7,401.28z"/>
			</g>
			
				<use xlink:href="#XMLID_6_"  style="overflow:visible;fill:none;stroke:#1A1A1A;stroke-width:1.1133;stroke-linecap:round;stroke-linejoin:round;stroke-miterlimit:10;"/>
		</g>
	</g>
</g>
<g id="Plants">
	<g style="display:none;">
		<g style="display:inline;">
			<g>
				<path style="fill:none;stroke:#263238;stroke-linecap:round;stroke-linejoin:round;stroke-miterlimit:10;" d="M100.15,342.69
					l69.02-58.21c2.56-2.16,6-2.36,8.74-0.51l86.96,58.79l43.66-29.76c2.26-1.54,5.06-1.64,7.4-0.25l50.31,29.9"/>
				<path style="fill:none;stroke:#263238;stroke-linecap:round;stroke-linejoin:round;stroke-miterlimit:10;" d="M346.22,330.65
					l16.99-6.82c1.97-0.79,4.14-0.62,6,0.47l31.49,18.53"/>
				<path style="fill:none;stroke:#263238;stroke-linecap:round;stroke-linejoin:round;stroke-miterlimit:10;" d="M132.95,314.83
					l-7.58-4.97c-2.61-1.61-5.78-1.39-8.21,0.56l-40.1,32.27"/>
			</g>
			
				<line style="fill:none;stroke:#263238;stroke-linecap:round;stroke-linejoin:round;stroke-miterlimit:10;" x1="71.07" y1="342.77" x2="416.14" y2="342.77"/>
		</g>
		<g style="display:inline;">
			
				<line style="fill:none;stroke:#263238;stroke-linecap:round;stroke-linejoin:round;stroke-miterlimit:10;" x1="291.24" y1="329.85" x2="292.73" y2="328.85"/>
			
				<line style="fill:none;stroke:#263238;stroke-linecap:round;stroke-linejoin:round;stroke-miterlimit:10;" x1="271.88" y1="342.83" x2="289.27" y2="331.17"/>
		</g>
		<g style="display:inline;">
			
				<line style="fill:none;stroke:#263238;stroke-linecap:round;stroke-linejoin:round;stroke-miterlimit:10;" x1="148.1" y1="309.49" x2="151.1" y2="306.92"/>
			
				<line style="fill:none;stroke:#263238;stroke-linecap:round;stroke-linejoin:round;stroke-miterlimit:10;" x1="109.11" y1="342.83" x2="144.13" y2="312.88"/>
		</g>
	</g>
	<g>
		<path style="fill:#CCCCCC;" d="M360.73,320.88c0,0-2.45-7.96-9.59-10.81c-4.96-1.99-10.68-1.47-15.82-0.57
			c-9.58,1.67-17.94,5.48-27.03,8.73c0,0,3.88-1.43,19.79,6.32c5.86,2.86,12.56,5.07,19.27,4.92
			C352.74,329.36,360.99,327.82,360.73,320.88z"/>
		<path style="fill:#CCCCCC;" d="M361.59,297.51c0,0-0.05-8.32-6.06-13.12c-4.18-3.33-9.8-4.49-14.98-5.12
			c-9.65-1.17-18.76,0.06-28.4,0.55c0,0,4.12-0.25,17.12,11.77c4.79,4.43,10.56,8.48,17.02,10.28
			C351.49,303.31,359.83,304.23,361.59,297.51z"/>
		<path style="fill:#CCCCCC;" d="M378.04,328.42c0,0-6.49-5.21-6.52-12.9c-0.02-5.35,2.57-10.46,5.3-14.91
			c5.08-8.29,11.71-14.66,18.08-21.9c0,0-2.76,3.08-1.42,20.73c0.49,6.5,0.08,13.55-2.53,19.72
			C388.87,324.11,384.4,331.22,378.04,328.42z"/>
		<path style="fill:#CCCCCC;" d="M401.04,341.2c0,0-0.92-8.27,4.5-13.73c3.76-3.79,9.21-5.59,14.29-6.81
			c9.45-2.28,18.64-2.11,28.27-2.73c0,0-4.12,0.23-15.64,13.67c-4.24,4.95-9.51,9.65-15.72,12.18
			C411.74,345.8,403.56,347.67,401.04,341.2z"/>
		<path style="fill:#CCCCCC;" d="M399.53,311.71c0,0-8.25-1.13-12.22-7.72c-2.76-4.58-3.17-10.3-3.11-15.52
			c0.1-9.72,2.51-18.59,4.26-28.08c0,0-0.78,4.06,9.43,18.51c3.76,5.32,7.03,11.58,7.96,18.22
			C406.61,302.46,406.42,310.85,399.53,311.71z"/>
		<path style="fill:#CCCCCC;" d="M423.27,296.9c0,0,5.93,5.84,13.57,4.96c5.31-0.61,10.09-3.78,14.19-7.01
			c7.64-6.02,13.19-13.34,19.64-20.51c0,0-2.73,3.1-20.42,3.83c-6.51,0.27-13.46,1.5-19.29,4.81
			C426.28,285.65,419.75,290.92,423.27,296.9z"/>
		<path style="fill:#CCCCCC;" d="M416.4,291.13c0,0,8.28,0.83,13.69-4.64c3.76-3.8,5.5-9.27,6.67-14.36
			c2.18-9.48,1.92-18.66,2.44-28.3c0,0-0.19,4.13-13.51,15.78c-4.91,4.29-9.55,9.61-12.01,15.84
			C411.69,280.47,409.9,288.67,416.4,291.13z"/>
		
			<polyline style="fill:none;stroke:#1A1A1A;stroke-width:1.1133;stroke-linecap:round;stroke-linejoin:round;stroke-miterlimit:10;" points="
			386.83,371.74 372.53,336.55 356.04,295.86 		"/>
		
			<polyline style="fill:none;stroke:#1A1A1A;stroke-width:1.1133;stroke-linecap:round;stroke-linejoin:round;stroke-miterlimit:10;" points="
			390.13,365.69 404.42,316.76 419.82,286.52 		"/>
		
			<line style="fill:none;stroke:#1A1A1A;stroke-width:1.1133;stroke-linecap:round;stroke-linejoin:round;stroke-miterlimit:10;" x1="395.62" y1="346.45" x2="409.92" y2="338.2"/>
		
			<line style="fill:none;stroke:#1A1A1A;stroke-width:1.1133;stroke-linecap:round;stroke-linejoin:round;stroke-miterlimit:10;" x1="404.42" y1="316.76" x2="397.27" y2="300.81"/>
		
			<line style="fill:none;stroke:#1A1A1A;stroke-width:1.1133;stroke-linecap:round;stroke-linejoin:round;stroke-miterlimit:10;" x1="413.37" y1="300.89" x2="430.81" y2="293.11"/>
		
			<line style="fill:none;stroke:#1A1A1A;stroke-width:1.1133;stroke-linecap:round;stroke-linejoin:round;stroke-miterlimit:10;" x1="375.28" y1="343.15" x2="381.33" y2="318.96"/>
		
			<line style="fill:none;stroke:#1A1A1A;stroke-width:1.1133;stroke-linecap:round;stroke-linejoin:round;stroke-miterlimit:10;" x1="367.26" y1="324.76" x2="353.29" y2="317.31"/>
		
			<path style="fill:#1A1A1A;stroke:#1A1A1A;stroke-width:1.1133;stroke-linecap:round;stroke-linejoin:round;stroke-miterlimit:10;" d="
			M394.16,389.33h-11.92c-4.02,0-7.47-2.86-8.22-6.81l-4.23-22.33h36.84l-4.23,22.33C401.64,386.47,398.18,389.33,394.16,389.33z"/>
	</g>
</g>
<g id="Text">
	<g>
		<g>
			<path style="fill:#1A1A1A;" d="M58.66,253.2c0-2.77,1.28-4.81,4.16-4.81c2.93,0,4.21,2.04,4.21,4.81v9.72
				c0,2.77-1.28,4.81-4.21,4.81c-2.88,0-4.16-2.04-4.16-4.81V253.2z M59.91,263c0,2.06,0.81,3.58,2.91,3.58
				c2.12,0,2.96-1.52,2.96-3.58v-9.89c0-2.06-0.84-3.59-2.96-3.59c-2.09,0-2.91,1.52-2.91,3.59V263z"/>
			<path style="fill:#1A1A1A;" d="M69.01,253.2c0-2.77,1.28-4.81,4.16-4.81c2.93,0,4.21,2.04,4.21,4.81v9.72
				c0,2.77-1.28,4.81-4.21,4.81c-2.88,0-4.16-2.04-4.16-4.81V253.2z M70.26,263c0,2.06,0.81,3.58,2.91,3.58
				c2.12,0,2.96-1.52,2.96-3.58v-9.89c0-2.06-0.84-3.59-2.96-3.59c-2.09,0-2.91,1.52-2.91,3.59V263z"/>
			<path style="fill:#1A1A1A;" d="M83.38,248.55c2.93,0,4.07,1.85,4.07,4.62v2.06c0,3.01-1.39,4.51-4.4,4.51h-2.36v7.82h-1.25
				v-19.01H83.38z M83.06,258.6c2.2,0,3.15-0.98,3.15-3.29v-2.23c0-2.06-0.71-3.4-2.82-3.4h-2.69v8.91H83.06z"/>
			<path style="fill:#1A1A1A;" d="M97.35,253.14v0.41h-1.2v-0.49c0-2.01-0.76-3.53-2.82-3.53s-2.82,1.49-2.82,3.5
				c0,4.62,6.87,4.7,6.87,9.94c0,2.74-1.2,4.75-4.1,4.75c-2.91,0-4.1-2.01-4.1-4.75V262h1.2v1.06c0,2.04,0.79,3.5,2.88,3.5
				c2.09,0,2.88-1.47,2.88-3.5c0-4.56-6.87-4.64-6.87-9.94c0-2.85,1.25-4.7,4.05-4.73C96.18,248.39,97.35,250.4,97.35,253.14z"/>
			<path style="fill:#1A1A1A;" d="M100.47,265.18v2.39h-1.22v-2.39H100.47z"/>
			<path style="fill:#1A1A1A;" d="M103.87,265.18v2.39h-1.22v-2.39H103.87z"/>
			<path style="fill:#1A1A1A;" d="M107.26,265.18v2.39h-1.22v-2.39H107.26z"/>
		</g>
		<g>
			<path style="fill:#1A1A1A;" d="M62.68,276.22c2.93,0,4.07,1.85,4.07,4.62v2.06c0,3.01-1.39,4.51-4.4,4.51h-2.36v7.82h-1.25
				v-19.01H62.68z M62.36,286.27c2.2,0,3.15-0.98,3.15-3.29v-2.23c0-2.06-0.71-3.4-2.82-3.4h-2.69v8.91H62.36z"/>
			<path style="fill:#1A1A1A;" d="M70.1,291.02l-0.95,4.21h-1.14l4.16-19.04h1.82l4.24,19.04h-1.25l-0.95-4.21H70.1z M70.29,289.93
				h5.54l-2.8-12.3L70.29,289.93z"/>
			<path style="fill:#1A1A1A;" d="M88.22,280.86v1.41h-1.2v-1.49c0-2.04-0.79-3.59-2.88-3.59c-2.09,0-2.88,1.55-2.88,3.59v9.89
				c0,2.04,0.79,3.56,2.88,3.56c2.09,0,2.88-1.52,2.88-3.56v-4.1H84.5v-1.14h3.72v5.16c0,2.74-1.2,4.81-4.1,4.81
				c-2.91,0-4.1-2.06-4.1-4.81v-9.72c0-2.74,1.2-4.81,4.1-4.81C87.02,276.05,88.22,278.12,88.22,280.86z"/>
			<path style="fill:#1A1A1A;" d="M96.75,285.02v1.14h-5.19v7.93h6.25v1.14h-7.5v-19.01h7.5v1.14h-6.25v7.66H96.75z"/>
			<path style="fill:#1A1A1A;" d="M105.2,295.23h-1.14v-19.01h1.63l5.7,16.05v-16.05h1.14v19.01h-1.39l-5.95-16.95V295.23z"/>
			<path style="fill:#1A1A1A;" d="M114.6,280.86c0-2.77,1.28-4.81,4.16-4.81c2.93,0,4.21,2.04,4.21,4.81v9.72
				c0,2.77-1.28,4.81-4.21,4.81c-2.88,0-4.16-2.04-4.16-4.81V280.86z M115.85,290.67c0,2.06,0.81,3.58,2.91,3.58
				c2.12,0,2.96-1.52,2.96-3.58v-9.89c0-2.06-0.84-3.59-2.96-3.59c-2.09,0-2.91,1.52-2.91,3.59V290.67z"/>
			<path style="fill:#1A1A1A;" d="M128.23,295.23v-17.87h-3.86v-1.14h8.99v1.14h-3.88v17.87H128.23z"/>
			<path style="fill:#1A1A1A;" d="M145.29,285.48v1.14h-4.92v8.61h-1.25v-19.01h7.22v1.14h-5.97v8.12H145.29z"/>
			<path style="fill:#1A1A1A;" d="M148.17,280.86c0-2.77,1.28-4.81,4.16-4.81c2.93,0,4.21,2.04,4.21,4.81v9.72
				c0,2.77-1.28,4.81-4.21,4.81c-2.88,0-4.16-2.04-4.16-4.81V280.86z M149.42,290.67c0,2.06,0.81,3.58,2.91,3.58
				c2.12,0,2.96-1.52,2.96-3.58v-9.89c0-2.06-0.84-3.59-2.96-3.59c-2.09,0-2.91,1.52-2.91,3.59V290.67z"/>
			<path style="fill:#1A1A1A;" d="M159.8,290.64c0,2.04,0.76,3.61,2.85,3.61s2.85-1.58,2.85-3.61v-14.42h1.17v14.37
				c0,2.72-1.14,4.81-4.05,4.81c-2.91,0-4.07-2.09-4.07-4.81v-14.37h1.25V290.64z"/>
			<path style="fill:#1A1A1A;" d="M169.96,295.23h-1.14v-19.01h1.63l5.7,16.05v-16.05h1.14v19.01h-1.39l-5.95-16.95V295.23z"/>
			<path style="fill:#1A1A1A;" d="M183.62,276.22c2.93,0,4.21,1.93,4.21,4.73v9.56c0,2.8-1.28,4.73-4.21,4.73h-4.18v-19.01H183.62z
				 M183.6,294.09c2.12,0,2.99-1.44,2.99-3.53v-9.67c0-2.09-0.9-3.53-2.99-3.53h-2.91v16.73H183.6z"/>
		</g>
	</g>
</g>
<g id="Character">
	<g>
		<g>
			<g>
				<g>
					<defs>
						<path id="XMLID_5_" d="M231.15,342.28c-22.27,0-35.64-19.75-40.39-37.12l-0.16-0.61c-0.91-3.49,1.19-7.06,4.68-7.97
							c3.49-0.9,7.06,1.19,7.97,4.68l0.12,0.45c3.62,13.22,13.45,28.33,29.21,27.46c6.29-0.35,11.35-2.83,15.48-7.56
							c8.65-9.91,12.52-31.49,11.66-42.37c-0.23-2.88,1.92-5.4,4.8-5.63c2.9-0.23,5.4,1.92,5.63,4.8
							c0.96,12.11-0.32,38.14-12.23,51.79c-6.47,7.41-14.75,11.46-24.59,12.01C232.59,342.26,231.86,342.28,231.15,342.28z"/>
					</defs>
					<use xlink:href="#XMLID_5_"  style="overflow:visible;fill:#FFFFFF;"/>
					<clipPath id="XMLID_9_">
						<use xlink:href="#XMLID_5_"  style="overflow:visible;"/>
					</clipPath>
					<path style="clip-path:url(#XMLID_9_);fill:#CCCCCC;" d="M264.51,273.62c-2.88,0.23-5.03,2.75-4.8,5.63
						c0.42,5.31-0.29,13.16-2.13,20.97c2.26-0.11,4.85,0.14,7.77,1.01c-0.42,5.34-2.1,13.19-7.63,20.87
						c-9.71,13.49-24.28,17.8-35.61,16.19c-5.06-0.72-10.88-3.39-15.77-6.11c6.46,6.05,14.72,10.11,24.81,10.11
						c0.71,0,1.43-0.02,2.16-0.06c9.85-0.55,18.12-4.6,24.59-12.01c11.91-13.65,13.19-39.69,12.23-51.79
						C269.91,275.54,267.41,273.39,264.51,273.62z"/>
					<path style="opacity:0.5;clip-path:url(#XMLID_9_);fill:#FFFFFF;" d="M264.51,273.62c-2.88,0.23-5.03,2.75-4.8,5.63
						c0.42,5.31-0.29,13.16-2.13,20.97c2.26-0.11,4.85,0.14,7.77,1.01c-0.42,5.34-2.1,13.19-7.63,20.87
						c-9.71,13.49-24.28,17.8-35.61,16.19c-5.06-0.72-10.88-3.39-15.77-6.11c6.46,6.05,14.72,10.11,24.81,10.11
						c0.71,0,1.43-0.02,2.16-0.06c9.85-0.55,18.12-4.6,24.59-12.01c11.91-13.65,13.19-39.69,12.23-51.79
						C269.91,275.54,267.41,273.39,264.51,273.62z"/>
					
						<use xlink:href="#XMLID_5_"  style="overflow:visible;fill:none;stroke:#1A1A1A;stroke-width:1.1133;stroke-linecap:round;stroke-linejoin:round;stroke-miterlimit:10;"/>
				</g>
				<g>
					
						<path style="fill:#CCCCCC;stroke:#1A1A1A;stroke-width:1.1133;stroke-linecap:round;stroke-linejoin:round;stroke-miterlimit:10;" d="
						M218.31,328.75c0.52-2.45-5.34,1.39-10.24,4.95c1.82,1.53,3.77,2.89,5.84,4.07C215.66,334.92,217.8,331.11,218.31,328.75z"/>
					
						<path style="fill:#CCCCCC;stroke:#1A1A1A;stroke-width:1.1133;stroke-linecap:round;stroke-linejoin:round;stroke-miterlimit:10;" d="
						M231.15,342.28c0.71,0,1.43-0.02,2.16-0.06c2.18-0.12,4.28-0.43,6.31-0.89c-2.76-3.6-6.55-8.35-7.65-8.72
						c-1.25-0.42-3.66,5.71-4.99,9.43C228.34,342.2,229.73,342.28,231.15,342.28z"/>
					
						<path style="fill:#CCCCCC;stroke:#1A1A1A;stroke-width:1.1133;stroke-linecap:round;stroke-linejoin:round;stroke-miterlimit:10;" d="
						M203.37,301.71l-0.12-0.45c-0.91-3.49-4.47-5.58-7.97-4.68c-3.49,0.91-5.59,4.48-4.68,7.97l0.16,0.61
						c1.58,5.77,4.11,11.79,7.6,17.28l11.91-5.67C207.06,312.14,204.76,306.79,203.37,301.71z"/>
					
						<path style="fill:#CCCCCC;stroke:#1A1A1A;stroke-width:1.1133;stroke-linecap:round;stroke-linejoin:round;stroke-miterlimit:10;" d="
						M257.91,330.21c0.91-1.04,1.75-2.17,2.54-3.34c-3.78-1.29-9.44-3.07-11.54-2.88c-2.49,0.23,0.89,8.23,2.64,12.01
						C253.82,334.38,255.95,332.45,257.91,330.21z"/>
					
						<path style="fill:#CCCCCC;stroke:#1A1A1A;stroke-width:1.1133;stroke-linecap:round;stroke-linejoin:round;stroke-miterlimit:10;" d="
						M258.12,308.84c-0.4,0.79,4.49,4.36,7.79,6.65c1.05-3.09,1.88-6.3,2.52-9.52C264.43,306.77,258.51,308.06,258.12,308.84z"/>
					
						<path style="fill:#CCCCCC;stroke:#1A1A1A;stroke-width:1.1133;stroke-linecap:round;stroke-linejoin:round;stroke-miterlimit:10;" d="
						M270.05,294.05c0.22-2.85,0.33-5.57,0.34-8.08c-3.44,1.9-7.52,4.51-7.52,6.23C262.87,293.87,266.69,294.14,270.05,294.05z"/>
				</g>
			</g>
			<g>
				<g>
					<defs>
						<path id="XMLID_4_" d="M216.21,216.68c0,0-9.71,28.12-4.48,50.02c5.23,21.9,24.39,29.12,24.39,29.12s-14.18,4.98-10.95,12.69
							c3.23,7.71,15.43,2.74,19.41,0.25c3.98-2.49,8.96-9.95,9.71-14.93c0.75-4.98,0.5-7.71,0.5-7.71s16.18-1.74,27.12-10.7
							c0,0,9.71,7.71,16.67,6.22c6.97-1.49,16.92-13.94,15.93-25.13c-1-11.2-7.47-11.2-11.45-9.46c-3.98,1.74-5.47,3.48-5.47,3.48
							s5.72-6.97,0-16.67c-5.72-9.71-15.93-10.45-15.93-10.45s-2.99-15.93-11.94-21.9C260.75,195.53,228.9,189.31,216.21,216.68z"/>
					</defs>
					<use xlink:href="#XMLID_4_"  style="overflow:visible;fill:#FFFFFF;"/>
					<clipPath id="XMLID_10_">
						<use xlink:href="#XMLID_4_"  style="overflow:visible;"/>
					</clipPath>
					<path style="clip-path:url(#XMLID_10_);fill:#CCCCCC;" d="M290.14,226.35c-7.05,11.74-21.35,25.25-43.86,27.22
						c-19.8,1.74-30.9-2.16-36.02-4.87c0.69-16.78,5.94-32.02,5.94-32.02c12.69-27.37,44.54-21.15,53.5-15.18
						c8.96,5.97,11.94,21.9,11.94,21.9S285.71,223.7,290.14,226.35z M303.06,247.04c-3.98,1.74-5.47,3.48-5.47,3.48
						s1.73-2.12,2.33-5.64c-13.45,6.69-12.4,21.02-14.08,21.02c-2.05,0-3.08-7.19-3.08-7.19s-2.57,10.27-17.98,17.47
						s-32.88,1.54-32.88,1.54s3.6,8.22-5.65,7.19c-3.12-0.35-5.47-1.4-7.23-2.64c7.47,9.91,17.09,13.55,17.09,13.55
						s-14.18,4.98-10.95,12.69c3.23,7.71,15.43,2.74,19.41,0.25c3.98-2.49,8.96-9.95,9.71-14.93c0.75-4.98,0.5-7.71,0.5-7.71
						s16.18-1.74,27.12-10.7c0,0,9.71,7.71,16.67,6.22c6.97-1.49,16.92-13.94,15.93-25.13C313.51,245.3,307.04,245.3,303.06,247.04z
						"/>
					<path style="opacity:0.5;clip-path:url(#XMLID_10_);fill:#FFFFFF;" d="M290.14,226.35c-7.05,11.74-21.35,25.25-43.86,27.22
						c-19.8,1.74-30.9-2.16-36.02-4.87c0.69-16.78,5.94-32.02,5.94-32.02c12.69-27.37,44.54-21.15,53.5-15.18
						c8.96,5.97,11.94,21.9,11.94,21.9S285.71,223.7,290.14,226.35z M303.06,247.04c-3.98,1.74-5.47,3.48-5.47,3.48
						s1.73-2.12,2.33-5.64c-13.45,6.69-12.4,21.02-14.08,21.02c-2.05,0-3.08-7.19-3.08-7.19s-2.57,10.27-17.98,17.47
						s-32.88,1.54-32.88,1.54s3.6,8.22-5.65,7.19c-3.12-0.35-5.47-1.4-7.23-2.64c7.47,9.91,17.09,13.55,17.09,13.55
						s-14.18,4.98-10.95,12.69c3.23,7.71,15.43,2.74,19.41,0.25c3.98-2.49,8.96-9.95,9.71-14.93c0.75-4.98,0.5-7.71,0.5-7.71
						s16.18-1.74,27.12-10.7c0,0,9.71,7.71,16.67,6.22c6.97-1.49,16.92-13.94,15.93-25.13C313.51,245.3,307.04,245.3,303.06,247.04z
						"/>
					
						<path style="clip-path:url(#XMLID_10_);fill:none;stroke:#1A1A1A;stroke-width:1.1133;stroke-linecap:round;stroke-linejoin:round;stroke-miterlimit:10;" d="
						M254.78,286.11c0,0-16.57,1.35-28.15-12.91"/>
					
						<use xlink:href="#XMLID_4_"  style="overflow:visible;fill:none;stroke:#1A1A1A;stroke-width:1.1133;stroke-linecap:round;stroke-linejoin:round;stroke-miterlimit:10;"/>
				</g>
				
					<path style="fill:none;stroke:#1A1A1A;stroke-width:1.1133;stroke-linecap:round;stroke-linejoin:round;stroke-miterlimit:10;" d="
					M297.58,250.52c0,0-5.23,3.48-7.71,14.18"/>
				<g>
					<g>
						
							<path style="fill:#FFFFFF;stroke:#1A1A1A;stroke-width:1.1133;stroke-linecap:round;stroke-linejoin:round;stroke-miterlimit:10;" d="
							M307.17,255.1c-0.61,1.82-2.28,2.91-3.72,2.42c-1.44-0.49-2.11-2.36-1.49-4.18c0.61-1.82,2.28-2.91,3.72-2.42
							C307.12,251.4,307.79,253.28,307.17,255.1z"/>
						
							<path style="fill:#FFFFFF;stroke:#1A1A1A;stroke-width:1.1133;stroke-linecap:round;stroke-linejoin:round;stroke-miterlimit:10;" d="
							M312.32,258.34c-0.61,1.82-2.28,2.91-3.72,2.42c-1.44-0.49-2.11-2.36-1.49-4.18c0.61-1.82,2.28-2.91,3.72-2.42
							S312.94,256.52,312.32,258.34z"/>
						
							<path style="fill:#FFFFFF;stroke:#1A1A1A;stroke-width:1.1133;stroke-linecap:round;stroke-linejoin:round;stroke-miterlimit:10;" d="
							M313.42,263.19c-0.45,1.32-1.66,2.11-2.7,1.76c-1.05-0.35-1.53-1.71-1.08-3.04c0.45-1.32,1.66-2.11,2.7-1.76
							C313.38,260.5,313.86,261.86,313.42,263.19z"/>
					</g>
					
						<path style="fill:#FFFFFF;stroke:#1A1A1A;stroke-width:1.1133;stroke-linecap:round;stroke-linejoin:round;stroke-miterlimit:10;" d="
						M306.85,269.85c-1.8,3.25-5.4,4.69-8.04,3.22c-2.65-1.47-3.33-5.28-1.53-8.53c1.8-3.25,5.4-4.69,8.04-3.22
						C307.96,262.78,308.65,266.6,306.85,269.85z"/>
				</g>
				<g>
					
						<path style="fill:none;stroke:#1A1A1A;stroke-width:1.1133;stroke-linecap:round;stroke-linejoin:round;stroke-miterlimit:10;" d="
						M236.12,295.81c0,0,4.48,2.49,10.7,0.75"/>
					
						<path style="fill:none;stroke:#1A1A1A;stroke-width:1.1133;stroke-linecap:round;stroke-linejoin:round;stroke-miterlimit:10;" d="
						M225.17,308.5c0,0,1-4.23,7.22-7.22"/>
					
						<path style="fill:none;stroke:#1A1A1A;stroke-width:1.1133;stroke-linecap:round;stroke-linejoin:round;stroke-miterlimit:10;" d="
						M231.39,312.24c0,0,2.49-5.97,6.72-8.71"/>
				</g>
			</g>
		</g>
		<g>
			<path style="fill:#1A1A1A;" d="M133.26,243.4c-2.15-1.72-3.22-4.08-3.22-7.08V212.6H68.88c-3.29,0-5.96-1.11-7.99-3.33
				c-2.04-2.22-3.06-4.83-3.06-7.83c0-2.36,0.68-4.58,2.04-6.65l58.58-92.06c4.36-6.8,10.19-10.19,17.49-10.19
				c4.29,0,7.87,1.25,10.73,3.76c2.86,2.5,4.29,6.22,4.29,11.16v89.48h15.56c2.5,0,4.43,0.77,5.79,2.31
				c1.36,1.54,2.04,3.38,2.04,5.53c0,2.15-0.68,3.99-2.04,5.53c-1.36,1.54-3.29,2.31-5.79,2.31h-15.66v23.71
				c0,3-1.04,5.36-3.11,7.08c-2.08,1.72-4.47,2.57-7.19,2.57C137.83,245.97,135.4,245.11,133.26,243.4z M130.04,196.94v-82.4
				l-51.29,82.4H130.04z"/>
			<path style="fill:#1A1A1A;" d="M218.13,243.88c-6.37-2.9-11.53-6.76-15.5-11.59c-3.97-4.83-7.23-10.71-9.76-17.65
				c-2.54-6.94-4.31-14.06-5.31-21.35c-1-7.3-1.5-15.27-1.5-23.93c0-52.72,17.99-79.08,53.97-79.08c35.91,0,53.86,26.36,53.86,79.08
				c0,8.58-0.48,16.52-1.45,23.82c-0.97,7.3-2.72,14.41-5.26,21.35c-2.54,6.94-5.79,12.82-9.76,17.65
				c-3.97,4.83-9.14,8.71-15.5,11.64c-6.37,2.93-13.66,4.4-21.89,4.4C231.79,248.22,224.49,246.78,218.13,243.88z M250.69,228.75
				c3.18-1.39,5.86-3.22,8.05-5.47c2.18-2.25,4.08-5.06,5.69-8.42c1.61-3.36,2.88-6.76,3.81-10.19c0.93-3.43,1.66-7.31,2.2-11.64
				c0.54-4.33,0.89-8.3,1.07-11.91c0.18-3.61,0.27-7.53,0.27-11.75c0-4.43-0.09-8.53-0.27-12.29c-0.18-3.75-0.55-7.8-1.13-12.12
				c-0.57-4.33-1.33-8.21-2.25-11.64c-0.93-3.43-2.2-6.79-3.81-10.09c-1.61-3.29-3.51-6.04-5.69-8.26
				c-2.18-2.22-4.85-3.99-7.99-5.31c-3.15-1.32-6.69-1.98-10.62-1.98c-3.93,0-7.48,0.66-10.62,1.98c-3.15,1.32-5.79,3.08-7.94,5.26
				c-2.15,2.18-4.04,4.92-5.69,8.21c-1.65,3.29-2.92,6.65-3.81,10.09c-0.89,3.43-1.63,7.33-2.2,11.7
				c-0.57,4.36-0.95,8.42-1.13,12.18c-0.18,3.76-0.27,7.85-0.27,12.29c0,4.22,0.09,8.15,0.27,11.8c0.18,3.65,0.54,7.64,1.07,11.96
				c0.54,4.33,1.27,8.21,2.2,11.64c0.93,3.43,2.2,6.83,3.81,10.19c1.61,3.36,3.49,6.15,5.63,8.37c2.15,2.22,4.81,4.02,7.99,5.42
				c3.18,1.4,6.74,2.09,10.68,2.09C243.95,230.84,247.51,230.14,250.69,228.75z"/>
			<path style="fill:#1A1A1A;" d="M386.58,243.4c-2.15-1.72-3.22-4.08-3.22-7.08V212.6H322.2c-3.29,0-5.96-1.11-7.99-3.33
				c-2.04-2.22-3.06-4.83-3.06-7.83c0-2.36,0.68-4.58,2.04-6.65l58.58-92.06c4.36-6.8,10.19-10.19,17.49-10.19
				c4.29,0,7.87,1.25,10.73,3.76c2.86,2.5,4.29,6.22,4.29,11.16v89.48h15.56c2.5,0,4.43,0.77,5.79,2.31
				c1.36,1.54,2.04,3.38,2.04,5.53c0,2.15-0.68,3.99-2.04,5.53c-1.36,1.54-3.29,2.31-5.79,2.31h-15.66v23.71
				c0,3-1.04,5.36-3.11,7.08c-2.08,1.72-4.47,2.57-7.19,2.57C391.15,245.97,388.72,245.11,386.58,243.4z M383.36,196.94v-82.4
				l-51.29,82.4H383.36z"/>
		</g>
		<g>
			<g>
				<g>
					<defs>
						<path id="XMLID_3_" d="M196.05,202.5c0,0-10.45,14.68-11.94,29.61c-1.49,14.93,0.25,24.88,4.73,28.62
							c4.48,3.73,8.96,2.24,11.45-1.24c2.49-3.48-1.49-15.68-1.49-15.68s4.23-11.7,10.7-19.91c6.47-8.21,7.71-9.46,7.71-9.46
							S206.01,201.75,196.05,202.5z"/>
					</defs>
					<use xlink:href="#XMLID_3_"  style="overflow:visible;fill:#FFFFFF;"/>
					<clipPath id="XMLID_11_">
						<use xlink:href="#XMLID_3_"  style="overflow:visible;"/>
					</clipPath>
					<path style="clip-path:url(#XMLID_11_);fill:#CCCCCC;" d="M196.05,202.5c0,0-3.05,4.29-6.09,10.58
						c4.99,2.01,12.75,6.11,17.67,13.36c0.6-0.87,1.22-1.72,1.86-2.54c6.47-8.21,7.71-9.46,7.71-9.46S206.01,201.75,196.05,202.5z"
						/>
					<path style="opacity:0.5;clip-path:url(#XMLID_11_);fill:#FFFFFF;" d="M196.05,202.5c0,0-3.05,4.29-6.09,10.58
						c4.99,2.01,12.75,6.11,17.67,13.36c0.6-0.87,1.22-1.72,1.86-2.54c6.47-8.21,7.71-9.46,7.71-9.46S206.01,201.75,196.05,202.5z"
						/>
					
						<use xlink:href="#XMLID_3_"  style="overflow:visible;fill:none;stroke:#1A1A1A;stroke-width:1.1133;stroke-linecap:round;stroke-linejoin:round;stroke-miterlimit:10;"/>
				</g>
				
					<path style="fill:none;stroke:#1A1A1A;stroke-width:1.1133;stroke-linecap:round;stroke-linejoin:round;stroke-miterlimit:10;" d="
					M188.84,260.73c0,0-1.74-3.98-1.74-10.2"/>
				
					<path style="fill:none;stroke:#1A1A1A;stroke-width:1.1133;stroke-linecap:round;stroke-linejoin:round;stroke-miterlimit:10;" d="
					M195.55,262.22c0,0-2.49-4.23-2.74-11.45"/>
				<g>
					
						<path style="fill:#CCCCCC;stroke:#1A1A1A;stroke-width:1.1133;stroke-linecap:round;stroke-linejoin:round;stroke-miterlimit:10;" d="
						M199.29,229.12c0-2.62-5-7.74-11.95-9.96c-0.9,2.37-1.7,4.89-2.3,7.46c1.88,0.36,5.24,1.14,7.78,2.5
						C196.55,231.11,199.29,232.11,199.29,229.12z"/>
					
						<path style="fill:#CCCCCC;stroke:#1A1A1A;stroke-width:1.1133;stroke-linecap:round;stroke-linejoin:round;stroke-miterlimit:10;" d="
						M195.44,203.39c-0.87,1.31-2.58,4-4.42,7.56c1.84,0.48,3.88,1.25,6.02,2.5c7.71,4.48,9.21,4.98,6.72-1.49
						C202.22,207.92,198.64,205.15,195.44,203.39z"/>
				</g>
			</g>
			<g>
				<g>
					<defs>
						<path id="XMLID_2_" d="M277.9,195.25c0,0,11.84,13.59,14.79,28.3c2.95,14.71,2.19,24.79-1.9,28.94
							c-4.09,4.15-8.7,3.11-11.51-0.12c-2.82-3.22-0.05-15.75-0.05-15.75s-5.36-11.22-12.6-18.76c-7.24-7.54-8.6-8.65-8.6-8.65
							S267.92,195.48,277.9,195.25z"/>
					</defs>
					<use xlink:href="#XMLID_2_"  style="overflow:visible;fill:#FFFFFF;"/>
					<clipPath id="XMLID_12_">
						<use xlink:href="#XMLID_2_"  style="overflow:visible;"/>
					</clipPath>
					<path style="clip-path:url(#XMLID_12_);fill:#CCCCCC;" d="M277.9,195.25c-9.98,0.23-19.88,13.96-19.88,13.96
						s1.36,1.12,8.6,8.65c1.35,1.4,2.63,2.93,3.83,4.5c2.53-4.23,7.52-10.88,15.66-15.3C282.1,200.06,277.9,195.25,277.9,195.25z"/>
					<path style="opacity:0.5;clip-path:url(#XMLID_12_);fill:#FFFFFF;" d="M277.9,195.25c-9.98,0.23-19.88,13.96-19.88,13.96
						s1.36,1.12,8.6,8.65c1.35,1.4,2.63,2.93,3.83,4.5c2.53-4.23,7.52-10.88,15.66-15.3C282.1,200.06,277.9,195.25,277.9,195.25z"/>
					
						<use xlink:href="#XMLID_2_"  style="overflow:visible;fill:none;stroke:#1A1A1A;stroke-width:1.1133;stroke-linecap:round;stroke-linejoin:round;stroke-miterlimit:10;"/>
				</g>
				
					<path style="fill:none;stroke:#1A1A1A;stroke-width:1.1133;stroke-linecap:round;stroke-linejoin:round;stroke-miterlimit:10;" d="
					M290.79,252.49c0,0,1.34-4.13,0.73-10.32"/>
				
					<path style="fill:none;stroke:#1A1A1A;stroke-width:1.1133;stroke-linecap:round;stroke-linejoin:round;stroke-miterlimit:10;" d="
					M284.25,254.63c0,0,2.06-4.45,1.6-11.66"/>
				<g>
					
						<path style="fill:#CCCCCC;stroke:#1A1A1A;stroke-width:1.1133;stroke-linecap:round;stroke-linejoin:round;stroke-miterlimit:10;" d="
						M277.29,222.06c-0.26-2.61,4.21-8.2,10.92-11.08c1.13,2.27,2.18,4.7,3.02,7.2c-1.83,0.54-5.1,1.64-7.5,3.25
						C280.21,223.78,277.59,225.04,277.29,222.06z"/>
					
						<path style="fill:#CCCCCC;stroke:#1A1A1A;stroke-width:1.1133;stroke-linecap:round;stroke-linejoin:round;stroke-miterlimit:10;" d="
						M278.59,196.08c1,1.22,2.96,3.73,5.14,7.09c-1.78,0.66-3.73,1.63-5.74,3.08c-7.24,5.21-8.67,5.86-6.83-0.83
						C272.3,201.26,275.58,198.14,278.59,196.08z"/>
				</g>
			</g>
			<g>
				<g>
					<g>
						<defs>
							<path id="XMLID_1_" d="M195.07,189.8c0,0-3.08,10.39-1.92,14.63c1.15,4.23,6.54,0.38,11.93,5
								c5.39,4.62,10.38,12.93,30.79,14.47c20.4,1.54,32.73-9.46,36.96-15.62c4.23-6.16,3.85-13.47,11.16-13.86
								c7.31-0.38,1.15-14.63-1.15-16.94c0,0,14.24-21.17,14.24-26.56c0-5.39-13.47-4.23-30.03,0.77c0,0-12.32-6.54-34.65-2.69
								c-22.33,3.85-28.87,10.39-28.87,10.39s-27.72,3.46-29.64,6.93C171.97,169.78,177.75,184.41,195.07,189.8z"/>
						</defs>
						<use xlink:href="#XMLID_1_"  style="overflow:visible;fill:#FFFFFF;"/>
						<clipPath id="XMLID_13_">
							<use xlink:href="#XMLID_1_"  style="overflow:visible;"/>
						</clipPath>
						<path style="clip-path:url(#XMLID_13_);fill:#CCCCCC;" d="M283.99,194.42c7.31-0.38,1.15-14.63-1.15-16.94
							c0,0,2.71-4.03,5.76-9.01c-8.28-4.32-16.4-6.72-18.56-4.29c-4.64,5.22-2.11,15.22,0,24.95c2.11,9.73-6.34,13.95-12.26,22.41
							c-5.92,8.46-14.38-0.85-14.38-0.85c-2.96,12.26-15.64,4.23-15.64,4.23c-9.73-2.96-26.22-12.69-22.83-19.45
							c3.38-6.77,4.23-13.11-1.69-18.6c-5.92-5.5-29.53-10.06-29.53-10.06l0,0c-1.24,4.17,4.75,17.83,21.36,23
							c0,0-3.08,10.39-1.92,14.63c1.15,4.23,6.54,0.38,11.93,5c5.39,4.62,10.38,12.93,30.79,14.47c20.4,1.54,32.73-9.46,36.96-15.62
							C277.07,202.11,276.68,194.8,283.99,194.42z"/>
						<path style="opacity:0.5;clip-path:url(#XMLID_13_);fill:#FFFFFF;" d="M283.99,194.42c7.31-0.38,1.15-14.63-1.15-16.94
							c0,0,2.71-4.03,5.76-9.01c-8.28-4.32-16.4-6.72-18.56-4.29c-4.64,5.22-2.11,15.22,0,24.95c2.11,9.73-6.34,13.95-12.26,22.41
							c-5.92,8.46-14.38-0.85-14.38-0.85c-2.96,12.26-15.64,4.23-15.64,4.23c-9.73-2.96-26.22-12.69-22.83-19.45
							c3.38-6.77,4.23-13.11-1.69-18.6c-5.92-5.5-29.53-10.06-29.53-10.06l0,0c-1.24,4.17,4.75,17.83,21.36,23
							c0,0-3.08,10.39-1.92,14.63c1.15,4.23,6.54,0.38,11.93,5c5.39,4.62,10.38,12.93,30.79,14.47c20.4,1.54,32.73-9.46,36.96-15.62
							C277.07,202.11,276.68,194.8,283.99,194.42z"/>
						<path style="clip-path:url(#XMLID_13_);fill:#CCCCCC;" d="M253.89,196.74c0.28,2.44-5.13,5.07-12.09,5.88
							c-6.96,0.81-12.83-0.51-13.11-2.94c-0.28-2.44,5.13-5.07,12.09-5.88C247.74,192.99,253.61,194.31,253.89,196.74z"/>
						<path style="opacity:0.5;clip-path:url(#XMLID_13_);fill:#FFFFFF;" d="M253.89,196.74c0.28,2.44-5.13,5.07-12.09,5.88
							c-6.96,0.81-12.83-0.51-13.11-2.94c-0.28-2.44,5.13-5.07,12.09-5.88C247.74,192.99,253.61,194.31,253.89,196.74z"/>
						<use xlink:href="#XMLID_1_"  style="overflow:visible;fill:none;stroke:#1A1A1A;stroke-width:1.1133;stroke-miterlimit:10;"/>
					</g>
					<g>
						<path style="fill:#CCCCCC;stroke:#1A1A1A;stroke-width:1.1133;stroke-miterlimit:10;" d="M274.69,158.95
							c-9.95,6.72-6.47,13.44-1.99,17.17c2.73,2.28,7.13,1.96,10.15,1.36c0,0,0,0-0.01-0.01c0,0,14.24-21.17,14.24-26.56
							C297.08,150.92,284.64,152.23,274.69,158.95z"/>
						<path style="fill:#CCCCCC;stroke:#1A1A1A;stroke-width:1.1133;stroke-miterlimit:10;" d="M173.71,166.8
							c-1.24,4.17,4.75,17.83,21.36,23c0,0,12.68-1.24,8.45-11.44C199.57,168.84,179.6,166.47,173.71,166.8z"/>
					</g>
				</g>
				<g>
					<g>
						<path style="fill:#CCCCCC;stroke:#1A1A1A;stroke-width:1.1133;stroke-miterlimit:10;" d="M232.41,148.99
							c-1.32,0.23-2.57,0.46-3.78,0.71c1.99,10.1,5.29,26.92,8.23,26.92c3.04,0,5.19-18.44,6.15-28.77
							C239.78,147.98,236.25,148.33,232.41,148.99z"/>
						<path style="fill:#CCCCCC;stroke:#1A1A1A;stroke-width:1.1133;stroke-miterlimit:10;" d="M220.94,173.63
							c3.06-1.8,2.6-15.33,2.12-22.67c-3.72,0.94-6.79,1.94-9.32,2.91C214.85,160.74,217.67,175.55,220.94,173.63z"/>
						<path style="fill:#CCCCCC;stroke:#1A1A1A;stroke-width:1.1133;stroke-miterlimit:10;" d="M250.55,167.41
							c3.14,1.1,4.89-10.15,5.88-18.81c-2.7-0.44-5.89-0.77-9.56-0.81C246.77,154.9,247.16,166.22,250.55,167.41z"/>
					</g>
					
						<path style="fill:#CCCCCC;stroke:#1A1A1A;stroke-width:1.1133;stroke-linecap:round;stroke-linejoin:round;stroke-miterlimit:10;" d="
						M246.36,206.35c-1.69-0.41-5.32-0.92-8.67,1.06c-0.5,0.29-0.58,0.98-0.16,1.38l5.32,4.98c0.43,0.4,1.12,0.26,1.36-0.27
						l2.72-5.97C247.15,207.05,246.88,206.48,246.36,206.35z"/>
					<path style="fill:#1A1A1A;" d="M233.74,198.01c0.73,1.93,0.44,3.83-0.65,4.24c-1.09,0.42-2.57-0.81-3.31-2.73
						c-0.73-1.93-0.44-3.83,0.65-4.24C231.52,194.86,233,196.08,233.74,198.01z"/>
					<path style="fill:#1A1A1A;" d="M248.22,196.63c-0.38,2.03,0.24,3.84,1.39,4.06c1.15,0.22,2.39-1.25,2.77-3.28
						c0.38-2.03-0.24-3.84-1.39-4.06C249.84,193.14,248.6,194.61,248.22,196.63z"/>
					
						<path style="fill:none;stroke:#1A1A1A;stroke-width:1.1133;stroke-linecap:round;stroke-linejoin:round;stroke-miterlimit:10;" d="
						M244.21,213.51c0,0-7.1,9.64-13.57-0.06"/>
					
						<path style="fill:none;stroke:#1A1A1A;stroke-width:1.1133;stroke-linecap:round;stroke-linejoin:round;stroke-miterlimit:10;" d="
						M242.84,213.78c0,0,4.72,4.89,9.69,2.16c4.98-2.74,1.99-6.97,1.99-6.97"/>
					
						<path style="fill:none;stroke:#1A1A1A;stroke-width:3.3399;stroke-linecap:round;stroke-linejoin:round;stroke-miterlimit:10;" d="
						M221.19,190.3c0,0,1.74-6.22,9.95-4.73"/>
					
						<path style="fill:none;stroke:#1A1A1A;stroke-width:3.3399;stroke-linecap:round;stroke-linejoin:round;stroke-miterlimit:10;" d="
						M246.07,184.58c0,0,6.22-3.73,11.94,2.24"/>
					
						<line style="fill:none;stroke:#1A1A1A;stroke-width:1.1133;stroke-linecap:round;stroke-miterlimit:10;" x1="216.46" y1="206.98" x2="222.43" y2="208.47"/>
					
						<line style="fill:none;stroke:#1A1A1A;stroke-width:1.1133;stroke-linecap:round;stroke-miterlimit:10;" x1="221.68" y1="210.71" x2="216.46" y2="211.7"/>
					
						<line style="fill:none;stroke:#1A1A1A;stroke-width:1.1133;stroke-linecap:round;stroke-miterlimit:10;" x1="222.68" y1="213.45" x2="218.95" y2="215.44"/>
					
						<line style="fill:none;stroke:#1A1A1A;stroke-width:1.1133;stroke-linecap:round;stroke-miterlimit:10;" x1="260.5" y1="204.24" x2="265.73" y2="202.99"/>
					
						<line style="fill:none;stroke:#1A1A1A;stroke-width:1.1133;stroke-linecap:round;stroke-miterlimit:10;" x1="261.5" y1="206.73" x2="264.98" y2="206.73"/>
					
						<line style="fill:none;stroke:#1A1A1A;stroke-width:1.1133;stroke-linecap:round;stroke-miterlimit:10;" x1="262.24" y1="209.22" x2="266.97" y2="210.46"/>
				</g>
			</g>
		</g>
	</g>
</g>
</svg>
