<svg xmlns="http://www.w3.org/2000/svg" xmlns:xlink="http://www.w3.org/1999/xlink" viewBox="0 0 251.79 251.63"><defs><style>.cls-1{mix-blend-mode:multiply;}.cls-2{fill:#fff;}.cls-3{mask:url(#mask);}</style><mask id="mask" x="-159.47" y="-147.28" width="568.21" height="560.05" maskUnits="userSpaceOnUse"><g class="cls-1"><rect class="cls-2" x="-86.12" y="-63.02" width="421.5" height="391.53" transform="translate(-52.85 92.05) rotate(-33.89)"/><path d="M237.43,265.1l-2.89-1.85c-.14.95-.22,1.46-.3,2a2.33,2.33,0,0,1-.88,0c-.41-.2-.73-.65-1.15-.73-2.31-.47-1.86.44-1.69,1.77a4.39,4.39,0,0,0,.51,1c-3.51,5-3.55,4.11-1.56,8-1.3,1.46-4,1.15-3.38,4.16-1-.3-.53.29-2.5-3.71l2.38,0c-.15-1.9.24-1.56-1.93-1.22l-2.24-3.79c2.22-1.23,5.31-.11,7-2.86l-1.74-1.15c2.41-5.32,2.41-5.32,4.15-6.14.31,1,.24.52.2,1.88l2.77-1.87,2.46,1.42c.49-.45,1.25-.86,1.6-1.49,1.37-2.56,1-1.81,4.34-2,.2-4.31-.27-3.46,1.83-4.11,1.79,6.32-4.11,4.48-4.37,8.19A2.71,2.71,0,0,1,237.43,265.1Z"/><path d="M131.72,320.47c2.11-3.12,3.23-5.88,6.21-5,2.76.8,3.47,2.27,2.42,5l-3.53,1.37c2.82,3.18,2.56,2.59,2.41,3.63-.43,3-.43,3,2.74,3.68.62-2.3-.58-4.4,0-4.53,5.84-1.16,5.09-.81,5.49-.39.21,1.69-3.3,2.6-.45,5-13.56,3.92-6.95,3.74-13.58-8.47C131.41,320.64,131.67,320.73,131.72,320.47Z"/><path d="M195.89,302.23l1.77,2.39c4.26-2,5.18-2.79,3.49-.24l4.48,1-.52,1.34c4.7,5,3.91,3.77,3.36,5.24.08,0,.15.11-3.1-2.74-.85.89-.12,2.56-1.68,2.42-1.28-.11-1.9-1-2.2-2.24l1.79-1.54-2.82-.62c-1.69,3-.42,5.72.28,8.85l-2.4-.62c.13-.9.23-1.6.29-2-2.58-3.91-1.88-2-3.3-7.42-1.19-.12-2,1.22-2.84-.2.25-.29.48-.8.83-.91.94-.29,1.44-.79,1.33-1.79C194.52,301.88,196.37,302.37,195.89,302.23Z"/><path d="M230.78,292.14c-1.16-2,.13-1.9-6.92-1.59,0,1.27.88,3.15-1.18,4.39l-1.2-4,2.29-2.54c-1.5-2.72-1.77-1.63,2.46-2.44-.63-.84-1.07-1.44-1.46-2,.85-1.84,5.09.28,4.92,1.33-.13.83-1.27,1.5-.37,2.51s1.83.36,2.77,0a18.57,18.57,0,0,1,2.12-.46C234.78,288.15,234.89,287,230.78,292.14Z"/><path d="M36.07,284.85c.34-.87.62-1.58,1.12-2.83-1.94.91-3.44,1.09-4.73-.74l2.06-3c1.28,1.51,1.75,2.22,2.12,2a2.92,2.92,0,0,1,2.83.09c.75.35,2.33-.66,2.81-.23,1.77,1.56,2.19,1,2.83,1.32,1.56,3.21-2.64,2.23-2.28,4.79C42.85,286.22,43.28,286.36,36.07,284.85Zm5.24-3.09c-1,.21-.77.05-.83.86C41.53,282.53,41.36,282.75,41.31,281.76Z"/><path d="M-23,223l3.54,1.49,1.82-1.78c.28,1.06.49,1.83.7,2.58l4.53,1.2c-.17,1.1-.51,2-1.89,1.8-5.67-.6-4.7-.24-8.47,1.67,0-.95-.08-1.73-.13-2.74C-26.59,228.53-26.65,229-23,223Z"/><path d="M91.54,275.35c.21-.47.55-1.26,1.1-2.5l1.19,2.37c1.14-.57,2.58-1.26,3.28.29.62,1.39-.44,2.42-1.42,3,2.26,1.06,1.75.12,2.51,3.38l-2.93,2.32c-.64-1.57-1.88-2.56-1.47-4.59C94,278.45,92.47,277,91.54,275.35Z"/><path d="M131.68,320.66c-.57.47-1,1.58-1.93.54a1.24,1.24,0,0,0-1.92-.15c-.66.56-1.12,1.25-.29,2.12.19.19.11.65.19,1.27-3.66-.51-1.89-.65-2.39,1.84a9.3,9.3,0,0,1-.83,1.81c-3-2,1-4.92.18-7.47-.13-.38.89-1.26,1.5-1.76a15.37,15.37,0,0,1,1.72-.87c2-1.24,2.19-1.18,3.13,1C131.8,320.71,131.74,320.36,131.68,320.66Z"/><path d="M52.42,277.3c-1.94,1-1.94,1-3.53-1.46l-1.14,1.46c2.3,1.46,2,1.12,1.93,1.84-5,.31-3.52.4-5.67-1,.07-1.22.13-2.21.19-3.23C48.55,273.19,48.55,273.19,52.42,277.3Z"/><path d="M52.25,286.75c.58-2.34.58-2.34,2.08-3-.06-1.12-.12-2.19-.2-3.71,2.68,2.48,2.21,5.49,2.93,8.05.42,1.47-1.27,1.86-2.5,2.46.22-1.51.4-2.79.61-4.21-2.18-.05-2.5,1.34-2.72,2.57l-3.82.63C48.42,287.43,48.42,287.43,52.25,286.75Z"/><path d="M68.32,208.57c1.69,2.53,1.37,2.33,1.54,1.44L74,211.5c-1.48,2.16,1.28.86,1.42,1.72-.85,2.13-3.2,2.42-5.11.52-2,.68-1.23.42-3.15,1C67.82,212.72,66.49,210.69,68.32,208.57Z"/><path d="M238.24,255.77c-1.25,1-2.25,2-4.22,1.49a66.14,66.14,0,0,0-8.43-1.06l2.14-2.89C231.62,253.4,234.54,256.05,238.24,255.77Z"/><path d="M56.17,300.11l1.66.46c-.95,1.78-3.44,2.65-2.17,5L53,307.19a14.32,14.32,0,0,1-2.19-1.28c.66-1.74-1.74-3.39.07-5.23L52.23,303C52.29,303,57,300.14,56.17,300.11Z"/><path d="M105.14,223c-1.88,1-1.88,1-3.06,4.58-2,0-1.67-1.78-2.39-2.94l1.77-1.8c-1.16-.45-.24-.74-3.52,1-1.12-2.56-1-2.74,1.19-2.81C100.09,221.07,102.42,219.49,105.14,223Z"/><path d="M124.61,339.69l-6.32-6.6c1.24-1.78,1.89.16,2.92.24,1.25-.21,1.79-2,3-1,.54.46.5,1.61.7,2.46.31,1.36-.4,2.78.28,4.14C125.22,339.07,124.78,339.46,124.61,339.69Z"/><path d="M146.16,309.94c-2.27-.42-2.35-1.78-2.55-3l-2.32-.78c-.34-1.46-.26-2.95-2.32-3.29-.55-.09-.85-1.73-1.53-3.24,3.47,1,4.58,3.9,6.62,5.66C151.09,304.85,143.35,305,146.16,309.94Z"/><path d="M90.63,220c2.43-4.12,2.84-4.33.33-5.38-.36-.15-.53-.73-.93-1.33,2.64,0,5.47-1.48,6.62,2.54-1.89,1.36-3.44,3.33-5.39,4.83Z"/><path d="M196,320.62a4.85,4.85,0,0,0,.45-1l.57.34,4.1-2.75a1,1,0,0,0-.42,0c-4.32,1.29-9,2.16-7.52,4.89A3,3,0,0,0,194,322Z"/><path d="M-29.06,270.75c7.5-.24-1.14-1.05.34-3.31.9-1.38,3.52-.76,4.29-.68-1.06,1.5-1.1,1.41.45,3.52,1.2,1.63-.1,3.77-2.88,2.68C-27.54,272.69-28,271.86-29.06,270.75Z"/><path d="M169,238.29c2-1,2.37,1.87,4.28,1.7-.83,1.8-1.73,3.6.39,5.22-1.85,1-1.31.93-5.39-2.58A13.73,13.73,0,0,0,169,238.29Z"/><path d="M217.15,248.13c-1.31,1.18.52,1.12-7.33.31.05-1.32.1-2.7.14-3.74l-3.35-1.58c1.66-1.33,1.66-1.33,5.11.46a6.12,6.12,0,0,0-.58,2c.53,2,2.2-.4,3.05,1.1C214.6,247.44,216,247.61,217.15,248.13Z"/><path d="M102.05,245.48l3.09.75c-.11-1.07-.21-2-.3-2.84,1.19-.12.63-.63,3.06,3.43-2.25.38-1.12,3.76-4,3.41C102.52,249.21,102.06,247.63,102.05,245.48Z"/><path d="M54.06,299.92c-.18-.6-.42-1.41-.82-2.8.37-1.33,2.61-3,.76-5.43,1.61-.62,2.23.46,2.87,1a18,18,0,0,1,0,2.53,19.51,19.51,0,0,0-.59,2.52c0,.8,1,1.62-.13,2.37C56.24,300.1,56.68,300.15,54.06,299.92Z"/><path d="M186.36,237.21l1.87-.9c1.72,1.67-.35,2.67-.28,4.08l-5-.86c1-3.73.09-2.82,4.05-4.35C188,236.36,186.58,236.56,186.36,237.21Z"/><path d="M158.37,281.19a24.24,24.24,0,0,1-3.49.5c0-1,0-2.2,0-3.55,2.18.23,4,.65,5.47-.95C159.87,277.1,163.76,279.54,158.37,281.19Z"/><path d="M65.28,193.56c1.39,1.43.91,3.59,3.69,3.08-.85.92-1.09,1.43-1.46,1.53a36.12,36.12,0,0,1-5.8,1.19,6.57,6.57,0,0,0,2.09-3.58A8.62,8.62,0,0,1,65.28,193.56Z"/><path d="M153.71,192.11c-1.17,2.41-1.57,2.45-3.41.38-1-1.14-3.2-2.23-2.27-3.48a1.56,1.56,0,0,1,1.42-.45C150.88,189.59,153.13,189.55,153.71,192.11Z"/><path d="M212.66,287.79c2.54-2.24,4.56-.69,6.82.47l-1.95,1,2.42,2.61C218.1,292.43,218.86,292.36,212.66,287.79Z"/><path d="M153.28,275.13c.27,2.64.42,1.66-1.47,3.74l-1.51-7.55c1.5.52,3.2.07,3.74,1.87C155.35,273.42,155.45,273,153.28,275.13Z"/><path d="M132.13,177.7l3.73-1.73c.14,2.11.27,4,.4,6.08l-2.7.93C133.67,178.32,134.05,179.45,132.13,177.7Z"/><path d="M74,399.22c-.72-5-1-2.91,2-4.5a17.81,17.81,0,0,0,2.14-1.61c.22,2.52.64,3.86-1.27,4.23C76,397.53,75.19,398.43,74,399.22Z"/><path d="M71.84,326.4l-2-2.37c-.1-4.2,5.39-2.71,4.18-.57A30,30,0,0,1,71.84,326.4Z"/><path d="M80.17,214.53l-1.89-1.86L80,211.39c.29,1.2,0,2.5,1.86,2.16a12.77,12.77,0,0,1,3.54.31c-.94,1.4-2.08,2.67-4.31,2-.56-.18-1.32.28-2,.45C78.8,215.56,78.6,216,80.17,214.53Z"/><path d="M-57.23,229.8c-.34,4.07-1.5.73-3.62,4.77l.11.17c1.82.43.29,1.36,7.62-5Z"/><path d="M74.66,300c-2.8-1.74-3.66-3.83-3-6.84.49.18,1.45.49,1.44.52-.68,2.3,1.28,2.94,2.76,4.11Z"/><path d="M-56.67,206.47c4.29,3.27,2.61,2.91,7.49,2l.35.67c-1.61,1.56-.15,1-5.09,2.34C-53.92,209.59-56.34,209-56.67,206.47Z"/><path d="M-22.91,255.11c-.14,1.8-.25,3.27-.36,4.75-1.18-2.62-4-1.89-5.89-2.74C-28.79,256.44-29.61,256.8-22.91,255.11Z"/><path d="M133.22,295.37c0,1.43-.8,1.74-1.91,2-1.44.35-1.77,1.17-.84,2.39.71,1,.7,1.34-.47,1.87-.75-1.11-.29.1-1.73-4.4C129.79,296.21,131.18,295.06,133.22,295.37Z"/><path d="M219.36,207.73c.08-.57.14-1,.22-1.56-.37,0-.82.18-1,0-1.57-1.26-.24-2.11-.06-2.11,1.7,0,3.39.24,5.65.43Z"/><path d="M143.13,315.73c-1.25-2.45,1.77-2.71,1.93-4.33l3.51,1.62a9.69,9.69,0,0,1-.3,1c-1.84-.39-3,1-4.36,1.71A2.85,2.85,0,0,1,143.13,315.73Z"/><path d="M157.32,334.66c1.2-2.2,1.2-2.2-.78-3.85l2.65-.39c1.44,1.95,1.59,3,.7,4.2C159.4,335.28,159.25,335.28,157.32,334.66Z"/><path d="M98.08,260.82l2.91-4.61c.91,1.18,2,2,1.3,3.46S100.72,261.29,98.08,260.82Z"/><path d="M89.38,330.8l-4.09-3.46c0-.69.29-1.55,1.71-1.27C89.14,326.49,89.68,327.38,89.38,330.8Z"/><path d="M257.47,275.4c.13.75.24,1.34.35,2-2.32,1.37-4.08-.7-6.73-.56C253.43,275.17,255.46,275.7,257.47,275.4Z"/><path d="M151.63,270l-3-1.56,1.45-4c1.92,1.1,1.92,1.1.77,3.17C151.32,268.26,152.87,268.54,151.63,270Z"/><path d="M70.66,289.48c.15-1.3.28-2.46.47-4.1a32.93,32.93,0,0,1,3.13,2.48c.51.53-.29,1.69-1.15,1.73S71.65,289.53,70.66,289.48Z"/><path d="M76.65,268.38c1.81-2.89,4.19-2.26,4.75-.57.13.39-.12,1.25-.42,1.37C80.33,269.45,78.8,268.94,76.65,268.38Z"/><path d="M120.54,233.32l3-6c.49.72,1.16,1.31,1.26,2C125.23,231.81,123.36,232,120.54,233.32Z"/><path d="M82.78,207.72c2.31-1,2.31-1,4.47,1.53L83.55,211C83.26,209.73,83,208.7,82.78,207.72Z"/><path d="M160.31,277.19c.17-2.51-2-2.71-4-3.38,2.06-1.09,3.66-1.89,5.82-.5C160,277.61,160.22,277.17,160.31,277.19Z"/><path d="M138.63,309.06l-1.28-3.3c2.5-.79,3.19,1.67,5,2.15C141.23,309.54,139.83,308.62,138.63,309.06Z"/><path d="M213.1,280a3.74,3.74,0,0,1-.55,1.4c-.62.66-2.84.58-3.33-.07C207.87,279.58,211.46,277.92,213.1,280Z"/><path d="M86,353l-.35,2-5.36,1.67C79.63,354.38,84.68,353.4,86,353Z"/><path d="M140.09,273c-.09.93-.18,1.8-.31,3-2.24-1.4-1.38-1.41-3.81.38-.1-.95-.4-1.65-.17-2C136.78,273,138.22,272.65,140.09,273Z"/><path d="M135.34,300c-.57-1.61-.92-2.61-1.38-3.94l4.87.32Z"/><path d="M233.33,269.52c.4,2.06.7,3.61,1,5.27C231.43,277,230.56,272.5,233.33,269.52Z"/><path d="M16.49,180.69c.73-.6-.71-2.85,1.78-2.46.27,1.76.2,3.24-1.6,4.22-1,.56-1.89,1.14-2.83,0C14.11,180.89,15.71,181.53,16.49,180.69Z"/><path d="M-46.75,234.81c2.18-4.32,2.18-5.22,4.2-4.44C-43.82,232.54-45.93,237.14-46.75,234.81Z"/><path d="M82.91,189.67a12.22,12.22,0,0,1-1.8.85c-.23.08-.85-.26-.87-.47-.63-4.52-.15-3.74.76-4.74Z"/><path d="M162.28,265.65c1.07-.88,2.13-1.63,2.25-3.22.08-1.16.82-1.31,2.43-1.05C164.73,266.16,164.26,266.62,162.28,265.65Z"/><path d="M177.21,253.46c-3.68,3.12-6.47,1.52-6.41.34S171.52,253,177.21,253.46Z"/><path d="M27.46,290.25c2.57-1.28,2.91-1,3.33,2.93C28.6,293.33,28.29,291.53,27.46,290.25Z"/><path d="M44.93,294.5c-.6-2.54-.06-2.91,4-2.67C49.81,293.48,49,293.35,44.93,294.5Z"/><path d="M339.83,213.3c-1.94,1.55-3.28,1-4.81-.56C337.06,210.32,336,210.4,339.83,213.3Z"/><path d="M92.23,292.61l-3.85,3.77c-.26-.08-.53-.09-.57-.2-.82-1.93,1.51-2.44,1.84-3.93C89.8,291.58,90.33,291.68,92.23,292.61Z"/><path d="M106.53,256.3c-2.62-3.91-2.45-2.69-1.15-5.49,1.61.25.22,2.06,1.66,2.56C107.64,253.57,107.85,255.3,106.53,256.3Z"/><path d="M174,273.42l4.86-2.5a1.54,1.54,0,0,1-.71,2.47C176.89,273.62,175.48,274.64,174,273.42Z"/><path d="M2.3,42.52c.27,2.37-.27,3.14-2.76,3.94C-.81,44.36-.23,43.53,2.3,42.52Z"/><path d="M-32.52,229.56l2,3C-31.94,236.41-34.6,230.85-32.52,229.56Z"/><path d="M43.52,382.28c-1.36-1.49-1.5-2.57,0-3.6l3.41,2C46.24,382.68,44,379.93,43.52,382.28Z"/><path d="M-5.17,167c3.21-1.17,3.38-1.19,6.25-.58.15.63.33.11-.58,1.91l-2.2-1.46C-3.95,168.06-3.08,167.86-5.17,167Z"/><path d="M-27.85,220.76c-1.28.64-2.4,1.21-3.29-.17-.54-.83.09-1.71,1.84-2.62C-28.83,218.88-28.36,219.79-27.85,220.76Z"/><path d="M136.87,256.44l-3,2.45c-.46-.92-.87-1.72-1.28-2.53C135.51,255.2,135.51,255.2,136.87,256.44Z"/><path d="M130.41,176.68c.11-3.13.55-2.13-2.2-4.48,2.71-1.87,4,2.19,2.87,4.55Z"/><path d="M70.41,191.56a2.8,2.8,0,0,1-3.55-1.84c-.26-.83-.26-.83,1.29-1.53Z"/><path d="M81.29,391.54l2.15,1.15-1.67,2.78C80,393.93,80,393.93,81.29,391.54Z"/><path d="M224.42,215.05c.52-1.53.52-1.53,2.33-2.48.26,1.61.26,1.61,1.87,2.45C227.14,216.91,225.85,215,224.42,215.05Z"/><path d="M-25.25,221.9c1.17-2.31,1.74-4.37,3.81-2.67C-23.45,223.31-25.2,221.33-25.25,221.9Z"/><path d="M88.23,220.73l-2.58-3.39c1.8-2.15,2.38,1,4.09.71Z"/><path d="M325.76,217.4c.95-.15,1.64-1.6,2.81-.56s-.8,1.77-.64,3C325.21,217.74,325.51,218.19,325.76,217.4Z"/><path d="M-51.13,219.55l2.63-.16c.22,2.24.22,2.24-2.06,3C-50.72,221.58-50.88,220.82-51.13,219.55Z"/><path d="M361.68,141c-.23,1.65,2.19,2.53.73,4.18-.89-.46-2.5-.47-2-3.25C360.43,141.54,361.22,141.29,361.68,141Z"/><path d="M-31.67,248.67c2,.5,3,1,3.43,2.73l-2.5,1Z"/><path d="M39.48,292.86c.88-1.31,1.31-2.68,3.08-2.44C42.3,293.09,42,293.37,39.48,292.86Z"/><path d="M179.76,313.38c-2.31,1.32-2.12-.07-3.18-4.22C178.89,309.74,178.8,311.8,179.76,313.38Z"/><path d="M47.22,287a11.18,11.18,0,0,1-1,1.11c-.78-.29.13-2.26-3.39-1.85,0,.09-.27.23,4.05-2.86C48,283.75,46,285.61,47.22,287Z"/><path d="M218.77,302.31c-.56,2-.33,3.18-2.62,3.18-.21,0-1.9-1.07.39-2.29C217.53,302.67,219,302.37,218.77,302.31Z"/><path d="M121.84,174.47c1.08-2.79.65-2.2,2.06-2.53a15.79,15.79,0,0,1,.46,3.08C122.57,175.42,122.86,175.18,121.84,174.47Z"/><path d="M187.94,120.4c.75-1.85-.36-1.24,3.72-2.61,0,.28.23.83.06,1C190.79,119.73,189.88,120.82,187.94,120.4Z"/><path d="M245,271.62l-1.21-3.07C249,266.7,248.5,266.58,245,271.62Z"/><path d="M322.58,138.75l-2.64-2.35a2.26,2.26,0,0,1,2.78-1.18C322.68,136.29,322.64,137.24,322.58,138.75Z"/><path d="M45.19,296.69c.49-.62,1-1.23,1.61-2l2.47,2.09C44.54,298,45.34,298.08,45.19,296.69Z"/><path d="M180.64,240.2l-3.08-1.34,2.45-2.32C181.27,240.06,181.23,239.44,180.64,240.2Z"/><path d="M326.72,152.94c.9-1.65,1.81-3.29,2.67-4.86C330.79,149.92,330.05,151.39,326.72,152.94Z"/><path d="M193.45,313.84c1.71-.68,2.05.49,2.74,1-.29,1.62-.94,2.62-3,2.54C194.8,315.06,194.81,315.87,193.45,313.84Z"/><path d="M172.51,172.75c.68-2.28.4-4,3.85-1.81Z"/><path d="M-102.68,111.15c-1.12-.53-2-.66-2.25-1.13-.84-1.54.84-3.44,2.08-1.09A7.43,7.43,0,0,1-102.68,111.15Z"/><path d="M329.11,222.88c.09.5.37,1.06.23,1.5-.48,1.56-1.17,2.35-2.33,2.52C328.24,222.24,327.81,222.85,329.11,222.88Z"/><path d="M152.76,267.58a7.32,7.32,0,0,0,2.34.58c.06.92.12,1.76.19,2.74C152.91,271,153.79,269,152.76,267.58Z"/><path d="M49.28,308c-2.94-2.05-2.57-1.27-2-3.39C49.27,304.89,49.92,305.88,49.28,308Z"/><path d="M-118,66.36c-.09,1-.18,2-.28,3.18-1-.2-1.9-.25-1.73-1.4C-119.85,67.22-119.73,66-118,66.36Z"/><path d="M327.6,207.42c-.53.86-.86,1.89-1.21,1.89-1.5,0-1.53-1.2-1.62-2.57Z"/><path d="M-120.61,75.34l3.52-1.68C-115,75.18-118.67,77.16-120.61,75.34Z"/><path d="M50.33,172.31c-2.14,1.8-2.14,1.8-3.5-.56C48.32,170.1,48.76,172.45,50.33,172.31Z"/><path d="M111.33,322.52l4.08-.86c-.08.83-.15,1.62-.26,2.85Z"/><path d="M137.89-94.57l2.78,1.16L138.16-91C138.07-92.23,138-93,137.89-94.57Z"/><path d="M-5.25,155.28c1,2.17,1,2.17-.54,3.61C-6.7,157.62-6.35,156.57-5.25,155.28Z"/><path d="M-12.21,206.43c-.73,1.75,1.32,3-.46,4.3C-14.17,208.76-14.17,208.63-12.21,206.43Z"/><path d="M45.27,304.69l-2.77.55c-.29-1.66-.6-1.05.75-2.54Z"/><path d="M72.83,383.35l-1.7-2.53a1.76,1.76,0,0,1,2.63.47C74.16,381.8,74.1,381.9,72.83,383.35Z"/><path d="M38.46,276.56l-2.33-2.32c2.12-.35,1.24-.51,3.49.3Z"/><path d="M-36.88,211.56c0,1.92,0,1.92-2.54,2.63-.6-2.37,1.63-1.89,2.6-2.63Z"/><path d="M-10.34,308.1l.86-2.81L-6.92,308Z"/><path d="M172.23,295.64c.76-1.05,1.05-1.73,1.57-2.08,1.29-.86,2.64.82.8,1.9C174.19,295.7,173.56,295.56,172.23,295.64Z"/><path d="M358.57,135.89l-1.22,1.25c-1.6-.27-1.79-1.55-2.44-3.14Z"/><path d="M-26,224.54a5,5,0,0,1-.39-4.68C-25,222.41-25.07,221.21-26,224.54Z"/><path d="M46.22,288.12c.37.92.84,1.84-.54,2.92l-1.43-3.12C46.27,288,45.78,288,46.22,288.12Z"/><path d="M117.52,292.37c-2.53,1.26-2.53,1.26-3.57-.76C115.29,290.71,116.27,291.43,117.52,292.37Z"/><path d="M190.27,236.38c1.12-1.8,1.49-1.72,3.35.42C192.35,238.26,191.49,236.61,190.27,236.38Z"/><path d="M-42.73,209.56l-.22,2.66C-45,211.29-45,211.29-42.73,209.56Z"/><path d="M284.54,221.23c-.27,2.38.34,1.79-3,2.6-.23-.44-.56,0,2.5-2.84Z"/><path d="M326.44,158.51c1.16-3.35.66-2.49,2-3.07C329.07,157.14,329.64,156.36,326.44,158.51Z"/><path d="M341.2,157c1,1.39,1,1.39.75,4C340.59,159.92,340.73,158.7,341.2,157Z"/><path d="M12.22,278c-.75-3.54-1-3.53,2.27-.78Z"/><path d="M302.39,197.21c.47,1.29.71,2.23-.65,2.5-.37.07-1.1-.14-1.17-.36C300.17,197.93,301.38,197.8,302.39,197.21Z"/><path d="M42,354.83c-1.8.63-2.56.09-2.94-1.47C40.45,353,41.38,353.21,42,354.83Z"/><path d="M-31.54,266c.24,1.87,0,2.78-1.34,3.32C-34.09,267.73-32.84,267.17-31.54,266Z"/><path d="M-125.15,69c-.32.87-.38,1.56-.66,1.66a2,2,0,0,1-1.6-.13c-.22-.14-.16-1.31,0-1.36A8.67,8.67,0,0,1-125.15,69Z"/><path d="M5.61,169.81c.22.77.35,1.25.53,1.87C1.8,172,2.34,172,5.61,169.81Z"/><path d="M-10.35,216.94c-1-1.19-1.35-.21-2.13.89-.25-4.18-.39-3.8,2.54-1.48C-10.08,216.54-10.21,216.74-10.35,216.94Z"/><path d="M31.47,296.6c.64.16.18-.24,1.73,1.37-.28.36-.5.93-.81,1C30.78,299.25,29.91,297.25,31.47,296.6Z"/><path d="M229.27,212.64c.31-1,.6-2,.91-3C232.74,210.72,231.21,213.22,229.27,212.64Z"/><path d="M286.23,223.22c.28-1.94.28-1.94,2.08-2C287.8,223.34,287.8,223.34,286.23,223.22Z"/><path d="M106.59,232.07l3.08-1.27C109.16,233.33,108.85,233.49,106.59,232.07Z"/><path d="M63.57,232.9l-1.82,1.7c-.28-.67-.72-1.22-.6-1.56C61.56,231.87,62.37,232,63.57,232.9Z"/><path d="M332.26,211.22c.46-1.6-.17-1.46,2.08-1.18C334.11,211.87,334.54,211.55,332.26,211.22Z"/><path d="M363.45,183.27c.25-.31.3-.42.37-.45,2.12-.83,2.64.93,1.92,1.38C364.67,184.86,364.09,184.14,363.45,183.27Z"/><path d="M12.08,273.29c-1.56-.57-2.33-1-1.9-2.48C11.47,271,11.58,271.9,12.08,273.29Z"/><path d="M106,227.42c.64,1,1.17,1.08.6,2.72,0,.09-.86.11-1,0C104.9,228.76,105.66,228.06,106,227.42Z"/><path d="M11.92,161.43l-3.11.93C9.6,160.17,9.6,160.17,11.92,161.43Z"/><path d="M-65.33,215.47c0-.93.07-1.54.12-2.57l2.28,1.34C-63,215-62.67,214.76-65.33,215.47Z"/><path d="M-57,222.27l1.38-2.19,1.12,1.11C-55.55,222.29-57.55,224.84-57,222.27Z"/><path d="M239.32,272.87c-1.49,1.63-1.49,1.63-2.78.12C237.34,272.14,238.17,272.05,239.32,272.87Z"/><path d="M203.4,283.31c.92-1.35.92-1.35,2.72.27C205.93,284.55,206.48,284.56,203.4,283.31Z"/><path d="M379,168.84c.1,2.19-2.22,1.12-2.88,2.27C377.48,168.79,377.56,168.73,379,168.84Z"/><path d="M-36.94,244.77c.4-1.23.68-2.62,2.57-2.66C-34.92,243.59-34.92,243.59-36.94,244.77Z"/><path d="M-33.5,8.63a2.62,2.62,0,0,1,3.14-1.34C-30.19,8.35-29.64,8-33.5,8.63Z"/><path d="M219.34,251.46c.41-2.69.41-2.69,2.71-1.82Z"/><path d="M196,302.25c-1.14-1.13-.1-2.37,2.82-1.17C197.59,302.53,195.46,302.11,196,302.25Z"/><path d="M179.54,293.46a8,8,0,0,1-.95,1.75,1.33,1.33,0,0,1-1.05-.25C177.25,292.74,178,293.37,179.54,293.46Z"/><path d="M179.89,226.09l2.85-.24C181.44,227.83,181.44,227.83,179.89,226.09Z"/><path d="M224.76,211.55c-2,1.16-2.08,1.11-2.31-1.42Z"/><path d="M218.83,302.33c-1.35-1.42.77-2.52,2.57-2.42C218.48,302.58,218.74,302.31,218.83,302.33Z"/><path d="M141.46,267.71c-2.06.91-2.7.15-3-1.11C139.09,265.69,138.46,265.56,141.46,267.71Z"/><path d="M1,176c-1.31,3.8-.94,3.3-1.71,3.28C-.66,177-1,175.67,1,176Z"/><path d="M148.38,322.81c-1.42-1.65-1.42-1.65,0-3.3C148.37,320.79,148.38,321.8,148.38,322.81Z"/><path d="M-17.91,222c-1.72-.27-1.65-1.4-1.68-2.81C-18,220.15-18,220.15-17.91,222Z"/><path d="M344,123.68c2.5-1.33,2.09-1.24,2.5-.82C344.57,125.86,344.4,126.86,344,123.68Z"/><path d="M152,198.54c-2.55,3-2,2.78-2.74,2.19.15-1.36,1.62-1.63,2.3-2.56Z"/><path d="M203.87,240.23c1-2.41,2.69-.65,2,.2S204.49,241,203.87,240.23Z"/><path d="M197.21,180.07c.54-.95,1.09-1.87,2.52-.7C197.14,180.79,197.64,180.74,197.21,180.07Z"/><path d="M341.14,216.86c.66,1.7-.41,2.2-1.43,3.24C339.6,218.57,339.82,217.68,341.14,216.86Z"/><path d="M129.08,304.18c-1.29-.55-1.29-.55-1.68-2.39C128.9,302.64,128.9,302.64,129.08,304.18Z"/><path d="M184.32,310.7c-1.22,1.58-1.22,1.58-3,.91C181.38,310.85,180.91,311.09,184.32,310.7Z"/><path d="M154,273.19c1.68-2.08,1.76-2.12,3.59-1.53C154.57,273.71,155.35,273.42,154,273.19Z"/><path d="M366.92,162c1.37-.53.84-.44,1.91-.28-.53,2.73-.29,2.35-1,2.38C367.57,163.43,367.29,162.8,366.92,162Z"/><path d="M345,199.72l1.63-2.28C347.26,199,347.26,199,345,199.72Z"/><path d="M89.83,352.6c-1.81-.07-1.46-1.33-2.06-2.36C89.6,350.27,89.85,351.17,89.83,352.6Z"/><path d="M-58.3,178.54l1.81-1.79C-56.2,179.13-56.29,179.22-58.3,178.54Z"/><path d="M210.65,277.08l-3,.21c0-.43-.12-.87,0-1.07C208.77,274.94,209.37,276,210.65,277.08Z"/><path d="M-116.87,69.58c2.65-2,2.65-2,3.25.15Z"/><path d="M-5.39,162.08c-1.23-.24-1.08.28-.85-2.08C-4.93,160.07-5.16,159.65-5.39,162.08Z"/><path d="M159.81,217.77c2.34,1.08,2.23.3,1.31,2.7C160.31,220.37,160.59,220.8,159.81,217.77Z"/><path d="M361.08,161.09l2.27,1C362,163.52,362,163.52,361.08,161.09Z"/><path d="M275.53,243.21c-1.61-.82-1.61-.82.12-2.76C275.61,241.39,275.58,242.16,275.53,243.21Z"/><path d="M342.56,129.18,339.81,131C340.13,129.61,340.13,129.61,342.56,129.18Z"/><path d="M148,197.32c.46-.1.57-.15.61-.12.62.49,1.36,1,.77,1.9-.12.19-.89.23-.9.2C148.31,198.65,148.18,198,148,197.32Z"/><path d="M181.83,245.64c-1.27-1.55-.76-2.43-.11-3.29C182.87,242.57,182.73,241.94,181.83,245.64Z"/><path d="M4.92,152.07c-.39.85-.79,1.7-1.23,2.62C3,153.32,3,153.32,4.92,152.07Z"/><path d="M203.18,229.28c1.26,1.44,1.26,1.44-.08,2.51C203.13,230.89,203.15,230.24,203.18,229.28Z"/><path d="M-24.9,202.5c.3,1.77-.27,2.21-1.23,2.17-.18,0-.55-.74-.49-.8A18.32,18.32,0,0,1-24.9,202.5Z"/><path d="M41.42,305.25c-1.39-.2-2.18-.61-2.27-2.1C40.64,303.09,41.11,303.84,41.42,305.25Z"/><path d="M359.34,150.52c.12.77.25,1.54.38,2.36C358.28,152.68,358.28,152.68,359.34,150.52Z"/><path d="M211.16,236.2a9.12,9.12,0,0,1-.82,1.73,1.74,1.74,0,0,1-1.06-.38,3.3,3.3,0,0,1,.41-1.59C209.75,235.85,210.43,236.07,211.16,236.2Z"/><path d="M360.7,174.08c-1.74-.26-1.63-1.23-1.41-2.61C360.7,172.06,361.16,172.75,360.7,174.08Z"/><path d="M247.34,283.6c-1.56,1.26-1.56,1.26-2.41-1.49Z"/><path d="M32.92,287.83c.29-.88.5-1.52.8-2.45l1.57,2.34Z"/><path d="M171.37,272.49l1.51-2.07C173.63,272.5,173.63,272.5,171.37,272.49Z"/><path d="M56.65,211.16c1.7,0,1.5,1.3,2.29,2.05C57.16,213.26,57.16,213.26,56.65,211.16Z"/><path d="M47.55,223.78c-.43.68-.66,2-2.16.83-.12-.1.06-.89.31-1.07S46.44,223.61,47.55,223.78Z"/><path d="M351.23,156.76c.84-1.19,1.32-2,2.72-1.42C353.51,156.53,353,157.23,351.23,156.76Z"/><path d="M41.38,259.8c-.55,1.46,0,1.25-1.92,1.09C39.7,259.71,39.14,259.94,41.38,259.8Z"/><path d="M222.49,246.51c2,.74,1.9.1,1.18,2.2C222.71,248.52,223,249,222.49,246.51Z"/><path d="M32.14,285.35c0,1.52-.82,2.31-2.5,2.91C30.09,285.74,33,285.53,32.14,285.35Z"/><path d="M108,192.58l-1.27-1.89c.63,0,1.23-.12,1.45.11C108.71,191.34,109,192.05,108,192.58Z"/><path d="M231.86,274.92c-.19.59.11.21-1,1.39-.22-.22-.64-.45-.64-.68,0-1.64,1.12-1,1.62-1Z"/><path d="M225.31,297.14c.31,1.7-.6,2.2-1.25,2.87C223.3,299.5,223.16,300.08,225.31,297.14Z"/><path d="M62.73,395.24c-.43,1.3-.67,2-1.07,3.18C60.89,396.91,60.75,396.08,62.73,395.24Z"/><path d="M100.66,200.38c-1.56,1-1.56,1-3,.18C99.15,199.2,100.59,200.65,100.66,200.38Z"/><path d="M-26.64,201.7c-.34,1.59-1.23,1.63-2.4.9Z"/><path d="M100.65,200.43l2.51-1.07c-.67,2.18-.77,2.21-2.5,1Z"/><path d="M-44.73,216.32c-.77.76-1.19,2.41-3.3,1Z"/><path d="M190.26,317c-.37,2.64,0,2.28-1.09,2.1-.64-.84-1.08-1.66.11-2.32Z"/><path d="M-83.29,198.87c.09-1.75.9-1.84,1.84-1.75C-81,197.88-80.69,197.47-83.29,198.87Z"/><path d="M365.5,143a2.06,2.06,0,0,1,.61,2.83C365.32,145.81,365.51,146.34,365.5,143Z"/><path d="M378.49,137.54l-2.29,1.24c.15-1,.24-1.63.38-2.53Z"/><path d="M-119.46,71.66l2.71-.67C-117.44,72.64-118.2,72.44-119.46,71.66Z"/><path d="M151.56,143.13c-1.51-.37-1.12-.12-1.18-1.3C152.12,142.07,151.9,141.74,151.56,143.13Z"/><path d="M139.33,271.54l2.11-2C141.71,271.3,141.33,271.94,139.33,271.54Z"/><path d="M132.58,232.68c-.05-3.36-.34-2.91.86-1.54C134.17,232,133.79,232.34,132.58,232.68Z"/><path d="M87.46,183.6c1.21-1.12,1.21-1.12,2.15.41Z"/><path d="M101.34,272.12l.37-2.14c.49.38.89.53,1,.78C103,271.61,103.06,272.45,101.34,272.12Z"/><path d="M-36.82,211.56c-.4-.38-1.17-.79-1.14-1.14.07-.88.79-1.06,1.91-.65C-37,211.78-36.92,211.56-36.82,211.56Z"/><path d="M11.3,180.13,9,180.45C9.49,179.08,9.49,179.08,11.3,180.13Z"/><path d="M39,163c1.46.44,1.23,0,1.31,1.58C39.07,164.5,39.35,165,39,163Z"/><path d="M75.57,364a14.78,14.78,0,0,1-1.24-1s.37-.59.43-.57a14.49,14.49,0,0,1,1.35.71Z"/><path d="M382.29,165.07c-.09-1.29-.49-.85,1.44-1.68C384.11,164.32,384.38,163.94,382.29,165.07Z"/><path d="M157.13,324.58c-1.3-.68-1.3-1.33-.86-2,.08-.12.71-.07.71-.05C157.05,323.1,157.08,323.7,157.13,324.58Z"/><path d="M326.44,160.92c.4,1,.49.48-.05,2-.71-.05-.53.34-.7-1.93Z"/><path d="M99,265.38c1.35,1.12,1.35,1.12.81,2.85C99.46,267.16,99.21,266.27,99,265.38Z"/><path d="M105.81,242.45c-2.18-.39-1-1.4-1.07-2.09C105.48,240.19,105.23,239.81,105.81,242.45Z"/><path d="M69.14,305.35c-.73.8-1.12,1.21-1.56,1.7C66.87,305.4,66.87,305.4,69.14,305.35Z"/><path d="M45.19,296.69c.14,1.35.47.94-1.67,1.75C43.61,296.94,44.24,296.63,45.19,296.69Z"/><path d="M145.17,268.28c2.06.08,1.58,1.35,1.86,2.13C146.3,270.71,146.72,271.06,145.17,268.28Z"/><path d="M108.05,196.87l-1.91-.22C107.23,195.37,107.23,195.37,108.05,196.87Z"/><path d="M66.94,208.53c-1.83,1.44-1.39,1.4-2,.65C66.67,207.55,66.23,207.64,66.94,208.53Z"/><path d="M41,177.92l-1.65-.63C40.27,176.74,40.27,176.74,41,177.92Z"/><path d="M-17.22,159.43c-1.31,0-1.61-.59-1.2-1.78C-17.2,157.73-16.92,158.33-17.22,159.43Z"/><path d="M1.7,158.11c2.08-1.56,1.65-1.44,2.15-1-.68,1.09-.2.76-1.74,1.51Z"/><path d="M-49.39,202.78c-1.28-1.23-1.91-1.93-.16-2.86C-49.5,200.85-49.46,201.51-49.39,202.78Z"/><path d="M18.85,182.29l-1.09,1.44C17.21,182.65,17.21,182.65,18.85,182.29Z"/><path d="M189.32,213.37c2.24-.8,1.81-.9,2.13,0C189.19,214.15,189.61,214.23,189.32,213.37Z"/><path d="M186.63,220c.52,1.4.16,2-1.33,2.27C186,220.56,185.64,221.18,186.63,220Z"/><path d="M172.61,248.51c0-.52,0-1,0-1.55a1.12,1.12,0,0,1,.48-.07c.15.49.26,1,.38,1.49Z"/><path d="M227.4,218.22c-2.25.95-1.79,1-2.21.09C227.29,217.23,226.82,217.2,227.4,218.22Z"/><path d="M296,189.49c1.35-1.25,1.88-1.12,2.3.29Z"/><path d="M357.35,148.77c2.18-.69,1.74-.76,2.1.13C357.41,149.85,357.86,149.93,357.35,148.77Z"/><path d="M280.45,215.15c2.5,1.3,2.07.8,1.65,2C280.27,216.45,280.8,216.89,280.45,215.15Z"/><path d="M-5.37,309.33c.24-.71.44-1.28.66-1.94.42.28.66.35.69.47C-3.82,308.71-4,309.3-5.37,309.33Z"/><path d="M215.68,279.2l-2.08-.36c.09-.33.08-.78.3-.95C214.71,277.24,215.2,277.64,215.68,279.2Z"/><path d="M114.64,357c-.47,1.77-.18,1.36-1.29,1.29C113.46,356.59,113.13,356.83,114.64,357Z"/><path d="M31.86,275.31c-.37.81-.61,1.36-.94,2.09C30.23,276.08,30.23,276.08,31.86,275.31Z"/><path d="M159.28,182.55c2.2-1.48,1.78-1.38,2.11-.88C159.25,183.11,159.67,183,159.28,182.55Z"/><path d="M334.07,224.76c.65,1.36.25,1.81-1.17,2.3Z"/><path d="M-15.66,221.13c.63-.64,1-1,1.77-1.81C-14,220.75-14.17,221.34-15.66,221.13Z"/><path d="M334.35,132.59c-.49,1.84-.31,1.58-.85,1.62-.49-1.4-.46-.93.25-1.83Z"/><path d="M-86.28,183.29c.14,2.07-.79,1.94-2.28,2.14C-87.62,184.56-87.14,184.1-86.28,183.29Z"/><path d="M-49.33,205.88l-.6-2.19C-48.65,204-48,204.34-49.33,205.88Z"/><path d="M140,321.54c1.62.57,1.62.57.89,1.86Z"/><path d="M32.21,285.37c-.51-1.54-.51-1.54,1.74-1.49C31.92,285.54,32.11,285.35,32.21,285.37Z"/><path d="M-31.74,188.68c.42,1.37-.24,1.61-1.62,1.88C-32.52,188.76-32.94,189.28-31.74,188.68Z"/><path d="M141.76-110.81c-.38.69-.65,1.18-1,1.8C140.33-110.27,140.33-110.27,141.76-110.81Z"/><path d="M376.84,173.63c-1-.7-1-.26-.06-1.81C377.57,172.37,377.52,172,376.84,173.63Z"/><path d="M243.3,275.81c.84-.56,1.29-.89,1.78-1.16C245.42,274.47,246.35,276.8,243.3,275.81Z"/><path d="M-57.5,68.53l1.92-1.63C-55.39,68.24-55.75,68.67-57.5,68.53Z"/><path d="M147.92,282.82l-1,1.54C146.4,283.15,146.4,283.15,147.92,282.82Z"/><path d="M334.88,157.15c-1.19,1.16-.87,1.17-1.45.17C334.84,156.6,334.54,156.61,334.88,157.15Z"/><path d="M4.86,162.73c-1.18-.9-1-.67-1-1.21,1.71.12,1.55-.19.94,1.2Z"/><path d="M42.08,173.55c2.25.69,1.94.43,1.8,1.06C41.57,174.34,41.92,174.6,42.08,173.55Z"/><path d="M170.84,257.51l1-1.37C172.48,257.58,172.48,257.58,170.84,257.51Z"/><path d="M155.09,266.17l2.68-.61C157,267.05,156.43,267.44,155.09,266.17Z"/><path d="M-10.75,213.06c-2-.27-1.73,0-1.71-.81C-10.38,212.11-10.72,211.89-10.75,213.06Z"/><path d="M55.25,209.24c-1,1.75-.68,1.6-1.45,1.15C54.84,208.6,54.51,208.81,55.25,209.24Z"/><path d="M304.6,210.06c-.54,1.56-1.14.79-2.34.3Z"/><path d="M86,392.54c-1.42,1-1.12.89-1.43.58C85.78,391.75,85.46,391.83,86,392.54Z"/><path d="M112.84,358.71c-1.46,1.18-1.19,1.08-1.6.8.53-1.28.25-.91,1.3-1.3Z"/><path d="M-52.35,243l1.61.06C-51.44,244.73-51.86,243.23-52.35,243Z"/><path d="M355.11,188.42c1.81-.92,1.45-.88,1.79-.41-1.14,1-.73.7-1.67.85Z"/><path d="M73.3,291.93c-1.51-.76-1.26-.53-1.06-1.09C73.83,291.41,73.63,291.16,73.3,291.93Z"/><path d="M182,293.76c-1.33,1.65-.85,1.38-1.86.84C180.78,293.4,180.37,293.71,182,293.76Z"/><path d="M-33,226.44a1.56,1.56,0,0,1,.45-.09c.23.47.41,1,.61,1.44C-32.95,228-32.83,228.29-33,226.44Z"/><path d="M343,163.65c-.82.71-1.32.74-1.57-.14-.06-.21.09-.49.14-.74Z"/><path d="M278.09,199.31c-.77,1.38-.32,1.2-1.6,1.06C277,199.17,276.61,199.51,278.09,199.31Z"/><path d="M142.3,289.31c-2,1-1.57,1-1.88.44C142.38,288.76,142,288.78,142.3,289.31Z"/><path d="M159.85,202.77c-1.57,1-1.23,1-1.62.58C159.57,201.91,159.21,202,159.85,202.77Z"/><path d="M336.25,208.46c1,1.45,1,1.45.61,2.59C336.39,211,336.53,211.38,336.25,208.46Z"/><path d="M213.51,238.06c-1,1.56-.66,1.26-1.49,1.07C212.44,237.89,212.12,238.25,213.51,238.06Z"/><path d="M363.87,190c2-.07,1.62-.23,1.69.6C363.58,190.84,363.93,191,363.87,190Z"/><path d="M140,284.8l2.21.26C141.39,286.13,140.84,286.07,140,284.8Z"/><path d="M348.49,141.4c-.27,1.21-.84,1.34-1.86.93C346.93,141.29,347.51,141.16,348.49,141.4Z"/><path d="M345.8,144.13c-1.23-.49-.94-.26-.75-1.13C346.36,143.33,346.23,143.05,345.8,144.13Z"/><path d="M22,353.08c-.49,1.43-.07,1.23-1.4,1.23C20.83,353.14,20.47,353.45,22,353.08Z"/><path d="M364.69,149.44c-.28-1.43.52-1.47,1.08-1.72C366.25,148.32,366.41,147.94,364.69,149.44Z"/><path d="M7.81,318.29c1.55.43,1.27.08,1.16,1.26C8.09,319.41,8.37,319.75,7.81,318.29Z"/><path d="M230.57,190.86c0,.62,0,.86-.06,1.1a2.41,2.41,0,0,1-.82-.28c-.09-.06,0-.52.13-.65S230.3,190.91,230.57,190.86Z"/><path d="M167,231.82a7.52,7.52,0,0,1,1.31.44c.08,0,0,.62-.06.64C166.76,233.31,167.11,232.86,167,231.82Z"/><path d="M368.11,176.29c-1,1.09-.55,1.07-1.82.57C367,175.88,366.5,176,368.11,176.29Z"/><path d="M184,314.72c.47-.72.09-.77,1.63.06C185.2,315.5,185.55,315.48,184,314.72Z"/><path d="M-64.93,220.76c-1.29,1.36-1,1.26-1.51.82C-65.33,220-65.67,220.08-64.93,220.76Z"/><path d="M35.26,147.17c-1.13-.34-1,0-.79-1.2C35.05,146.06,34.85,145.73,35.26,147.17Z"/><path d="M194.46,311.28c-.13-.58-.26-1.17-.47-2.09C195.61,309.82,195.09,310.54,194.46,311.28Z"/><path d="M33.36,145c1.2-1.51.87-1.37,1.48-.85C33.56,145.6,33.89,145.49,33.36,145Z"/><path d="M-.89,158.62c1.32-1.29,1-1.21,1.46-.7C-.88,159.06-.58,159-.89,158.62Z"/><path d="M193.52,118.63l.82.09a2.91,2.91,0,0,1-.34.85.79.79,0,0,1-.64-.17C193.28,119.22,193.45,118.94,193.52,118.63Z"/><path d="M53.82,207.68c-1.51.41-1.21.42-1.39-.16C53.93,207.12,53.65,207.06,53.82,207.68Z"/><path d="M56.08,200.93a7.73,7.73,0,0,1,.79-1.41c.07-.06.63.2.62.29C57.4,200.83,56.8,200.73,56.08,200.93Z"/><path d="M-31.12,26.61a4.72,4.72,0,0,1-.72.85c-.09.06-.54-.19-.53-.28C-32.34,26.21-31.61,26.56-31.12,26.61Z"/><path d="M-31.38,14.35l1.53-.87c.15,1.35-.65,1.29-1.28,1.4C-31.47,15-31.38,14.58-31.38,14.35Z"/><path d="M-40.88,12.63c.42.78.83,1-.17,1.63C-41.4,12.51-41.5,12.83-40.88,12.63Z"/><path d="M371.54,181c0,.59.33.41-1.23.83C370.25,180.84,370,181.05,371.54,181Z"/><path d="M-41.52,9.1c.88-1,.62-.94,1.17-.34C-41.4,9.56-41.15,9.51-41.52,9.1Z"/><path d="M-33.93,250l1.14.44a2.75,2.75,0,0,1-.46.83c-.13.11-.65,0-.69-.12A3.64,3.64,0,0,1-33.93,250Z"/><path d="M356.44,172.47c.11-1.54,0-1.28.49-1.29C357.1,172.73,357.24,172.48,356.44,172.47Z"/><path d="M113.22,333.63c1.42,0,1.18-.16,1.25.42C113,334.33,113.24,334.45,113.22,333.63Z"/><path d="M156,346c-.73,1.33-.3,1.23-1.5.79C154.81,345.91,154.44,346.15,156,346Z"/><path d="M210.62,287.67c-.91-.26-.82.06-.61-1.07C210.83,286.92,210.67,286.65,210.62,287.67Z"/><path d="M104.64,237.5c-.9.67-.56.65-1.29.12C104.07,236.92,103.77,237,104.64,237.5Z"/><path d="M310.34,196.5l-1.06.43a2,2,0,0,1-.13-.47C310.4,195.91,310.21,196.06,310.34,196.5Z"/><path d="M279.7,212.85c1,.42.92.06.64,1.24C279.53,213.87,279.65,214.22,279.7,212.85Z"/><path d="M135.43,244.14c.2,1.3.29,1.06-.32,1.14C135,244,134.87,244.21,135.43,244.14Z"/><path d="M247.73,165.88c.67.41,1.29.39.63,1.48-.06.09-.64,0-.66-.05A8,8,0,0,1,247.73,165.88Z"/><path d="M56.86,358c-.57-1.45-.64-1.17,0-1.39C57.33,358.12,57.35,357.83,56.86,358Z"/><path d="M347.88,149.52c-.1,1.45.08,1.13-.8,1.17C347.22,149.25,347,149.48,347.88,149.52Z"/><path d="M35.85,271.36c-.65,1-.28.85-1.31.74C34.67,271.29,34.3,271.46,35.85,271.36Z"/><path d="M78.29,184.65c-.33,1-.14.74-.91.7C77.85,184.41,77.63,184.64,78.29,184.65Z"/><path d="M101.15,195.9c.53.3.52,0,.28.93C100.74,196.47,100.78,196.69,101.15,195.9Z"/><path d="M-59.5,222.19c1.42-.88,2-.46,2.47.08C-57.14,222.81-56.73,222.75-59.5,222.19Z"/><path d="M118.68,358.71c1,.37.84.09.71,1C118.4,359.48,118.66,359.68,118.68,358.71Z"/><path d="M-21.4,265.15c-.82.86-.39.87-1.58.32C-22.48,264.75-22.92,264.77-21.4,265.15Z"/><path d="M141.9-93.28c1.43.75,1.29.49,1,1.08C141.44-92.92,141.58-92.65,141.9-93.28Z"/><path d="M116,191a1.44,1.44,0,0,1-.45-.09c0-.43,0-.86,0-1.29C116.37,189.71,116.39,189.45,116,191Z"/><path d="M71.51,375c-.3,1,0,.84-1,.79C70.69,374.82,70.51,375.08,71.51,375Z"/><path d="M42.74,262.78c-1.37.72-1.06.76-1.45,0C42.79,262.27,42.49,262.21,42.74,262.78Z"/><path d="M153,342.92c-.77,1.09-.51,1-1.12.4C152.87,342.51,152.63,342.58,153,342.92Z"/><path d="M-3.87,232.51c0,.68.2.56-.67.61C-4.57,232.55-4.77,232.69-3.87,232.51Z"/><path d="M180.37,220c-.69,0-.52.19-.72-.7C180.21,219.3,180.06,219.07,180.37,220Z"/><path d="M185.45,207.15c1.16.92.87.58.89,1.4C185.33,208.54,184.91,208.8,185.45,207.15Z"/><path d="M170.55,322.78c-.48,1.23-.15,1-1.25.88C169.74,322.42,169.46,322.73,170.55,322.78Z"/><path d="M-3.18,164.61c.43,0,.85-.09,1.27-.09a1.45,1.45,0,0,1,.12.44C-3.33,165.46-3.06,165.44-3.18,164.61Z"/><path d="M318.27,128.4c.3-.79,0-.73,1.13-.56C319.15,128.94,319.39,128.78,318.27,128.4Z"/><path d="M-41.75,144.28c1.64-.11,1.37-.25,1.42.39C-42,144.8-41.71,144.91-41.75,144.28Z"/><path d="M82,193.06c-.45,0-.88,0-.9,0a2.27,2.27,0,0,1,0-1c0-.07.61-.14.67,0A3.34,3.34,0,0,1,82,193.06Z"/><path d="M190.85,222c1.41.22,1.13,0,1.06.91C190.5,222.52,190.71,222.74,190.85,222Z"/><path d="M134.24,330l-.88-1c.13-.11.36-.32.37-.31C134.84,329.84,134.65,329.66,134.24,330Z"/><path d="M180.07,231.59c-.94,1.38-.67,1.24-1.18.9C179.83,231.11,179.57,231.25,180.07,231.59Z"/><path d="M197.71,224.52c1.09.25.84,0,.81.91C197.4,225.31,197.57,225.55,197.71,224.52Z"/><path d="M1,147.2c.66.48.76.15-.21,1.51C.05,148.23,0,148.56,1,147.2Z"/><path d="M32.25,125.36c1.51-.08,1.24-.18,1.3.38C32.15,126,32.42,126.1,32.25,125.36Z"/><path d="M346.58,133.76c-1.14-1.11-1.05-.83-.57-1.32C347.12,133.6,347,133.32,346.58,133.76Z"/><path d="M-30.39,262.25c-.15,1.12.19.89-1,1.14C-31.39,262.58-31.7,262.84-30.39,262.25Z"/><path d="M46.88,283.41c1.51-2.12,1.11-1.9,1.78-1.37C47,283.73,47.29,283.54,46.88,283.41Z"/><path d="M323.52,157.24c.31,1.35.43,1.09-.4,1.25C323,157.05,322.91,157.29,323.52,157.24Z"/><path d="M4.8,162.72c1.15,1.27,1.41,1-1,1.18-.19-.49-.36-.22,1.05-1.17Z"/><path d="M372.59,198.7c-.2,1.68.09,1.44-1.14,1.25C371.57,198.19,371.28,198.43,372.59,198.7Z"/><path d="M176.44,262.11c1.26.46,1.13.17.7,1.21C176,262.82,176.19,263.11,176.44,262.11Z"/><path d="M16,229.49c-.06,1.41.05,1.17-.39,1.22C15.4,229.31,15.28,229.56,16,229.49Z"/><path d="M4.35,144.34c1,.28.8,0,.75.9C4.23,145.11,4.45,145.3,4.35,144.34Z"/></g><g class="cls-1"><rect class="cls-2" x="-114.3" y="-54.43" width="421.5" height="290.44" transform="translate(-34.24 69.21) rotate(-33.89)"/><path d="M92.49,259.81a2.5,2.5,0,0,1-2.66-2.37c1.42.25,2.64.54,3.13,2.06Z"/><path d="M270.76,138.36c1.56-1.53,1.56-1.53,3.08-.38C272.17,139.11,272.87,139.05,270.76,138.36Z"/><path d="M288.9,125.75c1.29-.64,1.72-.06,2.06.73C290.37,126.88,290.74,127,288.9,125.75Z"/><path d="M220.32-9.51c2.13-.54,2.34,1.23,3.24,1.71,1.45.78,1.37,1.94,1.58,3.14l2.19.36c1-2.06,1.65-4.52,4.34-5.17-.27-1.17-.49-2.14-.69-3l2.7-2.39c.82,3.05-.09,3.66,2.55,3.48,1.55-.1,1.82.83,1.9,2.22L234.52-8c-1.51,1.89.39,3.8.06,5.86-1.23-.09-2.41-.66-3.37.51a1.79,1.79,0,0,1-1.68.3c-2.26-2.19-3,1.64-6.27.27-1.13-.48-2.59-.17-4.13-.22-.68-.92-.17-2,.48-2.84a2.89,2.89,0,0,0,.5-2.76A9.76,9.76,0,0,1,220.32-9.51Zm12.85,2.1c-1,.22-1.74.16-2,.48-.84,1-.25,1.95.57,2.92Z"/><path d="M133.17,7.6l-.77-1.15c-2.13,1.32-2.13,1.32-2,4.14l-2.9,2.4a6.51,6.51,0,0,1-.38-2.07c.48-3.27-.11-4.18-3.21-4.4,5.18-6.36,10.4.15,6.52-3.61l1.68-1.3c1,1.1,1.91,2.09,2.82,3.07,1.83-2.11,3-2.22,5.75-.48-.85,2.91-.95,6.21-4.15,8-.64.35-1.2,1-2.07,0,.91-.56.92-2.12,2.58-1.83.21,0,.82-.8.78-1.17a1.41,1.41,0,0,0-1.13-.83c-.63,0-1.25.42-3.94,1.91a1.74,1.74,0,0,1,.38-2.69l1.73.24c-.11-.84-.18-1.43-.31-2.42Z"/><path d="M208.62,39.81l-.77-1.59,3.59-.76c.05,1.83.08,3.27.12,4.91,2.07.49,2.4,2.27,2.8,4.42-1.84-1-1.08-1.18-2.88,1.52s-5.09,1-4.7-.72c1-4.4,2.27-4.52.7-5.8C206.17,40.74,208.09,40.4,208.62,39.81Z"/><path d="M6.3,140.31c-1.41,2.55-3,4.87-6.84,4.32-.22-.75-.47-1.65-.79-2.77,1.44-.2,2.56-.21,3.16-1.56.28-.63,1.54-.81,2.4-1.21.31-1.83-1.62-1.34-2.36-2.16l-1.28-5.3c2.18,1.55,3.15,3.44,5,4.35a55.79,55.79,0,0,1,5,3.12C9.17,140.68,9.17,140.68,6.3,140.31Z"/><path d="M22,117.83c-.45,1.21-1.73,2.36-.07,3.63a4.93,4.93,0,0,1-3.47,2.19c.35-3.41.84-4.19-1.07-4,.47,1.33-1.31,3,1.08,3.92,1.1,1.82-.93,2.3-1.27,3.39l-3.93.27c.52-1.66,1-3.2.31-5-.34-.87.5-2.21.87-3.57,1.91.94,3.62-1.48,5.58.32.19-.73.44-.48-1.2-1.62-1.13-.78-1.13-.78.13-2.32.95.31,1.05,2.06,2.5,1.65C21.53,116.72,21.94,118,22,117.83Z"/><path d="M-80.61,142.64c.77-4.47,3.61.79,4.69-2.55L-78.25,139l1.19-1.49c2.73.92,5.54,1.32,7.79,3.22,1.08.91,1.17.81,1.21,2.82C-72.36,145.72-76.29,143.26-80.61,142.64Z"/><path d="M208.4-25.31c-.2-1.28-.31-2-.45-2.87l1.62-.68a5.62,5.62,0,0,1-1.23,4.95c2-.73,3.57-1.76,3.88-4.12,1.39,2.26-1.11,3.65-1.22,5.69,1.71.15,1.66-1.48,2.41-2.17,1,.92,1,.92,0,3.51a3.42,3.42,0,0,1-4.11-.86l-4.19,2-.7-2c-1.09-.45-2.44,1.11-3.5-.3-.71-1-2.29-1.36-2-3.24,1.65.61,3.2,1.6,4.77,1.64S206.75-24.73,208.4-25.31Z"/><path d="M292.83,38.59a6.13,6.13,0,0,1,2.14-4c-1.42-1.59,1.89-2.12.56-3.63l4.6.37c-.13,1.87-3.82,1.66-2.8,4.49l2.33,0,1.7,4.8C298.11,40.76,295.29,40.68,292.83,38.59Z"/><path d="M262.42-15.43l-1.59-.28a2.27,2.27,0,0,0-.74-3.17c3.21-.36,3.57-.11,3.87,2.65,1.56-1.58.84-1,2.88-2.06-.42.89-.59,1.26-.83,1.79,2.93,2.51-.45,4-.31,5.05.25,2-2.3,1.64-2.53,3.18-6.71-.92-2.59.42,0-3.8l-2.51-1Z"/><path d="M117,.11c-2.49-.6-1.85-2.9-3.11-3.93.45-1.11.85-2.11,1.25-3.12-2-1.86-2-1.88.66-5.25,1,.45,2,2.24,3.63,6.27C118.65-3.9,117.84-1.88,117,.11Z"/><path d="M156.52-85.13a7.32,7.32,0,0,0-2.29-1,7.34,7.34,0,0,1-4.92-2.17,17.72,17.72,0,0,0-1.87-1c-.32-.22-.48-.66-.81-1.16,3-1.1,8.14.07,8.93,2.69.47,1.58,4.31,2.79,3.05,5.16-.85,1.6-2.25,2.2-4.27,1.7C155-82.18,155.6-83.37,156.52-85.13Z"/><path d="M226-11.17c-1.7-.8-5,0-1.89-3.91.69-.87,1.19-2.1,2.74-2.38,1-.18,1.76-1.42,2.66-2.22a2,2,0,0,1,1.08,2.93,30.79,30.79,0,0,0-1.07,4.33A30.9,30.9,0,0,0,226-11.17Z"/><path d="M287.8,37.1c1.57-3.31,1.24-6.59,1-9.81,2.41-.54,3.86.57,3,2.53-1.72,4.1,1.4,8.48-.78,9.28C290,39.48,289.39,39,289,38,288.85,37.62,288.3,37.45,287.8,37.1Z"/><path d="M3,128.28c3.9-1.56,5.58.15,4.94,5.34-1.35.15-2.81,1.19-4-.21A5,5,0,0,1,3,128.28Z"/><path d="M114.13-50.83c.42,2.84-1.93,3.83-2,4.17-.62,2.5-2.74,2.28-4.72,2.79-.23-1.34-.44-2.49-.65-3.67,1.15,0,2.42.31,3.37-.1s1.47-1.55,2.13-2.31c-.47-1-.87-1.8-1.32-2.71l2.58-1.08a13.83,13.83,0,0,0,.84,2.34C114.28-51.21,114.21-51,114.13-50.83Z"/><path d="M198.35-135.46l-.15,0c.83,0-3.88,2.85-3.94,2.89-.56-1-.94-1.63-1.34-2.32-1.81,1.84.59,3.49-.07,5.22a14.05,14.05,0,0,0,2.19,1.29l2.65-1.6c-1-1.94.44-2.88,1.53-4.14Z"/><path d="M139.09-52.22c-2.62-3.48,2.33-2.3,1.45-5.61-6.07,1.76-4.66,1.8-6.63.2.63-1.49,1.26-.32,1.87-.1l1.12-1.44c1.45.23,3.17,0,4.15.8a4.3,4.3,0,0,1,1.11,3.62C141.71-52.64,146-53.37,139.09-52.22Z"/><path d="M126.81-7c-1.73-2.95-5.09,1.42-5.79-1.64-.56-2.46,4.44-3.15,9.31-.05l0,0c-.49,2-2.5.94-3.59,1.74Z"/><path d="M173.77,140.7c-1.54.12-3.22-.53-3.86,2.2-.5-1.27-1-1.87-.86-2.29a7.48,7.48,0,0,0,.27-4.92l5.48.05C173,138.65,173.25,137.33,173.77,140.7Z"/><path d="M158,124c-.32-1-.6-2-.92-3a27.61,27.61,0,0,0,4.66-1.15c1.32-.58,2.46-1.48,4.33-.73l-2,2.52c-1.14-1.45-.55-1.36-2.67-.14.15.91.29,1.74.48,2.87Z"/><path d="M119.76-95.73c1.11-1.67,3.08-2.61,4-4.71,2.75,3.62.85,4.17-1.07,5.17,1.13,2.5,1.23,1.65-.72,3.84Z"/><path d="M-11.09,31.41C-9,30.85-7.6,27.78-4.7,29.84c-.63,1.41-.25,3.32-2,3.92C-8.69,34.42-9.92,33.06-11.09,31.41Z"/><path d="M196.52,38.82c-.08,1.7-1.44,1.89-2.58,2.31-1.85-.77-1.53-2.33-1.5-3.54-2.21-1.88-1.92-1.39-1.53-2.26,4.78.74,3.59-.11,5.59,3.55Z"/><path d="M135,24.74c-2.26-2.24-1.81-1.27-1.72-4.34-.73-.18-.37-.43-1.8,1.69-3.07-2.35-1.67-5.41-.52-3.91,1,1.33-1.13,2,3-.45C134.64,20.05,136,22,135,24.74Z"/><path d="M129.44-70.6a11.67,11.67,0,0,1,2.21-1.82c3.45-1.69,4.11,2.71,1.63,3.91C131.91-67.85,131-68.39,129.44-70.6Z"/><path d="M137.87-5.08a10.48,10.48,0,0,0-1.44.54c0-1.21.08-2.37.13-4l7,2.62c.17,1.74-1.39.93-2.11,1.37C139.38-4.75,138.66-3.71,137.87-5.08Z"/><path d="M238,54.84a8.62,8.62,0,0,1-.07,2.17c-.43,1.15-1.57,2.13-.61,3.56.08.12-.4.87-.71.94a1.25,1.25,0,0,1-1.07-.54c-.81-3,1.12-2-2.59-3.17C232.8,56.93,232.05,57.5,238,54.84Z"/><path d="M219.37-12.6c-5.43,4.09-3.55,3.48-8.42,3.13,1.62-3.33.21-1.3,4.77-2.62C219.47-13.17,218.42-14.37,219.37-12.6Z"/><path d="M216.05-36.39c-.72-5-1-2.92,2-4.5a17,17,0,0,0,2.14-1.61c.23,2.52.64,3.85-1.27,4.23C218-38.08,217.23-37.18,216.05-36.39Z"/><path d="M211.45-28.83c-2.46-1.64-2.16-.89-1.27-3,.69-1.62.66-1.53,2.49-.91a12.16,12.16,0,0,0,2.93.21c-.89,2.86-3.14,1.49-4.89,1.94C211.85-28.84,211.79-29.14,211.45-28.83Z"/><path d="M166.38-5.32c-1.19-.71-2.71,1.19-3.47-.8,1.22-.49,2.37-1,3.54-1.4,2.8-1,5.07,4.61-1.1,3.53Z"/><path d="M10.34,117.53c1.5-.2,2.55-.3,2.82,1.11.39,2.07-.5,3.29-3.34,4.48C10,121.21,10.17,119.41,10.34,117.53Z"/><path d="M117.11-35.56c-2.08-2.67-3.59-2.32-2.3-6.5.26-.86,1-1.3,1.67-.83.47.33.94,1.63.77,1.78-1.66,1.5-.32,2.84,0,4.23A5.17,5.17,0,0,1,117.11-35.56Z"/><path d="M196.5,38.88l2-1.5c3.65,2.74,2.71,1.82,3.09,3.53-2,0-1.35,0-2.19-.32-.53.76-.38,2.25-1.67,1.79C196.38,38.4,196.53,38.79,196.5,38.88Z"/><path d="M-39.34,233.46c1.41,1.74,2.7,3.28,1.27,5.44C-41.12,237.68-41.55,235.92-39.34,233.46Z"/><path d="M-31.13,132.25c-.65-4.47-.65-4.47-3.22-6.34l2.54-.67c.08-.62.17-1.36.33-2.61.81,1.57,1.54,2.52.89,4C-31.15,127.87-28.72,130.72-31.13,132.25Z"/><path d="M107.31-78.92,104-79.29c-.13-1.69-.25-3.2-.39-5,.63.23,1.49.37,1.51.59C105.25-81.93,107.3-81.23,107.31-78.92Z"/><path d="M1-6c-.12-2.61-.46-3.88.68-4.55.33-.2,1.62.39,2,1.54.29,1,.45,2,.76,3.34C2.46-6.61,3.33-6.63,1-6Z"/><path d="M13.51,84.62c1.78.46,3.78-.71,5.63.86-.21.37-.35,1-.65,1.06C15.55,87.36,12.62,87.92,13.51,84.62Z"/><path d="M217-35.07c.54-.07,4-1.25,4.25,1.81.11,1.12-1.13,2-1.82,1.5-.95-.73-1.79-1.61-2.68-2.43Z"/><path d="M128.78,145.72,126.59,144c.62-2,1.88-.77,2.9-.89-.45-1.81,1-2.16,2.23-3C132,142.77,130,143.94,128.78,145.72Z"/><path d="M143.71-92.13c.76.71,1.47,1.39,2.39,2.27l-3.68,2.47C141.37-89.24,141.85-90.59,143.71-92.13Z"/><path d="M221.28,156.1c.4-1.34.8-2.67,1.22-4,1.46.44,2.66,1.07,2.89,2.75C224.64,156.91,222.44,155.05,221.28,156.1Z"/><path d="M266.36,139.37c0,2-.93,2.83-3.79,3.28C262.55,139.51,262.44,139.29,266.36,139.37Z"/><path d="M151,150.08c.46,1.62-1.48,1.88-1.61,3.19-2.23-.35-2.09-2.1-2.71-3.65C151.49,150,151,149.87,151,150.08Z"/><path d="M228-82.6l-.35,2-5.36,1.67C221.66-81.23,226.71-82.21,228-82.6Z"/><path d="M183.68,146.11l2.75-1.85,2.81,2.47C187,147.6,185.34,147.78,183.68,146.11Z"/><path d="M197.7,182l2.56-3.86a9.27,9.27,0,0,1,1.36,1.46c1.1,1.9-.73,2.1-3.09,2.68C198.46,182.29,198.36,182.22,197.7,182Z"/><path d="M226.11-29.29c.41.87.78,1.64,1.17,2.48-1.86,1.15-3.42.17-5,0C222.1-27.63,221.54-27.14,226.11-29.29Z"/><path d="M82.09,14.65c1.11.29,5.94.93,3.63,2.83-.68.56-1.46,1-2.06,1.41Z"/><path d="M164.75,75.71c-1.63.36-3,1.07-4.14-.52.94-1.09,1.79-2.3,3.82-2C164.53,74,164.63,74.78,164.75,75.71Z"/><path d="M10.69,99.66c-2.82-1.55-3.55-2.48-3.17-3.56S8.75,95,11,95.69C10.19,96.79,9.13,97.86,10.69,99.66Z"/><path d="M278.93,16.28c-.37-1.68-.73-3.35-1.11-5.11.65-.1,1.1-.24,1.14-.15a15.27,15.27,0,0,1,1.65,3.31C280.86,15.29,280.58,16.39,278.93,16.28Z"/><path d="M173.51,0l3-2.33C175.47.1,177.68.47,178,2.08,174.54,2.26,175.61,2.68,173.51,0Z"/><path d="M167.22,16.07c-1.07,2.9-3.09,1.13-4.46,2.76C163.09,8,162.11,18,167.22,16.07Z"/><path d="M187-141.11c-.6-2.55-.06-2.91,4-2.68C191.84-142.14,191-142.26,187-141.11Z"/><path d="M269.14,8.34c1.14-1.44,2-2.58,3.08-3.88a2.11,2.11,0,0,1,.64,2.89C272.08,8.83,270.72,8.64,269.14,8.34Z"/><path d="M152.94-56l-3.06,3-2.41-3.21Z"/><path d="M-92.28,58.44c1.36-.89,2.34-2.12,4.37-1-.43.8-.66,1.86-1.27,2.18C-90.33,60.22-91.16,59.15-92.28,58.44Z"/><path d="M152.34,130.47c-3.42-.41-4.69-2.08-3.88-4.86Z"/><path d="M39.16,221c4-1.39,5.19,1.25,4.63,2.1C43.05,224.24,41.92,223,39.16,221Z"/><path d="M47.49,6.12c-.71-1.75-1.26-3.51-3-4.43C44.22,1.56,44.4.61,44.38,0c.52.2,1.22.25,1.5.62.76,1,1.26,2.2,2,3.22C48.5,4.72,48.42,5.32,47.49,6.12Z"/><path d="M154.18,145.79l1.93,2.6c-2.18-.5-3.24,1.9-5.13,1.69C151,150.18,150.55,150.53,154.18,145.79Z"/><path d="M45.78,96.57c.32,2.17.57,3.84.82,5.51C43.67,101,43.29,99.41,45.78,96.57Z"/><path d="M186.37,31.7l1.21-1.35c2.29,2.21,2.37,2.42,1.75,4.85A13.21,13.21,0,0,0,186.37,31.7Z"/><path d="M236.08-19.31c.55.18,1.33.69,1.63.49,1.89-1.24,2.66,0,3.39,1.38C238.63-16.34,238.15-16.48,236.08-19.31Z"/><path d="M120.27-82.37c-.08-1.6-1.41-2.83-.25-4.33C122.85-84,122.94-83.33,120.27-82.37Z"/><path d="M185.55-53.33c-1.36-1.49-1.5-2.57,0-3.6l3.41,2C188.27-52.94,186.06-55.69,185.55-53.33Z"/><path d="M122.74,133.22c2.25-1.23,2.87,1.71,3.92,4.35C124.79,138.56,124.84,137.57,122.74,133.22Z"/><path d="M227.62,5.24c-1,1.46-1.91,2.94-4.31,2.87C224,7,224.55,5.93,225.25,4.7,227.89,5.36,227.63,5.32,227.62,5.24Z"/><path d="M176.88,68c0,1.62.08,3,.12,4.45-1.67-.46-2.05-1.06-2.07-3C174.92,68.48,174.92,68.48,176.88,68Z"/><path d="M114.13-50.83c.42-1.08.77-1.87-.66-2.93.06,0,0,.15.6-1.11l3.82,2.62C116.31-51.7,115.59-50.46,114.13-50.83Z"/><path d="M223.32-44.07l2.15,1.15-1.66,2.78C222-41.69,222-41.69,223.32-44.07Z"/><path d="M304.21,43.05c2.24,2.09,1.55,2.21-2,4C301.61,46.39,301.38,47.08,304.21,43.05Z"/><path d="M145.41,6.38l2.2,1.68c-.37,2.74-.37,2.74-2.2,2.57Z"/><path d="M181,74.75l-2.56-1.09c.36-1.59,1-2.35,2.86-2.09C181.22,72.46,181.14,73.32,181,74.75Z"/><path d="M127.55-90.36c-.58,2.56-2.24,2.85-4,3C124.51-88.68,125.21-90.34,127.55-90.36Z"/><path d="M187.22-138.92l1.61-2,2.47,2.08C186.57-137.65,187.37-137.53,187.22-138.92Z"/><path d="M81.63,222.58c2.16,2.48,2.11,2.8-.71,4.51.12-.86.53-1.72.26-2.16C80.6,224,81,223.45,81.63,222.58Z"/><path d="M-2.2,140.32c-1.27-2.54,2.47-4.34,3-.9Z"/><path d="M132.64,15.13c2.29-.58,2.29-.58,3.43,1.33C134.1,17.15,134.05,17.13,132.64,15.13Z"/><path d="M151.38,133.67c2.25.32,3.53-2.38,5.9-.15-1.48.06-2.68-.19-3.37,1.26C153.58,135.49,152.47,135,151.38,133.67Z"/><path d="M196.42,32.85c1.22-.55,1.91-2.6,4.27-1.39C199.14,32.5,198.22,33.91,196.42,32.85Z"/><path d="M175.52-53.11l1,2.35c-2.92.52-2.05.55-3.16-.47Z"/><path d="M-2.53,128.37c-1.86-2.36-1.65-3.28.86-4.72C-1.75,123.62-1.63,123.1-2.53,128.37Z"/><path d="M178.93,172.05c1.34-1.78,2.59-1.34,4.1,1.09C182.62,173.88,183.31,174,178.93,172.05Z"/><path d="M191.32-127.65c-2.94-2-2.58-1.26-2-3.39C191.3-130.72,192-129.74,191.32-127.65Z"/><path d="M238.55-4.84c-.28-1.29-.5-2.32-.76-3.53C240.33-7.65,240.48-6.95,238.55-4.84Z"/><path d="M147.13,3.12c-.32,1.19.52.52-3,2.58l-.31-.16c-.36-1.82-.07-2.57,1.27-3.25,0-.07-.05-.42.21,1.49C146.24,2.72,145.81,2.84,147.13,3.12Z"/><path d="M115.28-15.34,114-13.66c-1.51-.88-1.51-.88-1.64-2.78Z"/><path d="M144,161.7c-1.71-1.71.28-2.47.69-3.59C145.48,159.4,145.91,160.62,144,161.7Z"/><path d="M187.31-130.92l-2.78.55c-.28-1.66-.6-1,.76-2.54Z"/><path d="M171.42-9.51l2.52-.66c.38,1.56-.64,2.06-1.58,2.93C172-8,171.78-8.65,171.42-9.51Z"/><path d="M-17.56,293.55c.08-1,.15-1.75.22-2.67l1.95.2C-15,292.92-15.91,293.43-17.56,293.55Z"/><path d="M113.48-75.89c1.61-.09,2.65.34,3,1.81C114.65-73.3,114.65-73.3,113.48-75.89Z"/><path d="M214.86-52.26l-1.7-2.53a1.75,1.75,0,0,1,2.63.47C216.19-53.81,216.13-53.71,214.86-52.26Z"/><path d="M237.41,7.09l-2.75-.17C234.87,4.62,238.46,4.5,237.41,7.09Z"/><path d="M133.93,135a10.5,10.5,0,0,1,.08-2.32c.08-.33.84-.8,1.12-.7s.87.89.76,1.12a13.09,13.09,0,0,1-1.47,2.11Z"/><path d="M171.54,12.84l-2.9,1.94c-.07-1.08-.11-1.73-.18-2.77Z"/><path d="M125-56.94l1.51,2.84c-1.07.38-.26.53-3.08-.6Z"/><path d="M119.44-60.64l-.88-2c1.57-1.36,2.36.63,3.56.78Z"/><path d="M239.72-9.86c-1.85-.48-1.21-1.6-1.19-2.83l2,.46C240.22-11.36,240-10.64,239.72-9.86Z"/><path d="M267.59,5.33c-.62,1.3-1,2.29-2.46,2.18a1.61,1.61,0,0,1,.64-2.37C266.17,4.93,266.83,5.23,267.59,5.33Z"/><path d="M258.21-3.25c2.73-1.64,3.69.35,3.23,1-.58.87-1.49,0-3.29-1Z"/><path d="M100.11-49.19c-1.31-.86-3.28,1.25-4.23-1.08C97.19-49.25,99.08-51.39,100.11-49.19Z"/><path d="M152.36-49c1.56.63,3,.57,2.8,2.67C153.62-46.47,153-47.37,152.36-49Z"/><path d="M156.79-9.23l2.52.89c-.53.86-.89,1.44-1.38,2.25C156.19-9,156.32-8.42,156.79-9.23Z"/><path d="M75.35,23l-1.8,3.72C72.62,25.06,72.9,24.41,75.35,23Z"/><path d="M202.48,21.17l-2.36-.29c0-.68,0-1.31,0-2C201.66,18.82,201.72,19.94,202.48,21.17Z"/><path d="M177.59,9.66l-2.88-1.51C176.1,6.94,176.67,7.11,177.59,9.66Z"/><path d="M145.92-53.14c-.2-.87-.37-1.61-.67-2.88l3.17,1.2Z"/><path d="M184-80.78c-1.8.63-2.55.09-2.94-1.47C182.49-82.65,183.41-82.4,184-80.78Z"/><path d="M.05,63.92c-1-1.19-1.64-2-.71-3.31C.59,61.46,1,62.35.05,63.92Z"/><path d="M120.71-13.15l-1.55,2.08c-1.11-.17-1.41-.75-1.06-1.55C118.55-13.66,119.36-13.79,120.71-13.15Z"/><path d="M228.66-23c-.1,2-1.85,2.27-2.72,3.62C225.25-21.32,224.87-20.68,228.66-23Z"/><path d="M15,94.58c-1.08,1.22-1.08,1.22-2.93.13C13.31,93.61,13.31,93.61,15,94.58Z"/><path d="M267.86,133.6c-2.3.48-.91,2.35-1.6,4.16l-1.4-3C267.64,132.88,267.12,133,267.86,133.6Z"/><path d="M130,22.06l-3.3.65C126.26,21,128.81,19.73,130,22.06Z"/><path d="M-39.29,263.58c0-.32,0-.55.07-.66.6-.7,1.28-1.38,2.27-.85S-37,265.06-39.29,263.58Z"/><path d="M219.39,149c-.08,2,.39,1-1.32,3.93l-1.32-.42C219.65,148.71,219.47,149,219.39,149Z"/><path d="M56.8,234.67c1.7,2,1.6,2.82-.27,4A36,36,0,0,0,56.8,234.67Z"/><path d="M115.25-80.27c1.21.18,2.62-1.69,3.42.72C117.45-79.53,116.19-78.56,115.25-80.27Z"/><path d="M105.09-35.3l2.57,1c0,1-.43,1.44-1.3,1.25S105-33.92,105.09-35.3Z"/><path d="M216.92,161.16c-1.88-1.72-1.87-1.92.25-3.74C217.08,158.7,217,159.87,216.92,161.16Z"/><path d="M11.67,109.64c1.45-2,1.52-2,2.61,0Z"/><path d="M140.92-1c-1.44,1-2.49.21-3.84-.83C140.39-3.14,140.68-.67,140.92-1Z"/><path d="M186.14,28.47l2.28-2.63c.14.61.48,1.19.31,1.51A2,2,0,0,1,186.14,28.47Z"/><path d="M219.49,163.44,217,165.13c0-1.38.25-2.36,1.56-2.6C218.76,162.49,219.09,163.05,219.49,163.44Z"/><path d="M187.28,139.72c-.18-2.23-.18-2.23,1.61-2.46C188.52,138.24,189.1,139.65,187.28,139.72Z"/><path d="M176,119.25l-1.69.1c-.53-.91-.41-1.6.5-1.77C175.93,117.36,176.15,118.11,176,119.25Z"/><path d="M147.09,13.67c-1.29-.13-2.31.07-2.84-.35s-.27-1.32.62-1.67Z"/><path d="M143,.28l-2.87,1.24c.39-1.31.57-1.93.75-2.55l0,0C143.23.45,143,.37,143,.28Z"/><path d="M206.26,4.36c.17.94.3,1.6.42,2.26-.83.17-.36.53-1.85-1.43Z"/><path d="M181.67,1.72c1.25.14,2.36.49,2.46,2.38C180.89,2.08,181.22,2.57,181.67,1.72Z"/><path d="M11,205.2c-2.61.21-1.81-2.41-.92-2.26C11.39,203.18,11.09,204.14,11,205.2Z"/><path d="M262-1.86c.2,2.67.18,2.71-2.12,3.4C260.63.32,261.16-.54,262-1.86Z"/><path d="M238.93-21.34c-2.44.33-2.48.3-2.67-2.11Z"/><path d="M137.85,15.74c1.11-2.24,1.11-2.24,3.39-.86Z"/><path d="M131.59-50.52c.48-2.29.48-2.29,2.54-1.39Z"/><path d="M174,64.69c1.9-.67,1.9-.67,2.11,2.08C175.31,66,174.71,65.35,174,64.69Z"/><path d="M90.5,10.1c-1.39-.21-2-.66-1.62-2C90,8.13,90.68,8.55,90.5,10.1Z"/><path d="M13.07,103.27c0-.69,0-1.38,0-2.28.51.15,1,.14,1.14.35C15.21,102.43,14.27,102.88,13.07,103.27Z"/><path d="M231.86-83c-1.81-.07-1.46-1.34-2.06-2.36C231.64-85.35,231.88-84.44,231.86-83Z"/><path d="M11.65,102.48c.2,2.54.49,2.12-1.05,2.12C10.69,102.11,10.42,102.53,11.65,102.48Z"/><path d="M147.22,87.28c-2.23-1.14-1.79-2.34-1.39-3.54C146.62,83.75,146.34,83.22,147.22,87.28Z"/><path d="M184.35,102c.29,1.59.21,2.53-1.36,2.75C182.18,103.37,182.88,102.73,184.35,102Z"/><path d="M239.57-.8l-1.8,2.21C237.27-.46,237.36-1.37,239.57-.8Z"/><path d="M127.51,114.06c-1.45-.82-.43-2-.78-3.21C129.81,112.16,127,114,127.51,114.06Z"/><path d="M96.83-58.08c-1.81-.54-2.77-1-2.4-2.76Z"/><path d="M188.94,20,192,21.62C190.29,22.27,190.29,22.27,188.94,20Z"/><path d="M139.72-81.48c-1,1.49-1.89,1-3,.31C137.74-82.23,138.63-82,139.72-81.48Z"/><path d="M-43.77,40.84c.58-1.14,1.32-1.09,2.77.06C-44,41.71-43.47,41.81-43.77,40.84Z"/><path d="M225.58,150.7c-2.58-.91-2.58-.91-1.85-2.5C225,148.37,225,149.4,225.58,150.7Z"/><path d="M183.18-6.06c1,1.13,1.59,2,.56,3.29C183-3.76,182.31-4.51,183.18-6.06Z"/><path d="M-2.8-11.8c-.92-1.45-1.75-2.35-.67-3.26C-2.45-14.86-2.65-15.38-2.8-11.8Z"/><path d="M220.82,158.78c.57,1.75-.14,2.07-1.53,1.85Z"/><path d="M204.66,35l1.23-2.1c.25,0,.51,0,.54.09C207,34.23,206.84,35.1,204.66,35Z"/><path d="M109.37,234.24l3.18.91C110.83,236.3,110.83,236.3,109.37,234.24Z"/><path d="M183.45-130.36c-1.39-.2-2.18-.61-2.27-2.11C182.67-132.53,183.15-131.77,183.45-130.36Z"/><path d="M167.82,136.44a7.06,7.06,0,0,1-2-.7c-.14-.13.1-1,.3-1.08a1.79,1.79,0,0,1,1.4.2C167.79,135.05,167.71,135.68,167.82,136.44Z"/><path d="M197.07,22.3c-2.38-.69-2.38-.69-1-2.62C196.41,20.61,196.69,21.32,197.07,22.3Z"/><path d="M176.88,33.17c1.89.88,1.78.26,1.22,2.15C176.76,34.86,177,35.49,176.88,33.17Z"/><path d="M74.06,209.66l1.78.86c-.26.61.31.41-2.61.83C73.54,210.73,73.77,210.26,74.06,209.66Z"/><path d="M5.59,122.64l2.08,2.18a8.86,8.86,0,0,1-2.17-.22C4.38,124.1,5.11,123.52,5.59,122.64Z"/><path d="M264.71-32.54c-2,.18-2.83-.23-3-1.46C262.4-34.8,261.78-35,264.71-32.54Z"/><path d="M-9.39,78C-11,79.82-11,79.82-12.22,77.9Z"/><path d="M-1.67,123.65c.55-1.36.35-1.67,1.81-2,.11,0,.48.48.44.55a3.28,3.28,0,0,1-.95,1.15C-.79,123.65-1.86,123.57-1.67,123.65Z"/><path d="M165.51-23.14c.61,1.87-.58,2.07-1.37,2.57C163.43-21.08,163.2-20.54,165.51-23.14Z"/><path d="M-46,13.7c1.5.47,1.3.05.64,2C-46.52,15.22-46.41,15.78-46,13.7Z"/><path d="M204.76-40.37c-.43,1.29-.67,2-1.07,3.18C202.92-38.7,202.78-39.54,204.76-40.37Z"/><path d="M226.88,153.35c1.39-1.5,2-.69,2.93.69Z"/><path d="M211.65,156.47c.33.88.85,1.85-1.22,2.15C211.09,155.88,210.78,156.27,211.65,156.47Z"/><path d="M220.51-18.65c1.53.36.87-.08,2.46,1.42C221.48-16.5,221-17.19,220.51-18.65Z"/><path d="M154.63.93l1.72,1.42C154.93,3.16,154.93,3.16,154.63.93Z"/><path d="M138.4-89c-.9,1.65-1.71,1.44-2.66.47Z"/><path d="M166.7-17.14c-.48,1.54-1.23,2.19-2.66,1.07Z"/><path d="M8.18,113.91l2.33.34L9,116.66Z"/><path d="M36.23,225.78c0-2,1.06-1.78,2.2-1.48Z"/><path d="M126.76-7c1.71,2.54,2,2.16-.48,1.58C126.87-7.13,126.85-6.95,126.76-7Z"/><path d="M130.33-8.65c1.35-.38,1.78.34,2,1.65C130.73-6.92,130.47-9.21,130.33-8.65Z"/><path d="M108.89,21c1.53,1,.69,1.92.66,2.74C108.5,23.72,108.74,24.22,108.89,21Z"/><path d="M227.63,5.29c1.38-2.66,1-2.35,1.66-1.95-.26.85.07,2.14-1.67,1.9Z"/><path d="M260,107.35c-.13-1.2-.2-1.8-.27-2.46C261,105.48,261,105.48,260,107.35Z"/><path d="M176.38-23l-2.24-.61C175-24.17,175.84-25,176.38-23Z"/><path d="M199.57,175.7c-1.29-1.26-1.31-.86-.16-1.76C200.28,175.58,200.29,175.2,199.57,175.7Z"/><path d="M-2.79,135.66c-1.36,1.54-2.58,0-2-.48C-4,134.53-3.41,134.82-2.79,135.66Z"/><path d="M132-56.2l2.6,1-1.85,1.06C132.59-54.66,132.42-55.11,132-56.2Z"/><path d="M217.6-71.57c-.42-.33-.85-.65-1.24-1,0,0,.37-.6.43-.57a12.44,12.44,0,0,1,1.35.71Z"/><path d="M77.12,20.8l-1.86-1.67,2.12-.6Z"/><path d="M152.13,10.29c1.29-1.08,1.77-.64,2.26.26C153.43,11.07,154.06,11.2,152.13,10.29Z"/><path d="M244.83-11.78c-.62-.15-1.22-.14-1.32-.36a1.29,1.29,0,0,1,.15-1.18c.24-.23.79-.12,1.21-.16C244.86-13,244.85-12.51,244.83-11.78Z"/><path d="M224.31-22.74,221.66-23l2.55-1.49C224.25-22.5,224.21-22.76,224.31-22.74Z"/><path d="M116-89.83c2.46-1.29,2-1.22,2.34-.56C116-89,116.42-89.07,116-89.83Z"/><path d="M187.22-138.92c.15,1.35.47.93-1.67,1.74C185.64-138.67,186.27-139,187.22-138.92Z"/><path d="M136.29-78.91c1.59.65,1.69,1.27,1.17,2-.14.18-.6.11-.92.15C136.48-77.37,136.41-77.95,136.29-78.91Z"/><path d="M28.38,123.55c-.61,1.38-.21,1.13-1.45,1C27.27,123.09,27,123.46,28.38,123.55Z"/><path d="M156.66,43.33c-.62-.15-1.06-.13-1.19-.32a1,1,0,0,1-.06-.95,1,1,0,0,1,.87-.15A5,5,0,0,1,156.66,43.33Z"/><path d="M258.41-1c-.33,0-.81.05-1-.14-.71-.86.35-1.23.6-1.83C258.38-3.78,258.35-2.18,258.41-1Z"/><path d="M73.53-56.43c-.81,1.66-.36,1.42-1.63,1.4C71.7-55.77,71.38-55.45,73.53-56.43Z"/><path d="M162.85,87.06c-1,1.4-.32,1.25-2.26,1C160.89,86.92,160.27,87.16,162.85,87.06Z"/><path d="M112.58,122l-2,0C111.33,120.71,111.93,120.83,112.58,122Z"/><path d="M28.35,179.73c.18.91.29,1.5.43,2.24-.36,0-.64.06-.8-.05C27.06,181.28,27.2,180.63,28.35,179.73Z"/><path d="M124.18,121.05c.14-2,.14-2,1.83-1.69C125.68,121,123.48,121,124.18,121.05Z"/><path d="M122.55,153.29c-.21.8,0,1.66-1.44,1a1.13,1.13,0,0,1,.1-.89A4,4,0,0,1,122.55,153.29Z"/><path d="M62.23-49.42c.81-.3.54-.57,1.27,1C62.53-48,62.83-47.78,62.23-49.42Z"/><path d="M156.9,144c.29,1.64-.34,2-1.06,2.21C155.05,145.52,154.94,146,156.9,144Z"/><path d="M78.1,207.83c-1,1.25-.45,1.24-2,.59C76.74,207.46,76.21,207.55,78.1,207.83Z"/><path d="M194.41,131.9c.63-1.34,1.16-1.49,2.29-.36Z"/><path d="M73.15,216.24,71,217.7C71,215.9,72,216.08,73.15,216.24Z"/><path d="M214.21,163.29c1.06,1.58,1.11,1.18,0,1.86C213.25,163.52,213.21,163.92,214.21,163.29Z"/><path d="M291.65,112.27c-.36,1.29.09,1.13-1.46,1.06C290.26,111.89,290,112.17,291.65,112.27Z"/><path d="M201.73,176.1l2.7.14C203.19,177.54,203.19,177.54,201.73,176.1Z"/><path d="M40.24,289.09c.78-.25,1.46-1,2.93,0C39.94,289.78,40.51,289.86,40.24,289.09Z"/><path d="M147.36-92.42c-1.53.61-1.18.61-1.53-.22C147.36-93.26,147-93.35,147.36-92.42Z"/><path d="M131.16-59.51c-1.72.7-2,.08-2-1.31Z"/><path d="M116.93-17c1.67.41,1.32,1.13.47,2.16C116.36-16.35,116.55-15.8,116.93-17Z"/><path d="M78.28,12c-1.2,1.62-1.77,1.13-2.69,0Z"/><path d="M127.84-1.68c-.26.62-.51,1.24-1,2.31C126.13-.93,126.71-1.42,127.84-1.68Z"/><path d="M167,140.19c.11-.67.22-1.34.35-2.16C168.28,139.19,168.28,139.19,167,140.19Z"/><path d="M19.58,93.73c-1,.87-1.59.82-2.25-.09C18.13,92.76,18.77,93,19.58,93.73Z"/><path d="M149.48,10.85c-.73,1.25-.73,1.25-1.86.28Z"/><path d="M109.88,54.31a13.43,13.43,0,0,1-1.12,1,1.73,1.73,0,0,1-.5-.43c.27-.42.6-.82.91-1.22Z"/><path d="M224.24-22.75c2.2,2.72,1.7,2.23-1.62,1.15C224.56-22.91,224.34-22.73,224.24-22.75Z"/><path d="M215.73-8.14l1.52,2.26C215.47-6,216-7.29,215.73-8.14Z"/><path d="M282.93,113.53,280.78,115C281.2,113.23,282.15,113.53,282.93,113.53Z"/><path d="M117.67,28.55c0-1.31-.45-.87,1.55-1.66C119.6,27.73,119.89,27.36,117.67,28.55Z"/><path d="M110.8,3.07c-1.52.77-1.25,1.09-1-1.21.53-.09.29-.3,1,1.26Z"/><path d="M40.75-7.62a4.14,4.14,0,0,1-.75,1,.94.94,0,0,1-.86-.25.9.9,0,0,1,0-.87c.15-.19.56-.15.85-.22Z"/><path d="M15.15,70.27c-1.28-1.14-1.11-.82-.55-1.49C15.88,70,15.8,69.67,15.15,70.27Z"/><path d="M274.13,107.76c-1,1.39-.48,1.26-2,1C272.42,107.51,272,107.86,274.13,107.76Z"/><path d="M-14.8,25.73l1.31-.72a2.73,2.73,0,0,1,.23.44C-14.7,26.54-14.46,26.36-14.8,25.73Z"/><path d="M98.81-59.78c.4.82.66.47-1,1.55C97.3-59.29,97.13-58.93,98.81-59.78Z"/><path d="M147.13,3.12a3.32,3.32,0,0,1-2.07-.89c0,.09-.24.18,1.58-.73C146.8,2,147,2.58,147.13,3.12Z"/><path d="M119.19,3.62c1.55-1.35,1.18-1.26,1.7-.73C119.52,4.42,119.89,4.31,119.19,3.62Z"/><path d="M151.74,7.71c2.09.53,1.73.31,1.8,1C151.72,9.4,152.14,9.67,151.74,7.71Z"/><path d="M126.65-17.18c-.24-1.78-.46-1.45.79-1.56C127.35-16.89,127.55-17.2,126.65-17.18Z"/><path d="M-26.17,187.22a4.73,4.73,0,0,1,1,.41c-.24,1.57-.62,1.08-1.3,1Z"/><path d="M69.54,233.65c-.25.48-.38,1-.53,1a1.53,1.53,0,0,1-1.07-.36c-.13-.13.11-.63.18-1Z"/><path d="M143.3,17.28c.79,1.75.69,1.14.17,2.3C142.21,18.88,142.42,18.27,143.3,17.28Z"/><path d="M188.11,127.12c1.43.34,1.24-.06.9,1.41C187.89,128.15,188.14,128.5,188.11,127.12Z"/><path d="M159.83,143.54c1.11-1.83.75-1.64,1.61-1.11C160.31,144.24,160.67,144.05,159.83,143.54Z"/><path d="M160.36,81.05c-.51.06-1.09.3-1.52.14s-.07-.93.67-1C160.5,80.11,160.29,79.94,160.36,81.05Z"/><path d="M135.59-45.8c-.12,1.8-.12,1.8-2,1.63C135.88-46,135.69-45.78,135.59-45.8Z"/><path d="M109.91-29.23c-.24,1.08-.39,1.81-.67,3.09C108.36-27.64,108.46-28.38,109.91-29.23Z"/><path d="M136.88-46.61c-.1.59.16.4-1.29.81C135.43-47.09,134.28-47.21,136.88-46.61Z"/><path d="M118-35.21c.79.38.8,0,.13,1.72C117.35-33.79,117.42-33.43,118-35.21Z"/><path d="M311.8,35.61c-.45.86-.33,1.45-1.67.53-.06,0,.16-.77.3-.79A4.89,4.89,0,0,1,311.8,35.61Z"/><path d="M109.76-30.22c-.42-1.41-.54-1.08.63-1.33C110.37-30,110.53-30.31,109.76-30.22Z"/><path d="M138.38-20.89c1.45,1.08.94.54,1.75,2.21C137.58-19.85,137.92-19.33,138.38-20.89Z"/><path d="M-1.16,207.33c-.51,1.32-.05,1.18-1.55,1C-2.25,207.11-2.57,207.44-1.16,207.33Z"/><path d="M-4.3,132c.46.77.66.47-.67,1.37C-5.47,132.62-5.58,132.92-4.3,132Z"/><path d="M38.12,216.27c-.65,1.94-.3,1.52-1.48,1.39C36.9,216.26,36.61,216.69,38.12,216.27Z"/><path d="M150.13,6.22c.54.07,1,0,1.15.18a.87.87,0,0,1-.07.85.91.91,0,0,1-.89,0C150.15,7.15,150.2,6.71,150.13,6.22Z"/><path d="M76.76,37.23c-.76,1.21-.32,1.13-1.59.77C75.61,36.82,75.21,37.05,76.76,37.23Z"/><path d="M142.33,116.07c-.06-2.4-.25-2,.55-2C142.74,116.46,142.91,116.09,142.33,116.07Z"/><path d="M167.46,200.51c-1.37-.53-1.86-.95-1.57-1.8C166.82,198.45,166.46,198.11,167.46,200.51Z"/><path d="M29.43,114c-.11.71-.19,1.25-.28,1.82-.31-.09-.54-.09-.61-.19C27.93,114.74,28,114.16,29.43,114Z"/><path d="M122-87.64c-1.6-.45-1.38-.29-1.41-.77.9-.21.51-.38,1.59.38Z"/><path d="M60.74,232.46c.37-.32.73-.65,1.11-.94a1,1,0,0,1,.35.29c-.21.44-.47.85-.71,1.27Z"/><path d="M145.63,153.89c1.76.57,1.51.34,1.26,1C145.18,154.23,145.42,154.46,145.63,153.89Z"/><path d="M228-43.07c-1.41,1-1.12.89-1.43.57C227.81-43.86,227.49-43.78,228-43.07Z"/><path d="M99.64,226.82c.21-.42.41-.85.66-1.26a1.28,1.28,0,0,1,.43.14C100.35,227.44,100.47,227.17,99.64,226.82Z"/><path d="M198.6,176.64c1.39.12,1.16-.25,1.06,1.23C198.35,177.7,198.71,177.92,198.6,176.64Z"/><path d="M194.64,181.08c.07-.45.12-.9.23-1.33a1.55,1.55,0,0,1,.48,0C195.45,181.45,195.49,181.17,194.64,181.08Z"/><path d="M8.71,67.4c.08-.22.08-.56.24-.66a2.45,2.45,0,0,1,1.62-.45C8.77,68,9.16,67.81,8.71,67.4Z"/><path d="M79.11-1.73c-.44-.09-.88-.17-1.31-.3a1.44,1.44,0,0,1,0-.46C79.53-2.44,79.26-2.49,79.11-1.73Z"/><path d="M113.72-27.59c.52-.74.2-.8,1.43,0C114.76-26.77,115.07-26.8,113.72-27.59Z"/><path d="M225.19,163.33c-1,1.31-.71,1.17-1.22.8C224.94,162.83,224.66,162.94,225.19,163.33Z"/><path d="M105.73-25.18l-.45-1.43C106.28-26.15,106.28-26.15,105.73-25.18Z"/><path d="M65.67-4.46c-.54,1.22-.12,1.1-1.45.93C64.5-4.67,64.12-4.44,65.67-4.46Z"/><path d="M94.92,31.39c.72.37.52,0,.86,1.33C94.22,32.62,94.6,32.23,94.92,31.39Z"/><path d="M150.75,31.57l1,1c-.13.11-.35.33-.38.31C150,31.86,150.21,32,150.75,31.57Z"/><path d="M164.06-82.53c-.48,1.43-.07,1.23-1.4,1.22C162.86-82.48,162.51-82.16,164.06-82.53Z"/><path d="M27.45,117.71c-.84,1.09-.5.87-1.36.73C26.68,117.07,26.39,117.3,27.45,117.71Z"/><path d="M143,.32l2.31-1.92C144.82,1.14,143.06,0,143,.32Z"/><path d="M149.84-117.32c1.55.43,1.28.08,1.16,1.26C150.12-116.21,150.41-115.86,149.84-117.32Z"/><path d="M225.94-11.17c.61.47,1.92.53,1.1,1.91C225.42-9.72,226.18-11.17,225.94-11.17Z"/><path d="M31.25-9.89c-.86,1-.44,1-1.61.47C30.14-10.36,29.72-10.28,31.25-9.89Z"/><path d="M90.86-53.45l-1.07.38c-.05-.17-.16-.48-.15-.49C90.9-54.06,90.7-53.95,90.86-53.45Z"/><path d="M42.82-21.44c-.26,1,.06.87-1.12.61C42-21.68,41.71-21.55,42.82-21.44Z"/><path d="M12.23-3.87c-.62,1.32-.14,1.22-1.64.9C11.1-4,10.68-3.81,12.23-3.87Z"/><path d="M-16.14,13.5c1.38.89,1.11.47.84,1.61C-16.57,14.59-16.25,14.92-16.14,13.5Z"/><path d="M207.14,13.85c-1.88-.63-1.49-.23-1.6-1.47C206.16,12.13,205.84,11.91,207.14,13.85Z"/><path d="M203.19,16.46c-.49-.13-.92-.12-1-.3a.87.87,0,0,1,.06-.86.87.87,0,0,1,.87,0C203.26,15.48,203.16,15.91,203.19,16.46Z"/><path d="M-66.67,197l1.15,2.58C-66.94,199-67.31,198.5-66.67,197Z"/><path d="M199.62,27.23c1.25-.85,1-.79,1.29-.4C199.77,27.81,200.05,27.75,199.62,27.23Z"/><path d="M112.57,88.58c-.33-.11-.68-.13-.73-.26a.76.76,0,0,1,.11-.71.67.67,0,0,1,.68.09C112.74,87.85,112.61,88.18,112.57,88.58Z"/><path d="M180.17,42.64a7.75,7.75,0,0,1-.68,1.2c-.05.06-.63-.17-.63-.2C179.16,42.13,179.2,42.51,180.17,42.64Z"/><path d="M219.39,17.54c.82,1.78.84,1.41.06,1.78C218.55,17.48,218.52,17.86,219.39,17.54Z"/><path d="M170.44,52.32l-.92-.15a6.14,6.14,0,0,1,.23-.94c0-.06.45-.06.46,0A9.57,9.57,0,0,1,170.44,52.32Z"/><path d="M7.11-6.74c-1.52.27-1.89-.25-2-1.11C5.78-8.43,5.36-8.62,7.11-6.74Z"/><path d="M269.94,3.56c-1.91-.59-1.63-.35-1.57-1,1.54,0,1.05-.11,1.8.59Z"/><path d="M78.44,30.41a3.31,3.31,0,0,1-.37,1c0,.06-1.08.13-.55-1C77.55,30.27,78,30.37,78.44,30.41Z"/><path d="M143.46,7.27l-1.08-1.82C144.51,5.58,144.25,5.33,143.46,7.27Z"/><path d="M141.49-4.52c.53.84.18,1.29-1,1.63C141-4.9,140.72-4.61,141.49-4.52Z"/><path d="M107.71,124.73c-.74,1.62-.47,1.42-1.18,1.08C107.3,124.21,107,124.41,107.71,124.73Z"/><path d="M6.85,196c-1.49-.34-1.29,0-1.19-1.28C7,194.86,6.58,194.63,6.85,196Z"/><path d="M126.13,19.29c-.53,1.4-.11,1.28-1.4,1C124.94,19.4,124.56,19.64,126.13,19.29Z"/><path d="M110.78,3.12c1.87.07,1.24,1.41.61,1.35C110.05,4.35,111,2.69,110.78,3.12Z"/><path d="M-11.39,87.48c-.84-1.88-.82-1.5-.25-1.82C-10.47,87.39-10.48,87-11.39,87.48Z"/><path d="M159.39,134.21c1.45-1.13,1.11-1.08,1.58-.54C159.51,135,159.85,134.94,159.39,134.21Z"/><path d="M-82.9,133.9c.3-.54.51-1.65,1.4-.57.09.11-.06.64-.19.67A3.82,3.82,0,0,1-82.9,133.9Z"/><path d="M-111.9,69.22c-.83,1.3-1.36,1.21-2.21,0Z"/><path d="M144.76,166.51c-1.17,2.1-.88,1.86-1.48,1.7C143.35,166.74,143.09,167.24,144.76,166.51Z"/><path d="M198.89-77.61c-.57-1.44-.63-1.16,0-1.38C199.36-77.5,199.38-77.78,198.89-77.61Z"/><path d="M122.9-27.08c-.15.38-.27.68-.4,1-.64-.31-1.1-.13-.37-1.28A4.22,4.22,0,0,1,122.9-27.08Z"/><path d="M160.92,10.21l1.53-1.47C162.52,9.94,162.52,9.94,160.92,10.21Z"/><path d="M147.65-49.51c.18.34.37.67.53,1a1.36,1.36,0,0,1-.35.21C147-49.29,147.09-49.12,147.65-49.51Z"/><path d="M72.38-1.49l.89.25a3.21,3.21,0,0,1-.33.9c-.06.09-.65,0-.65-.1A4.68,4.68,0,0,1,72.38-1.49Z"/><path d="M116.44,43c-.69,1.13-.49,1-1,.68C116.15,42.57,115.93,42.69,116.44,43Z"/><path d="M7.75,121.34c-.54.87-.15.85-1.39.39C7.12,120.93,6.79,121.11,7.75,121.34Z"/><path d="M27,212.87a3.35,3.35,0,0,1,.92.38c.07.05-.09.61-.19.62a3.37,3.37,0,0,1-.92-.14Z"/><path d="M127.46,114.06c.48.51,1.14,1,.23,1.86C126.68,115.07,127.71,114.08,127.46,114.06Z"/><path d="M130.91,146.26c-.8,1.2-.42,1-1.48.59C130.22,145.77,129.86,146,130.91,146.26Z"/><path d="M120.08,155.29c-.11.35-.11.71-.27.79a.72.72,0,0,1-.68-.15.7.7,0,0,1,.14-.65C119.41,155.16,119.73,155.27,120.08,155.29Z"/><path d="M220.07,9.09c1.16.77.91.4,1,1.36C220.12,10.38,220.43,10.68,220.07,9.09Z"/><path d="M247.4-7.66c-.59,0-.43.28-.73-1.12C247.25-8.88,247.08-9.1,247.4-7.66Z"/><path d="M72.73,198.14l.82.19c-.06.22,0,.57-.19.63a.73.73,0,0,1-.68-.11C72.59,198.78,72.7,198.44,72.73,198.14Z"/><path d="M213.54-60.6c-.3,1,0,.83-1,.79C212.72-60.8,212.54-60.53,213.54-60.6Z"/><path d="M223.5,4.3c-.32-1.27-.31-.78.2-1.86.6,1.35.54.89.25,1.8Z"/><path d="M309.64,47.54c-.93-.15-.8.12-.83-.84C309.7,46.72,309.48,46.51,309.64,47.54Z"/><path d="M-20.23,11.94l.82,0a2.62,2.62,0,0,1-.22.81c0,.07-.51,0-.63-.13S-20.25,12.22-20.23,11.94Z"/><path d="M166,143.63c.46,1.3.54,1-.24,1.25C165.56,143.52,165.46,143.76,166,143.63Z"/><path d="M23.59,187.2c1.46-.87,1.16-.83,1.45-.34C23.65,187.79,24,187.8,23.59,187.2Z"/><path d="M124.11,121.05c.56.23,1,.56.41,1.15-.14.15-.54.08-.82.11C124.25,120.86,124.2,121.05,124.11,121.05Z"/><path d="M125.84,106.86c0,1,.25.82-.9.84C125.08,106.81,124.85,107,125.84,106.86Z"/><path d="M4.36,148.6c-1,0-.89.2-.7-.93C4.63,147.88,4.38,147.71,4.36,148.6Z"/><path d="M90.13,212c-1.36-.33-1.09-.06-.93-1.16C90.45,211.2,90.13,210.94,90.13,212Z"/><path d="M182.78,148.3a7.26,7.26,0,0,1,.27-.94,1.17,1.17,0,0,1,.46.07C183.53,148.57,183.48,148.38,182.78,148.3Z"/><path d="M258.78,101.75c0,1.49.18,1.25-.41,1.29C258.23,101.63,258.11,101.89,258.78,101.75Z"/><path d="M121.3,25.34c-.62,1.09-.38.93-1.1.54C120.83,24.82,120.57,24.91,121.3,25.34Z"/><path d="M190.47,152.6c-1.4-.41-1.07-.2-1.14-.85C190.84,152.24,190.66,152,190.47,152.6Z"/><path d="M251.81,116.46l1,.63C251.78,117.26,252.06,117.37,251.81,116.46Z"/><path d="M-35.56,36.05c-1.06-.43-.95-.06-.62-1.26C-35.42,35-35.52,34.66-35.56,36.05Z"/><path d="M-5.11-10.17l.72.4a2.45,2.45,0,0,1-.43.56c-.09.06-.45-.08-.45-.12A4.29,4.29,0,0,1-5.11-10.17Z"/><path d="M179.3-13.89c.22-.3.44-.61.69-.89a1.31,1.31,0,0,1,.4.26C179.83-13.24,179.91-13.46,179.3-13.89Z"/><path d="M269.41,108.79a1.19,1.19,0,0,1,0,.46c-.42.11-.85.18-1.28.26C268.15,108.65,267.9,108.69,269.41,108.79Z"/><path d="M261.52,114.63c1.31.36,1.17.08.73,1.13C261.08,115.26,261.33,115.53,261.52,114.63Z"/><path d="M73.3-33.09c1,.41.82.14.68,1C73-32.35,73.26-32.15,73.3-33.09Z"/><path d="M4.56,214.3c-.9-.23-.8.06-.72-.92C4.71,213.5,4.51,213.27,4.56,214.3Z"/><path d="M167-10.67c.86,1.09.8.84.4,1.17C166.49-10.55,166.51-10.3,167-10.67Z"/><path d="M107.52,221.49c1.24-1,.93-1,1.41-.5C107.8,222.19,108.1,222.12,107.52,221.49Z"/><path d="M132,50.68l-.72-.31a4,4,0,0,1,.47-.78c.05,0,.54.18.58.34S132.19,50.37,132,50.68Z"/><path d="M219.44,149c.85-1.3.61-1.22,1.07-.75C219.27,149.05,219.36,149,219.44,149Z"/><path d="M138.69-109.53l1.26-.37a2.52,2.52,0,0,1,.09.48C138.64-108.83,138.86-109,138.69-109.53Z"/><path d="M40,77.35c-.59-.66-.73-.31.44-1.53C41.09,76.48,41.15,76.14,40,77.35Z"/><path d="M-53.14,172.53c-1.19,1.52-.86,1.37-1.5.86C-53.45,171.87-53.78,172-53.14,172.53Z"/><path d="M-13.6,33.37a7.21,7.21,0,0,1,1.21.43,1.38,1.38,0,0,1-.14.65C-14,34.4-13.66,34.21-13.6,33.37Z"/><path d="M196.42,172.7a2.9,2.9,0,0,1-.23.88c-.06.08-.58,0-.63-.14a.84.84,0,0,1,.07-.74C195.72,172.59,196.09,172.69,196.42,172.7Z"/><path d="M91.3,244.55l1.19-.39c0,.17.11.46.06.48C91.28,245.22,91.46,245,91.3,244.55Z"/><path d="M51.3,99.43c1,.16.86-.18.91,1.08C51.18,100.17,51.47,100.38,51.3,99.43Z"/><path d="M10.47,126c.41.26.84.42.84.57a1.11,1.11,0,0,1-.42.83c-.17.09-.74-.12-.78-.28S10.28,126.49,10.47,126Z"/><path d="M158.6-77.62c-.56.86-.32.71-1,.29C158.23-78.1,158-78,158.6-77.62Z"/><path d="M97.32,243a6.76,6.76,0,0,1,1.36.55c.07.06-.09.63-.19.64C97.27,244.36,97.47,243.69,97.32,243Z"/><path d="M22,117.89l1.36-.71c.13.53.23.93.45,1.84C21.77,117.7,22,117.79,22,117.89Z"/><path d="M215.42,166.11c.11.86.29.66-.92.77C214.47,166.27,214.22,166.46,215.42,166.11Z"/><path d="M58.33-6.84c.86.22.78-.07.65,1C57.88-6.06,58.06-5.86,58.33-6.84Z"/><path d="M296.22,27.12c-.71,1.35-.3,1.15-1.38,1.12C295.27,27.06,295,27.41,296.22,27.12Z"/><path d="M2.93,126.55c-.33,1.08,0,.9-1.21.94C1.8,126.66,1.41,126.85,2.93,126.55Z"/><path d="M29.22,148.16c1.3,1.09,1,.64.86,1.78C28.8,149.64,29.12,150.05,29.22,148.16Z"/><path d="M79.88,175.85c-.44.85-.24.66-.8.53C79.32,175.51,79.15,175.66,79.88,175.85Z"/></g></mask></defs><title>Asset 1</title><g id="Layer_2" data-name="Layer 2"><g id="Layer_1-2" data-name="Layer 1"><g class="cls-3"><path class="cls-2" d="M153,226.91A105.11,105.11,0,1,1,227.32,98.18,105.23,105.23,0,0,1,153,226.91ZM99.37,26.8A102.07,102.07,0,1,0,224.38,99,102.18,102.18,0,0,0,99.37,26.8Z"/><path class="cls-2" d="M245.24,93.36h0A8,8,0,0,1,242,83.28a8,8,0,0,0-4.48-10.72,8,8,0,0,1-4.95-9.35,8,8,0,0,0-6.32-9.74,8,8,0,0,1-6.53-8.32,8,8,0,0,0-8-8.46,8,8,0,0,1-7.91-7,8,8,0,0,0-9.35-6.9h0a8,8,0,0,1-9-5.49,8,8,0,0,0-10.42-5.12,8,8,0,0,1-9.88-3.79A8,8,0,0,0,154,5.2a8,8,0,0,1-10.39-2,8,8,0,0,0-11.56-1.13A8,8,0,0,1,121.49,2a8,8,0,0,0-11.58,1A8,8,0,0,1,99.49,4.8a8,8,0,0,0-11.22,3,8,8,0,0,1-9.93,3.64,8,8,0,0,0-10.5,5,8,8,0,0,1-9.12,5.35,8,8,0,0,0-9.45,6.76,8,8,0,0,1-8,6.9,8,8,0,0,0-8.08,8.33A8,8,0,0,1,26.51,52,8,8,0,0,0,20,61.62,8,8,0,0,1,15,70.9a8,8,0,0,0-4.65,10.64A8,8,0,0,1,7,91.58H7a8,8,0,0,0-2.67,11.3,8,8,0,0,1-1.5,10.47A8,8,0,0,0,2.19,125a8,8,0,0,1,.4,10.57A8,8,0,0,0,4.06,147a8,8,0,0,1,2.28,10.33h0a8,8,0,0,0,3.5,11.08,8,8,0,0,1,4.09,9.75,8,8,0,0,0,5.43,10.27h0a8,8,0,0,1,5.76,8.87,8,8,0,0,0,7.17,9.14,8,8,0,0,1,7.25,7.7,8,8,0,0,0,8.69,7.7,8,8,0,0,1,8.51,6.28h0a8,8,0,0,0,9.93,6,8,8,0,0,1,9.49,4.66A8,8,0,0,0,87,243a8,8,0,0,1,10.17,2.89,8,8,0,0,0,11.41,2.16h0a8,8,0,0,1,10.53,1,8,8,0,0,0,11.62.08,8,8,0,0,1,10.54-.87,8,8,0,0,0,11.44-2,8,8,0,0,1,10.22-2.73,8,8,0,0,0,10.9-4,8,8,0,0,1,9.57-4.52,8,8,0,0,0,10-5.88A8,8,0,0,1,202,223a8,8,0,0,0,8.8-7.57,8,8,0,0,1,7.37-7.59,8,8,0,0,0,7.31-9h0a8,8,0,0,1,5.89-8.78A8,8,0,0,0,237,179.87h0a8,8,0,0,1,4.23-9.69,8,8,0,0,0,3.67-11,8,8,0,0,1,2.43-10.3,8,8,0,0,0,1.65-11.5,8,8,0,0,1,.55-10.56,8,8,0,0,0-.43-11.61,8,8,0,0,1-1.34-10.49A8,8,0,0,0,245.24,93.36ZM154.17,231.3A109.65,109.65,0,1,1,231.71,97,109.65,109.65,0,0,1,154.17,231.3Z"/><path class="cls-2" d="M142.81,188.92a65.77,65.77,0,1,1,46.51-80.56A65.85,65.85,0,0,1,142.81,188.92ZM109.56,64.8a62.73,62.73,0,1,0,76.82,44.35A62.8,62.8,0,0,0,109.56,64.8Z"/><path class="cls-2" d="M41.78,116.46,43,109l3.72.6-1.2,7.43Z"/><path class="cls-2" d="M56.18,95.19a9,9,0,0,1-4.58,1.66A9.8,9.8,0,0,1,43,92.48a9.07,9.07,0,0,1-1.38-4.67,10.65,10.65,0,0,1,1.23-5.08,10.92,10.92,0,0,1,2.79-3.59,8.57,8.57,0,0,1,3.74-1.8l1.16,4.22a5.36,5.36,0,0,0-3.8,2.84A5.17,5.17,0,0,0,46.08,87a4.47,4.47,0,0,0,.82,2.41A5.64,5.64,0,0,0,49,91.21a5.49,5.49,0,0,0,2.69.65,4.47,4.47,0,0,0,2.42-.76,5.22,5.22,0,0,0,1.76-2,5.35,5.35,0,0,0,0-4.75L60,82.73a8.59,8.59,0,0,1,.76,4.08,10.92,10.92,0,0,1-1.22,4.38A10.8,10.8,0,0,1,56.18,95.19Z"/><path class="cls-2" d="M70.8,68.57l3,2.57-9.45,11L50.67,70.37l9.22-10.73,3,2.57L57,69.11l2.31,2L64.49,65l2.89,2.49-5.23,6.08,2.51,2.15Z"/><path class="cls-2" d="M79.75,60.57l-2.27,1.6,2.77,3.92-4.17,3L65.66,54.31l6.73-4.76a10.11,10.11,0,0,1,3.94-1.8,6.27,6.27,0,0,1,3.61.29,6.37,6.37,0,0,1,2.85,2.32A6.3,6.3,0,0,1,84,53.68a6.09,6.09,0,0,1-.81,3.37l6.45,2.38-4.46,3.16Zm-3-8.37a3.5,3.5,0,0,0-2.34.81l-2.31,1.64,3,4.31,2.31-1.64a3.55,3.55,0,0,0,1.54-1.93,2.41,2.41,0,0,0-.47-2A2.46,2.46,0,0,0,76.8,52.2Z"/><path class="cls-2" d="M90.36,44.08l-5.15,2.05-1.5-3.75,15-6,1.5,3.75-5.12,2,5.19,13-4.74,1.89Z"/><path class="cls-2" d="M104.19,35.21l5-1.06,3.74,17.66-5,1Z"/><path class="cls-2" d="M121.63,36.69l.13,4,8-.28.14,3.94-8,.28.21,6.18L117,51l-.62-18,14.14-.49.14,3.94Z"/><path class="cls-2" d="M136.59,33.21l5,.72-2.53,17.86-5.05-.72Z"/><path class="cls-2" d="M158.23,53.19,157,56.93l-13.75-4.57,5.69-17.12,13.43,4.46-1.25,3.75-8.63-2.87-1,2.88L159.13,46l-1.21,3.62-7.6-2.53-1,3.13Z"/><path class="cls-2" d="M169.66,43l7.15,4.65a12,12,0,0,1,3.8,3.8A8.38,8.38,0,0,1,181.88,56a9.67,9.67,0,0,1-5.21,8,8.27,8.27,0,0,1-4.69.69,11.79,11.79,0,0,1-5-1.94l-7.15-4.65ZM169,59.26a5.24,5.24,0,0,0,3.83.93A4.75,4.75,0,0,0,176,57.91a4.7,4.7,0,0,0,.81-3.81,5.28,5.28,0,0,0-2.4-3.14l-2.7-1.76-5.4,8.3Z"/><path class="cls-2" d="M190,70.55l4.69,5.9-3,2.34-4.68-5.9Z"/><path class="cls-2" d="M60.19,174.34l4.58,6-3,2.29-4.58-6Z"/><path class="cls-2" d="M72.79,199.37a8.86,8.86,0,0,1-1-4.76,9.77,9.77,0,0,1,5.5-8,8.88,8.88,0,0,1,4.81-.73A10.62,10.62,0,0,1,87,187.8a11,11,0,0,1,3.18,3.25,8.77,8.77,0,0,1,1.28,4l-4.35.57a5.32,5.32,0,0,0-2.29-4.15,5.24,5.24,0,0,0-2.52-1,4.44,4.44,0,0,0-2.5.49,6,6,0,0,0-3.06,4.43,4.47,4.47,0,0,0,.43,2.5,5.28,5.28,0,0,0,1.79,2,5.35,5.35,0,0,0,4.7.68l1,4.26a8.55,8.55,0,0,1-4.15.21,11,11,0,0,1-4.16-1.82A10.57,10.57,0,0,1,72.79,199.37Z"/><path class="cls-2" d="M103.6,211.45l-1.39,3.7-13.56-5.09L95,193.17l13.25,5-1.38,3.7-8.52-3.2-1.07,2.85,7.5,2.82-1.33,3.57-7.51-2.82-1.16,3.09Z"/><path class="cls-2" d="M117.36,212.89l-2.76-.31-.53,4.77-5.07-.57,2-17.93,8.2.91a10.35,10.35,0,0,1,4.14,1.28,6.1,6.1,0,0,1,3.09,6.24,6,6,0,0,1-4.14,5.27l3.25,6.06-5.43-.6Zm3.35-8.21a3.55,3.55,0,0,0-2.28-1l-2.82-.31-.58,5.25,2.82.31a3.56,3.56,0,0,0,2.43-.41,2.78,2.78,0,0,0,.43-3.88Z"/><path class="cls-2" d="M133.76,203.88l-5.5.71-.52-4,16-2.09.53,4-5.47.72,1.81,13.87-5.07.66Z"/><path class="cls-2" d="M145.66,197.58l4.87-1.52,5.39,17.21-4.87,1.53Z"/><path class="cls-2" d="M160.46,196.09l1.84,3.52,7.06-3.67,1.82,3.49-7.06,3.68L167,208.6,162.45,211l-8.33-16,12.55-6.53,1.82,3.5Z"/><path class="cls-2" d="M168.52,186.69l4-3.12,11,14.27-4,3.12Z"/><path class="cls-2" d="M195.69,179.94l2.94,2.63L189,193.36l-13.44-12L185,170.79l2.94,2.63-6.06,6.78,2.26,2,5.35-6,2.84,2.55-5.34,6,2.45,2.2Z"/><path class="cls-2" d="M186.7,168.61l3.86-7.61a11.92,11.92,0,0,1,3.36-4.19,8.39,8.39,0,0,1,4.42-1.75,9.61,9.61,0,0,1,8.5,4.32A8.36,8.36,0,0,1,208,164a12,12,0,0,1-1.4,5.19l-3.86,7.61Zm16.22-1.11a5.2,5.2,0,0,0,.51-3.91A5.39,5.39,0,0,0,197,160.3a5.26,5.26,0,0,0-2.86,2.73l-1.45,2.87,8.82,4.48Z"/><path class="cls-2" d="M206,143.4,207,136l3.72.54-1.07,7.45Z"/><path class="cls-2" d="M110.7,69.06a58.32,58.32,0,1,0,71.42,41.23A58.32,58.32,0,0,0,110.7,69.06Zm11.48,104.12L80.53,149.13l12.12-21,20.65,11.92,32.58-56.43,21,12.13Z"/></g></g></g></svg>